<svg width="36" height="36" viewBox="0 0 36 36" fill="none" xmlns="http://www.w3.org/2000/svg">
<path d="M18.8123 10.8578L10.9472 9.66307C10.5822 9.60618 10.2097 9.70601 9.93063 9.94217C9.65154 10.1858 9.4873 10.5358 9.4873 10.9007V25.9793C9.4873 26.3733 9.80934 26.6953 10.2033 26.6953H12.5294V22.9383C12.5294 22.2438 13.0876 21.6856 13.7821 21.6856H15.5715C16.2661 21.6856 16.8242 22.2438 16.8242 22.9383V26.6953H19.8653V12.0966C19.8642 11.4804 19.4198 10.9587 18.8123 10.8578ZM13.4236 20.0754H12.3502C12.0539 20.0754 11.8134 19.835 11.8134 19.5387C11.8134 19.2424 12.0539 19.002 12.3502 19.002H13.4236C13.7199 19.002 13.9603 19.2424 13.9603 19.5387C13.9603 19.835 13.7199 20.0754 13.4236 20.0754ZM13.4236 17.9285H12.3502C12.0539 17.9285 11.8134 17.6881 11.8134 17.3918C11.8134 17.0956 12.0539 16.8551 12.3502 16.8551H13.4236C13.7199 16.8551 13.9603 17.0956 13.9603 17.3918C13.9603 17.6881 13.7199 17.9285 13.4236 17.9285ZM13.4236 15.7817H12.3502C12.0539 15.7817 11.8134 15.5412 11.8134 15.2449C11.8134 14.9487 12.0539 14.7082 12.3502 14.7082H13.4236C13.7199 14.7082 13.9603 14.9487 13.9603 15.2449C13.9603 15.5412 13.7199 15.7817 13.4236 15.7817ZM13.4236 13.6348H12.3502C12.0539 13.6348 11.8134 13.3943 11.8134 13.0981C11.8134 12.8018 12.0539 12.5614 12.3502 12.5614H13.4236C13.7199 12.5614 13.9603 12.8018 13.9603 13.0981C13.9603 13.3943 13.7199 13.6348 13.4236 13.6348ZM17.0014 20.0754H15.9279C15.6317 20.0754 15.3912 19.835 15.3912 19.5387C15.3912 19.2424 15.6317 19.002 15.9279 19.002H17.0014C17.2976 19.002 17.5381 19.2424 17.5381 19.5387C17.5381 19.835 17.2976 20.0754 17.0014 20.0754ZM17.0014 17.9285H15.9279C15.6317 17.9285 15.3912 17.6881 15.3912 17.3918C15.3912 17.0956 15.6317 16.8551 15.9279 16.8551H17.0014C17.2976 16.8551 17.5381 17.0956 17.5381 17.3918C17.5381 17.6881 17.2976 17.9285 17.0014 17.9285ZM17.0014 15.7817H15.9279C15.6317 15.7817 15.3912 15.5412 15.3912 15.2449C15.3912 14.9487 15.6317 14.7082 15.9279 14.7082H17.0014C17.2976 14.7082 17.5381 14.9487 17.5381 15.2449C17.5381 15.5412 17.2976 15.7817 17.0014 15.7817ZM17.0014 13.6348H15.9279C15.6317 13.6348 15.3912 13.3943 15.3912 13.0981C15.3912 12.8018 15.6317 12.5614 15.9279 12.5614H17.0014C17.2976 12.5614 17.5381 12.8018 17.5381 13.0981C17.5381 13.3943 17.2976 13.6348 17.0014 13.6348Z" fill="#232536"/>
<path d="M25.6747 17.2779L20.5791 16.2109V26.6941H25.4096C26.0998 26.6941 26.6623 26.1327 26.6623 25.4414V18.5017C26.6623 17.9102 26.2587 17.4067 25.6747 17.2779ZM23.9787 24.5473H22.9052C22.609 24.5473 22.3685 24.3068 22.3685 24.0105C22.3685 23.7143 22.609 23.4738 22.9052 23.4738H23.9787C24.2749 23.4738 24.5154 23.7143 24.5154 24.0105C24.5154 24.3068 24.2749 24.5473 23.9787 24.5473ZM23.9787 22.4004H22.9052C22.609 22.4004 22.3685 22.1599 22.3685 21.8637C22.3685 21.5674 22.609 21.3269 22.9052 21.3269H23.9787C24.2749 21.3269 24.5154 21.5674 24.5154 21.8637C24.5154 22.1599 24.2749 22.4004 23.9787 22.4004ZM23.9787 20.2535H22.9052C22.609 20.2535 22.3685 20.0131 22.3685 19.7168C22.3685 19.4205 22.609 19.1801 22.9052 19.1801H23.9787C24.2749 19.1801 24.5154 19.4205 24.5154 19.7168C24.5154 20.0131 24.2749 20.2535 23.9787 20.2535Z" fill="#FFD050"/>
</svg>
