<?xml version="1.0"?>
<svg xmlns="http://www.w3.org/2000/svg" version="1.2" baseProfile="tiny" width="800" height="226" viewBox="0 0 800 226" stroke-linecap="round" stroke-linejoin="round">
<g id="Côn Đảo (phường xã)">
<path d="M 1.58 224.64 1.55 224.76 1.15 224.67 1 224.5 1.09 224 1.93 223.8 2.2 224.09 2.2 224.35 1.9 224.41 1.79 224.58 1.58 224.64 Z M 70.84 189.12 70.77 189.24 70.66 189.33 70.52 189.33 70.41 189.27 70.31 189.18 70.19 189.12 70.06 189.12 69.92 189.62 69.9 189.62 69.77 189.58 69.66 189.49 69.56 189.41 69.45 189.3 69.39 189.18 69.33 189.03 69.33 188.89 69.39 188.76 69.49 188.67 69.53 188.54 69.43 188.45 69.31 188.38 69.2 188.32 69.08 188.24 69 188.14 68.92 188 68.84 187.88 68.77 187.76 68.7 187.65 68.64 187.53 68.58 187.4 68.49 187.28 68.42 187.15 68.31 187.03 68.19 186.95 68.08 186.87 67.96 186.81 67.87 186.72 67.78 186.63 67.71 186.52 67.66 186.39 67.67 186.24 67.74 186.13 67.78 186 67.69 185.91 67.58 185.83 67.48 185.76 67.38 185.65 67.32 185.53 67.26 185.4 67.25 185.27 67.25 185.12 67.22 184.99 67.15 184.87 67.06 184.77 66.98 184.67 66.86 184.58 66.75 184.5 66.64 184.45 66.53 184.37 66.41 184.24 66.36 184.11 66.36 183.98 66.38 183.85 66.47 183.75 66.6 183.7 66.75 183.67 66.89 183.67 67.03 183.67 67.17 183.71 67.25 183.8 67.35 183.89 67.42 184 67.54 184.06 67.67 184.15 67.77 184.24 67.88 184.32 68.02 184.37 68.14 184.39 68.28 184.43 68.4 184.48 68.53 184.52 68.64 184.59 68.74 184.67 68.82 184.78 68.93 184.88 69.03 184.96 69.11 185.07 69.2 185.17 69.27 185.28 69.38 185.35 69.49 185.42 69.6 185.5 69.7 185.59 69.8 185.67 69.91 185.77 70 185.86 70.12 185.95 70.25 185.97 70.37 186.02 70.38 186.16 70.38 186.29 70.38 186.43 70.41 186.55 70.49 186.66 70.54 186.78 70.58 186.9 70.56 187.03 70.52 187.16 70.5 187.29 70.5 187.41 70.53 187.54 70.59 187.67 70.65 187.8 70.71 187.92 70.8 188.03 70.82 188.16 70.84 188.29 70.85 188.44 70.87 188.57 70.89 188.71 70.89 188.85 70.89 188.98 70.84 189.12 Z M 572.45 163.17 572.3 163.32 571.52 163.18 570.73 162.26 570.57 162.11 571.64 160.69 572.41 160.37 572.88 160.36 573.19 160.67 573.83 161.59 573.84 162.37 572.92 163.16 572.45 163.17 Z M 668.53 151.79 668.51 151.86 668.53 151.94 668.58 152 668.65 152 668.74 151.96 668.75 151.88 668.81 151.83 668.88 151.83 668.96 151.83 668.98 151.91 668.94 151.97 668.87 152.02 668.88 152.1 668.94 152.18 669.01 152.2 669.08 152.24 669.06 152.32 668.99 152.35 668.94 152.41 668.95 152.49 668.89 152.54 668.81 152.54 668.75 152.58 668.78 152.65 668.86 152.68 668.86 152.76 668.78 152.8 668.7 152.8 668.62 152.81 668.55 152.86 668.48 152.9 668.46 152.98 668.45 153.06 668.4 153.12 668.32 153.14 668.24 153.16 668.16 153.19 668.08 153.19 668.02 153.14 667.99 153.06 667.99 152.98 667.97 152.9 667.96 152.83 667.93 152.75 667.9 152.68 667.88 152.59 667.84 152.52 667.77 152.47 667.71 152.42 667.64 152.37 667.57 152.35 667.49 152.3 667.52 152.22 667.58 152.17 667.67 152.15 667.68 152.07 667.68 151.99 667.74 151.93 667.8 151.89 667.86 151.84 667.94 151.82 668.02 151.79 667.96 151.84 668.04 151.82 668.12 151.78 668.15 151.71 668.18 151.64 668.24 151.59 668.32 151.57 668.4 151.56 668.47 151.57 668.53 151.63 668.55 151.71 668.53 151.79 Z M 647.84 154.67 647.77 154.8 647.62 154.89 647.47 154.95 647.31 155.02 647.15 155.08 646.99 155.08 646.84 155.03 646.69 155.03 646.57 155.14 646.42 155.17 646.27 155.17 646.11 155.17 645.96 155.15 645.81 155.06 645.72 154.94 645.61 154.82 645.48 154.73 645.32 154.71 645.17 154.71 645.01 154.7 644.88 154.57 644.78 154.45 644.72 154.29 644.73 154.13 644.81 154 644.96 153.95 645.04 153.8 645.11 153.65 645.17 153.48 645.17 153.33 645.17 153.18 645.23 153.03 645.29 152.87 645.29 152.72 645.29 152.57 645.28 152.42 645.23 152.27 645.17 152.1 645.19 151.95 645.23 151.8 645.25 151.64 645.28 151.49 645.37 151.36 645.4 151.2 645.45 151.05 645.46 150.9 645.49 150.75 645.54 150.6 645.61 150.46 645.64 150.31 645.76 150.19 645.92 150.13 646.62 149.85 646.77 149.78 646.92 149.81 647.09 149.87 647.24 149.9 647.39 149.94 647.54 149.96 647.69 150 647.81 150.11 647.91 150.25 647.98 150.41 648.09 150.55 648.21 150.66 648.35 150.79 648.44 150.95 648.53 151.07 648.62 151.23 648.66 151.4 648.71 151.55 648.73 151.71 648.74 151.86 648.74 152.04 648.74 152.19 648.76 152.34 648.77 152.49 648.73 152.65 648.62 152.77 648.47 152.84 648.32 152.89 648.18 152.98 648.12 153.13 648.03 153.28 647.97 153.44 647.97 153.59 647.97 153.74 647.98 153.89 648.01 154.04 647.97 154.21 647.92 154.36 647.86 154.51 647.84 154.67 Z M 665.2 153.89 664.93 154.04 664.65 154.32 664.47 154.59 664.32 154.86 664.08 155.14 663.83 155.35 663.59 155.53 663.32 155.68 663.04 155.84 662.8 156.08 662.68 156.38 662.44 156.62 662.25 156.87 662.01 157.08 661.8 157.32 661.5 157.41 661.13 157.26 660.83 157.29 660.55 157.44 660.22 157.51 659.92 157.57 659.61 157.48 659.37 157.29 659.31 156.99 659.46 156.72 659.73 156.56 659.73 156.26 659.55 156.02 659.31 155.77 659.07 155.53 658.94 155.2 658.76 154.95 658.64 154.62 658.58 154.32 658.4 154.04 658.09 153.89 657.79 153.95 657.49 153.89 657.18 153.8 656.91 153.56 656.97 153.25 657.12 152.95 657.3 152.71 657.55 152.53 657.85 152.46 658.15 152.43 658.46 152.43 658.79 151.89 658.94 151.61 659.25 151.55 659.52 151.4 659.67 151.13 659.76 150.82 659.86 150.52 659.89 150.22 659.95 149.91 660.1 149.64 660.37 149.49 660.68 149.55 660.83 149.85 661.13 150 661.4 150.16 661.71 150.37 661.98 150.52 662.32 150.64 662.62 150.7 662.95 150.85 663.26 150.95 663.59 151.07 663.89 151.13 664.23 151.28 664.53 151.37 664.87 151.4 665.11 151.61 665.41 151.74 665.72 151.77 666.08 151.86 666.41 151.92 666.63 152.16 666.87 152.4 666.75 152.74 666.48 152.92 666.2 153.07 665.99 153.31 665.72 153.5 665.47 153.68 665.2 153.89 Z M 652.02 149.88 652.08 149.94 652.16 149.91 652.23 149.91 652.3 149.95 652.37 150.02 652.43 150.07 652.46 150.14 652.48 150.22 652.48 150.29 652.49 150.37 652.47 150.44 652.51 150.51 652.55 150.58 652.57 150.66 652.53 150.73 652.51 150.81 652.45 150.86 652.37 150.9 652.32 150.97 652.28 151.03 652.2 151.05 652.13 151.06 652.05 151.07 651.97 151.07 651.9 151.07 651.82 151.07 651.74 151.04 651.67 150.99 651.6 150.95 651.52 150.92 651.45 150.89 651.38 150.84 651.32 150.79 651.27 150.73 651.23 150.66 651.22 150.58 651.21 150.5 651.22 150.42 651.22 150.35 651.21 150.27 651.19 150.19 651.15 150.13 651.1 150.07 651.06 149.99 651.05 149.91 651.03 149.83 651.03 149.75 651.08 149.69 651.12 149.63 651.16 149.56 651.23 149.47 651.23 149.4 651.23 149.32 651.24 149.25 651.26 149.17 651.31 149.11 651.38 149.09 651.46 149.12 651.52 149.17 651.56 149.23 651.58 149.31 651.64 149.36 651.69 149.42 651.73 149.49 651.79 149.55 651.85 149.61 651.91 149.66 651.96 149.72 651.99 149.8 652.02 149.88 Z M 715.83 136.88 715.21 136.92 714.07 136.05 713.9 135.91 714.49 135.25 715.37 134.42 715.84 134.39 716.33 134.83 716.22 135.62 715.81 136.57 715.83 136.88 Z M 594.96 141.5 595.16 142.05 595.16 142.55 594.96 143.11 594.6 143.56 594.1 143.81 593.6 144.06 593.09 144.36 592.64 144.72 592.14 144.87 591.89 145.32 591.68 145.82 591.58 146.33 591.38 146.83 590.98 147.23 590.48 147.28 589.97 147.53 589.57 147.84 589.22 148.24 588.82 148.64 588.26 148.74 587.76 148.79 587.26 148.64 586.95 148.24 586.45 148.14 585.95 148.19 585.39 148.39 584.94 148.64 584.44 148.79 583.93 148.79 583.43 148.74 582.93 148.74 582.42 148.64 581.87 148.79 581.82 149.35 581.82 149.85 581.72 150.35 581.12 150.55 580.56 150.55 580.06 150.4 579.91 150.91 579.66 151.36 579.2 151.66 578.65 151.91 578.2 152.27 577.9 152.72 577.59 153.17 577.09 153.27 576.59 153.37 576.29 153.78 576.13 154.33 576.03 154.88 575.88 155.39 575.78 155.89 575.48 156.39 575.03 156.79 574.93 157.35 575.03 157.85 575.28 158.35 575.38 158.91 575.38 159.41 575.13 159.91 574.62 160.02 574.17 159.76 573.92 159.31 573.77 158.81 573.67 158.3 573.52 157.75 573.52 157.2 573.12 156.84 572.81 156.39 572.51 155.94 572.11 155.59 571.56 155.54 571.05 155.54 570.45 155.49 570 155.23 569.54 154.93 569.29 154.48 568.79 154.48 568.28 154.63 567.73 154.53 567.28 154.13 566.87 153.72 566.57 153.32 566.32 152.87 566.52 152.37 566.77 151.86 566.87 151.36 566.93 150.86 566.93 150.35 566.93 149.85 566.93 149.3 566.93 148.79 566.93 148.29 566.72 147.79 566.37 147.38 566.12 146.83 565.82 146.33 565.42 145.82 564.96 145.57 564.51 145.27 564.01 145.02 563.55 144.72 563.15 144.41 562.75 144.06 562.5 143.56 562.09 144.06 561.69 143.76 561.49 143.21 561.04 142.8 560.74 142.4 560.23 142.15 559.73 141.95 559.28 141.7 558.77 141.45 558.27 141.35 557.77 141.04 557.26 140.79 555.1 140.49 554.5 140.44 553.94 140.24 553.54 139.89 553.19 139.43 553.04 138.93 552.94 138.43 552.78 137.87 552.58 137.37 552.43 136.87 552.18 136.41 551.98 135.86 551.78 135.36 551.73 134.85 551.58 134.3 551.58 133.75 551.48 133.19 551.48 132.69 551.48 132.19 551.48 131.68 551.58 131.18 551.53 130.63 551.33 130.12 551.07 129.62 550.97 129.12 550.97 128.61 551.12 128.11 551.22 127.61 551.33 127.05 551.33 126.45 551.43 125.9 551.48 125.39 551.58 124.84 551.68 124.34 551.83 123.83 551.98 123.33 552.33 122.83 552.73 122.47 553.34 122.37 553.74 122.68 554.29 122.73 554.7 122.37 555.2 122.47 555.6 122.78 556.11 122.98 556.61 123.18 557.11 123.38 557.62 123.38 558.12 123.28 558.57 123.03 559.02 122.62 559.48 122.32 559.93 122.02 560.48 121.67 560.89 121.37 561.29 121.06 561.79 120.71 562.25 120.36 562.75 120.16 563.25 119.91 563.3 119.4 563.3 118.9 563.6 118.45 564.06 118.2 564.56 118.45 565.06 118.45 565.57 118.45 566.12 118.55 566.72 118.75 567.33 119 567.78 119.25 568.18 119.56 568.59 119.91 568.84 120.46 568.89 120.96 569.04 121.47 569.19 122.02 569.29 122.52 569.34 123.03 569.34 123.53 569.29 124.03 569.24 124.54 569.19 125.04 569.14 125.59 569.14 126.1 569.14 126.6 569.34 127.15 569.59 127.61 569.89 128.01 570.2 128.41 570.45 128.87 570.7 129.32 571.1 129.62 571.61 129.62 572.06 129.87 572.46 130.17 572.86 130.53 573.12 131.03 573.27 131.53 573.42 132.09 573.42 132.59 573.62 133.09 573.82 133.6 574.07 134.1 574.52 134.55 574.93 134.9 575.38 135.16 575.88 135.36 576.44 135.41 576.94 135.46 577.44 135.46 577.9 135.21 578.15 134.75 578.2 134.25 578.5 133.8 579.05 133.7 579.56 133.7 580.06 133.7 580.56 133.7 581.07 133.85 581.67 134.05 582.17 134.15 582.73 134.35 583.23 134.55 583.73 134.7 584.24 135.05 584.69 135.51 585.14 135.91 585.6 136.31 585.95 136.72 586.35 137.12 586.85 137.37 587.41 137.47 587.91 137.47 588.41 137.47 588.97 137.62 589.27 138.02 589.52 138.48 589.82 138.88 590.33 139.08 590.83 139.23 591.28 139.48 591.73 139.73 592.19 139.99 592.64 140.34 593.09 140.64 593.6 140.64 594.2 140.74 594.6 141.09 594.96 141.5 Z M 572.44 106.11 572.38 106.13 572.32 106.09 572.32 106.03 572.3 105.96 572.25 105.92 572.18 105.91 572.16 105.85 572.16 105.78 572.12 105.72 572.08 105.67 572.09 105.61 572.15 105.58 572.21 105.55 572.26 105.5 572.23 105.44 572.22 105.38 572.26 105.33 572.26 105.26 572.31 105.22 572.36 105.19 572.42 105.16 572.48 105.14 572.55 105.13 572.6 105.22 572.59 105.28 572.56 105.33 572.57 105.39 572.52 105.43 572.56 105.49 572.61 105.51 572.68 105.52 572.69 105.58 572.7 105.65 572.71 105.71 572.7 105.77 572.68 105.83 572.66 105.89 572.61 105.94 572.55 105.96 572.53 106.02 572.48 106.07 572.44 106.11 Z M 572.92 105.06 572.86 105.06 572.79 105.04 572.73 105 572.67 104.96 572.62 104.92 572.57 104.86 572.54 104.81 572.51 104.75 572.5 104.67 572.5 104.61 572.5 104.55 572.5 104.48 572.52 104.42 572.55 104.36 572.7 104.23 572.69 104.16 572.72 104.09 572.77 104.06 572.82 104.03 572.87 103.98 572.9 103.91 572.9 103.85 572.91 103.79 572.94 103.71 572.97 103.65 573.01 103.6 573.06 103.55 573.12 103.52 573.18 103.49 573.25 103.49 573.31 103.49 573.38 103.49 573.45 103.52 573.52 103.55 573.59 103.57 573.64 103.61 573.69 103.65 573.73 103.7 573.77 103.76 573.79 103.82 573.8 103.89 573.8 103.95 573.8 104.01 573.8 104.08 573.8 104.14 573.8 104.2 573.8 104.26 573.77 104.32 573.7 104.34 573.67 104.4 573.64 104.46 573.62 104.52 573.59 104.59 573.53 104.62 573.47 104.63 573.42 104.66 573.38 104.72 573.35 104.77 573.31 104.83 573.29 104.89 573.3 104.96 573.25 105 573.19 105.01 573.13 105.03 573.06 105.04 572.99 105.05 572.92 105.06 Z M 706.82 98.55 707.27 98.62 707.8 98.62 708.25 98.55 708.7 98.36 709.16 98.28 709.68 98.21 710.14 98.21 710.63 98.17 711.08 98.13 711.57 98.28 712.02 98.21 712.52 98.17 713.01 98.28 713.35 98.58 713.61 98.96 713.84 99.41 714.1 99.83 714.48 100.28 714.74 100.66 715.12 100.96 715.53 101.23 715.91 101.49 716.36 101.72 716.82 101.87 717.23 102.21 717.5 102.66 717.65 103.11 717.84 103.64 717.91 104.09 718.14 104.51 718.55 104.81 718.86 105.15 719.04 105.57 719.31 105.94 719.57 106.32 719.95 106.62 720.29 107 720.59 107.42 720.78 107.94 720.97 108.43 721.16 108.85 721.35 109.34 721.5 109.79 721.61 110.28 721.91 110.7 722.29 111.04 722.67 111.34 723.16 111.53 723.61 111.6 724.14 111.49 724.44 111.08 724.82 110.77 725.23 110.55 725.5 110.17 725.69 109.76 725.84 109.26 725.95 108.81 726.25 108.43 726.59 108.13 727.01 107.87 727.39 107.6 727.65 107.23 727.91 106.85 728.18 106.43 728.44 106.02 728.9 105.91 729.24 106.21 729.35 106.66 729.65 107 730.07 107.23 730.41 107.68 731.08 107.87 731.54 108.06 731.95 108.32 732.18 108.74 732.37 109.15 732.67 109.53 733.01 109.91 733.42 110.25 733.76 110.59 734.03 111 734.22 111.45 734.48 111.94 734.97 112.06 735.42 112.21 735.88 112.25 736.33 112.13 736.75 111.94 737.12 111.68 737.5 111.34 737.76 110.96 737.95 110.55 738.14 110.09 738.29 109.6 738.48 109.15 738.75 108.74 738.97 108.32 739.16 107.91 739.43 107.53 739.65 107.08 739.8 106.55 739.84 106.09 739.99 105.64 740.14 105.19 740.18 104.7 740.29 104.24 740.37 103.64 740.48 103.19 740.56 102.58 740.6 102.13 740.63 101.64 740.82 101.19 741.01 100.73 741.31 100.36 741.8 100.32 742.26 100.62 742.52 101.04 742.78 101.45 743.16 101.75 743.61 101.9 744.14 102.02 744.6 102.09 745.12 102.09 745.69 102.13 746.14 102.17 746.67 102.21 747.09 102.47 747.35 102.85 747.8 103.15 748.26 103.26 748.71 103.53 749.13 103.79 749.31 104.24 749.39 104.7 749.39 105.15 749.5 105.64 749.65 106.21 749.77 106.66 749.92 107.11 749.92 107.6 749.92 108.09 749.77 108.59 749.58 109.04 749.46 109.49 749.73 109.87 750.14 110.13 750.48 110.51 750.63 110.96 750.63 111.42 750.6 111.87 750.63 112.32 750.97 112.66 751.54 112.66 752.07 112.66 752.56 112.43 752.98 112.17 753.35 111.87 753.69 111.57 754.15 111.42 754.64 111.42 755.01 111.68 755.39 112.06 755.77 112.36 756.11 112.66 756.52 112.85 756.98 112.81 757.35 112.55 757.69 112.85 757.92 113.27 758.18 113.76 758.45 114.13 758.71 114.55 758.86 115.04 758.86 115.49 758.49 115.87 758.03 115.91 757.58 115.91 757.13 116.06 756.64 116.1 756.41 116.55 756.18 116.96 755.77 117.19 755.32 117.3 754.9 117.64 754.6 117.98 754.26 118.36 753.88 118.66 753.47 118.93 753.09 119.3 752.67 119.57 752.3 119.83 751.81 120.06 751.35 120.02 751.05 119.64 750.75 119.27 750.33 119 749.92 118.78 749.5 118.59 749.01 118.47 748.56 118.44 748.07 118.4 747.77 118.74 747.35 119 746.97 119.3 746.52 119.42 746.29 119.95 746.14 120.4 745.88 120.81 745.65 121.27 745.54 121.72 745.39 122.21 744.94 122.36 744.48 122.21 743.99 122.32 743.54 122.51 743.12 122.74 742.86 123.12 742.67 123.57 742.22 123.68 741.77 123.64 741.2 123.53 740.71 123.61 740.26 123.76 739.92 123.42 739.5 123 739.27 122.59 738.97 122.17 738.56 121.98 738.14 121.79 737.65 121.64 737.2 121.49 736.82 121.23 736.33 121.12 735.88 121 735.42 120.85 734.97 120.85 734.56 121.08 734.25 121.42 733.73 121.42 733.24 121 732.9 120.7 732.44 120.44 732.1 120.13 731.65 119.79 731.24 119.53 730.86 119.19 730.44 118.85 730.1 118.47 729.73 118.06 729.39 117.72 729.08 117.38 728.67 117.11 728.29 116.74 727.88 116.47 728.22 116.17 727.84 115.91 727.46 115.61 726.97 115.45 726.48 115.3 725.95 115.11 725.42 115.08 724.86 115.08 724.33 115.08 723.84 115.08 723.42 115.27 722.97 115.61 722.71 115.98 722.4 116.36 721.91 116.81 721.46 117.11 721.12 117.45 720.97 117.91 720.89 118.36 720.82 118.81 720.86 119.27 720.93 119.76 720.86 120.29 720.71 120.74 720.4 121.12 720.1 121.49 719.95 121.95 719.84 123.49 719.92 123.57 719.95 123.68 719.99 123.8 720 123.92 720.02 124.06 720.04 124.17 720.05 124.3 720.05 124.42 720.08 124.54 720.09 124.65 720.11 124.77 720.13 124.89 720.13 125.01 720.12 125.14 720.1 125.26 720.08 125.4 720.07 125.52 720.06 125.64 720.06 125.82 720.09 125.95 720.11 126.06 720.14 126.18 720.11 126.3 720.02 126.36 719.8 126.4 719.76 126.85 719.57 127.27 719.5 127.72 719.38 128.17 719.2 128.66 719.12 129.12 718.67 129.38 718.18 129.34 717.72 129.27 717.23 129.04 716.86 128.7 716.33 128.44 715.8 128.32 715.31 128.21 714.89 127.95 714.25 127.72 713.84 127.49 713.31 127.19 712.93 126.89 712.52 126.63 712.18 126.32 711.76 126.06 711.31 125.83 710.93 125.57 710.59 125.23 710.21 124.63 709.87 124.29 709.57 123.87 709.23 123.38 708.93 122.97 708.59 122.4 708.36 121.83 708.33 121.3 708.21 120.85 708.06 120.4 707.76 120.02 707.53 119.61 707.5 119.08 707.31 118.62 707 118.02 706.78 117.53 706.51 116.89 706.29 116.47 706.02 116.06 705.8 115.61 705.5 115.15 705.16 114.74 704.93 114.32 704.66 113.91 704.36 113.45 703.99 112.89 703.57 112.4 703.23 112.1 702.82 111.76 702.4 111.42 702.02 111.11 701.68 110.81 701.34 110.47 700.93 110.28 700.59 109.98 700.25 109.64 699.91 109.26 699.64 108.85 699.31 108.51 698.93 108.13 698.66 107.75 698.51 107.3 698.51 106.74 698.47 106.28 698.21 105.91 698.02 105.41 697.98 104.96 697.98 104.47 697.72 104.06 697.38 103.64 697.08 103.3 697.04 102.85 696.97 102.32 696.81 101.79 697.04 101.38 697.49 101.23 697.91 101.04 698.02 100.58 698.32 100.21 698.59 99.83 698.89 99.49 699.04 99.04 699.38 98.7 699.91 98.66 700.44 98.58 700.81 98.28 701.23 97.98 701.65 97.72 702.1 97.45 702.59 97.34 703.08 97.34 703.57 97.53 704.06 97.68 704.51 97.72 705 97.83 705.53 97.94 705.91 98.21 706.33 98.47 706.82 98.55 Z M 574.58 95.89 573.34 96.07 571.16 95.65 569.91 95.21 569.75 95.05 569.89 93.81 569.56 92.42 569.24 91.65 570.45 89.76 570.91 89.28 572 89.26 572.76 89.1 573.22 88.77 573.66 89 573.9 89.24 574.18 90.97 575.48 93.7 575.2 94.86 574.58 95.89 Z M 570.24 87.71 570.14 87.94 569.8 87.86 569.66 87.54 569.64 87.33 569.74 87.3 569.85 87.31 570.24 87.71 Z M 795.21 76.8 795.84 77.1 795.92 77.05 796.63 77.7 796.51 79.42 796.07 80.82 796.39 81.28 797.33 81.42 798.11 81.87 798.91 82.78 798.78 84.34 798.65 85.74 799 87.44 798.74 89.93 797.38 91.51 797.11 93.69 796.22 95.58 795.45 96.21 795 96.84 794.69 96.7 794.18 94.84 794 93.6 794.29 92.51 793.98 92.47 793.76 92.37 793.53 92.36 793.3 92.26 793.08 92.13 792.83 92.03 792.6 92.02 792.38 92 792.15 91.94 791.91 91.85 791.72 91.71 791.51 91.56 791.34 91.41 791.13 91.28 790.93 91.15 790.7 90.98 790.49 90.85 790.3 90.71 790.09 90.6 789.89 90.47 789.76 90.28 789.62 90.05 789.51 89.83 789.55 89.6 789.57 89.35 786.96 90.65 786.49 90.51 786.32 89.73 788.11 85.97 789.17 84.86 790.35 81.88 790.8 81.09 791.26 80.93 791.73 81.23 792.19 80.91 792.48 79.66 793.69 78.39 793.83 77.61 794.29 77.14 795.21 76.8 Z M 564.3 61.43 564.51 61.56 564.75 61.56 564.98 61.58 564.98 61.82 564.89 62.03 564.87 62.26 564.94 62.48 565.04 62.69 565.06 62.92 564.98 63.18 564.89 63.41 564.77 63.61 564.64 63.82 564.51 64.03 564.38 64.22 564.22 64.43 564.05 64.63 563.89 64.84 563.75 65.03 563.64 65.24 563.51 65.45 563.39 65.67 563.22 65.9 563.04 66.18 562.88 66.45 562.72 66.73 562.6 66.94 562.64 67.16 562.6 67.41 562.45 67.63 562.13 68.01 561.94 68.14 561.73 68.37 561.38 68.77 561.24 68.99 561.09 69.24 560.83 69.52 560.68 69.69 560.45 69.82 560.21 69.97 559.94 70.18 559.79 70.37 559.62 70.56 559.37 70.73 559.17 70.82 558.9 70.9 558.64 70.99 558.39 71.01 558.15 71.09 557.92 71.14 557.64 71.18 557.36 71.2 557.13 71.22 556.9 71.28 556.58 71.28 556.32 71.28 556.05 71.28 555.79 71.28 555.54 71.28 555.32 71.24 555.07 71.22 554.85 71.18 554.58 71.13 554.34 71.09 554.11 71.03 553.85 71.01 553.62 70.96 553.39 70.9 553.17 70.82 552.96 70.71 552.75 70.62 552.52 70.54 552.3 70.43 552.07 70.39 551.83 70.37 551.58 70.28 551.34 70.24 551.11 70.33 550.88 70.39 550.66 70.39 550.39 70.35 550.35 70.13 550.13 70.09 549.88 70.05 549.68 69.92 549.49 69.79 549.32 69.63 549.13 69.48 548.9 69.41 548.73 69.26 548.47 69.16 548.24 69.13 548.01 69.11 547.77 69.11 547.54 69.07 547.35 68.92 547.2 68.75 547.07 68.56 546.94 68.37 546.86 68.14 546.86 67.9 546.84 67.62 546.81 67.37 546.77 67.11 546.67 66.88 546.66 66.63 546.66 66.37 546.66 66.12 546.71 65.88 546.75 65.63 546.79 65.41 546.81 65.16 546.81 64.92 546.81 64.67 546.88 64.45 546.98 64.24 547.05 64.01 547.28 63.95 547.52 64.05 547.71 64.01 548.58 63.11 548.81 63.05 549.03 63.05 549.28 63.11 549.45 63.28 549.69 63.37 549.98 63.37 550.22 63.37 550.45 63.41 550.71 63.41 550.98 63.41 551.2 63.33 551.43 63.31 551.66 63.33 551.92 63.35 552.15 63.37 552.39 63.35 552.62 63.41 552.81 63.56 553.03 63.6 553.28 63.6 553.52 63.61 553.75 63.61 554 63.61 554.22 63.63 554.47 63.69 554.75 63.69 555.03 63.69 555.26 63.69 555.49 63.67 555.71 63.61 555.96 63.58 556.19 63.52 556.47 63.5 556.75 63.43 557.02 63.35 557.32 63.28 557.58 63.18 557.81 63.09 558.03 63.03 558.26 62.95 558.54 62.9 558.79 62.86 559.02 62.84 559.32 62.82 559.56 62.75 559.77 62.65 560.02 62.58 560.22 62.48 560.45 62.39 560.68 62.35 560.9 62.26 561.15 62.2 561.38 62.12 561.62 62.07 561.83 61.97 562.05 61.88 562.32 61.82 562.53 61.73 562.73 61.63 562.92 61.46 563.07 61.29 563.24 61.14 563.47 61.01 563.7 60.94 563.94 60.9 564.17 60.97 564.26 61.2 564.3 61.43 Z M 609.98 29.6 610.45 29.9 611.07 29.89 611.86 31.27 611.87 31.89 610.64 32.85 609.72 33.02 608.15 32.28 606.13 32.16 605.66 31.7 605.66 31.39 607.35 30.43 608.74 30.09 609.36 29.61 609.98 29.6 Z M 612.34 29.99 612.31 30.02 611.84 29.88 611.84 29.57 611.85 29.51 612.46 29.4 612.62 29.55 612.62 29.71 612.34 29.99 Z M 609.34 28.37 609.03 28.38 608.87 28.22 609.33 27.59 609.64 27.59 609.8 27.74 609.34 28.37 Z M 594.96 141.5 596.38 140.35 598.34 140.35 598.95 138.53 597.89 136.72 597.14 134.91 595.32 134.76 593.51 134 592.61 132.19 590.95 131.29 589.44 129.78 587.93 128.57 586.57 127.36 585.51 125.85 583.55 127.06 582.49 125.4 583.85 123.89 584.91 122.38 584.45 120.57 583.7 118.45 582.64 116.94 581.13 115.89 581.13 113.93 580.98 111.66 579.47 110.45 578.11 109.25 577.06 107.74 576.3 106.08 575.85 104.26 575.09 102.45 575.09 100.49 575.55 98.68 577.06 97.62 578.72 96.87 580.23 95.81 580.98 94.15 582.04 92.19 582.49 90.37 582.64 88.56 583.55 86.9 584.3 85.24 585.81 84.18 587.63 83.58 589.59 83.73 591.1 84.79 593.06 84.79 594.12 82.98 595.02 81.17 595.63 79.35 596.38 77.54 597.29 75.58 597.59 73.62 597.89 71.81 598.19 69.84 598.5 68.03 599.85 66.82 601.67 67.73 602.57 69.39 603.48 71.2 605.44 71.5 607.1 70.6 608.61 69.54 610.27 68.48 611.48 66.97 611.93 65.16 611.93 63.35 612.54 61.39 612.54 59.27 612.54 57.31 612.38 55.5 612.38 53.54 613.29 51.88 613.89 50.07 614.65 48.25 615.55 46.59 616.01 44.78 617.97 44.18 619.93 44.18 621.74 44.33 623.56 44.48 625.52 44.18 627.03 42.82 628.99 42.21 630.8 41.31 632.31 40.25 633.67 39.04 634.88 37.53 635.94 35.87 636.84 34.21 638.35 33.01 640.16 32.55 642.13 32.4 643.79 33.46 644.54 35.12 645.6 36.78 647.41 37.38 649.07 36.18 650.73 34.67 652.09 33.31 653.3 31.8 653.75 29.84 653.15 27.87 651.94 26.51 652.39 24.55 653.15 22.74 654.66 21.38 656.32 20.48 658.13 19.57 659.94 18.97 661.75 18.81 663.71 18.21 665.68 17.61 667.49 16.85 668.39 15.19 667.94 13.23 669.3 11.87 671.11 11.12 673.07 10.36 675.04 9.61 677 9.3 678.81 9.61 680.62 9.76 686.51 8.7 687.57 7.49 688.77 5.98 689.68 4.32 690.74 2.81 692.1 1.45 693.91 1.15 695.57 2.06 697.38 2.36 699.04 1.6 701 1 702.82 1.45 703.12 3.72 702.66 5.68 704.32 6.59 706.44 6.89 707.8 8.25 709.16 9.61 709.91 11.27 709.76 13.23 708.4 14.59 707.35 15.07 707.31 15.15 707.16 15.34 707.06 15.55 706.89 15.7 706.67 15.81 706.4 15.89 706.21 16.08 706.12 16.29 706.06 16.51 705.85 16.66 705.61 16.76 705.38 16.81 705.14 16.91 704.93 17 704.85 17.25 704.85 17.47 704.83 17.72 704.74 17.95 704.59 18.17 704.34 18.27 704.1 18.27 703.93 18.08 703.82 17.87 703.59 17.78 703.38 17.87 703.23 18.06 703.19 18.29 703.12 18.51 702.87 18.63 702.65 18.7 702.4 18.7 702.17 18.7 701.93 18.68 701.65 18.66 701.42 18.64 701.19 18.59 700.95 18.59 700.7 18.59 700.48 18.64 700.25 18.66 700.02 18.61 699.78 18.55 699.57 18.44 699.4 18.27 699.23 18.08 699.06 17.91 698.85 17.78 698.75 17.66 698.14 17.61 696.32 16.85 695.27 15.34 694.21 13.38 693.46 11.72 692.1 13.08 691.19 14.74 690.89 16.55 691.95 18.21 694.21 18.21 695.87 18.97 696.17 20.93 697.98 22.14 699.64 23.34 701.31 24.7 702.66 26.21 704.32 26.97 704.93 28.78 703.87 30.44 702.66 31.8 701.46 33.31 700.7 34.97 699.34 36.33 698.74 38.14 697.23 39.2 694.81 39.2 692.7 39.2 690.74 39.2 688.93 39.04 686.96 39.04 685 38.59 683.04 38.14 681.23 37.84 679.41 36.93 677.75 37.99 676.85 39.65 676.7 41.61 676.85 43.57 676.09 45.39 675.49 47.2 675.64 49.01 675.64 51.12 675.64 52.93 675.64 55.05 675.64 57.16 675.79 58.97 676.24 60.78 676.55 62.6 677.45 64.26 678.36 65.92 679.87 67.12 681.38 68.48 682.59 69.84 684.25 71.05 685.76 72.26 687.57 73.31 689.38 74.37 690.74 75.73 692.25 76.94 693.61 78.3 694.96 79.5 696.78 80.26 696.93 82.22 697.08 84.03 695.57 85.09 693.46 85.54 691.64 85.24 689.68 86 688.02 86.9 686.06 86.45 684.7 85.09 683.49 83.58 681.83 82.83 679.87 82.07 678.36 81.01 677.15 79.35 675.79 77.99 673.98 77.54 672.17 77.09 669.9 76.49 668.09 75.58 666.28 75.43 664.47 75.28 662.66 75.88 661.6 77.54 660.85 79.2 660.24 81.17 659.79 82.98 659.34 84.94 658.73 86.75 658.28 88.56 657.07 90.22 655.56 91.43 653.45 91.13 653.3 89.17 653 87.35 651.03 87.51 649.37 88.26 647.71 89.02 645.75 89.92 644.09 90.68 642.43 91.88 640.31 92.64 638.8 93.7 637.9 95.36 636.84 96.87 635.33 97.92 633.67 98.98 632.16 100.04 630.5 100.94 628.99 102.15 627.48 103.36 626.12 104.72 625.22 106.53 624.16 108.19 622.95 109.55 622.05 111.21 621.9 113.17 622.95 114.83 624.76 116.04 625.22 117.85 626.27 119.66 627.33 121.17 628.54 122.83 629.44 124.64 630.5 126.31 631.71 127.66 633.52 127.81 635.03 129.02 636.39 130.53 637.45 132.19 638.35 133.85 639.11 135.51 639.86 137.18 640.16 138.99 640.77 140.8 641.37 142.76 641.67 144.57 642.13 146.38 642.28 148.2 640.62 149.1 638.65 149.1 636.84 148.65 634.88 148.65 633.07 148.65 631.26 148.2 629.29 148.2 627.48 147.74 625.82 146.99 624.16 146.23 622.65 145.03 620.99 143.82 619.03 143.21 617.22 143.06 615.25 143.06 613.29 142.91 611.03 142.91 609.21 142.61 607.25 142.31 605.14 142.31 603.33 142.61 601.36 142.76 599.4 142.91 597.44 142.01 594.96 141.5 Z" fill-rule="evenodd"/>
</g>
</svg>