<?xml version="1.0"?>
<svg xmlns="http://www.w3.org/2000/svg" version="1.2" baseProfile="tiny" width="800" height="754" viewBox="0 0 800 754" stroke-linecap="round" stroke-linejoin="round">
<g id="Củ Chi (phường xã)">
<path d="M 266.55 34.55 268.09 34.76 273.4 34.03 275.32 33.77 278.58 34.14 282.13 34.59 286.88 34.5 289.43 35.3 291.31 36.37 293.93 38.79 296.55 41.05 303.62 45.07 306.89 47.09 310.22 49.67 314.45 51.59 316.79 52.78 319.1 54.49 321 56.55 322.79 58.45 323.9 59.13 327.25 60.36 329.76 61.36 332.18 63.07 334.73 64.89 337.67 66.65 341.37 68.44 343.01 69.79 343.38 70.1 343.62 70.32 343.81 70.51 343.98 70.67 344.28 70.9 344.69 71.21 344.97 71.42 345.12 71.54 345.3 71.68 345.56 71.86 345.74 71.99 345.9 72.1 346.32 72.38 346.78 72.68 347.35 73.04 348.13 73.5 349.05 74.02 349.97 74.53 350.9 75.05 351.85 75.59 352.64 76.05 352.94 76.23 353.15 76.36 353.46 76.59 353.73 76.8 353.93 76.95 354.05 77.04 354.11 77.1 354.18 77.15 354.24 77.2 354.33 77.26 354.47 77.39 354.75 77.61 355.11 77.9 355.49 78.19 355.86 78.46 356.15 78.62 356.22 78.66 356.54 78.82 356.86 78.97 357.19 79.07 357.58 79.14 357.64 79.15 358.2 79.21 358.65 79.26 359.02 79.28 359.51 79.31 360.13 79.35 360.71 79.39 361.21 79.43 361.66 79.48 362.05 79.54 362.36 79.59 362.67 79.64 363.01 79.73 363.27 79.81 363.47 79.91 363.65 80.03 363.84 80.19 364.04 80.38 364.23 80.55 364.41 80.73 364.6 80.94 364.79 81.17 364.97 81.44 365.15 81.74 365.33 82.05 365.52 82.35 365.72 82.62 365.93 82.87 366.15 83.12 366.41 83.36 366.68 83.6 366.94 83.81 367.16 83.99 367.39 84.18 367.75 84.41 368.23 84.71 368.6 84.93 368.88 85.07 369.26 85.27 369.8 85.53 370.28 85.72 370.67 85.82 371.03 85.91 371.39 85.99 371.73 86.05 372.06 86.1 372.4 86.11 372.77 86.1 373.19 86.05 373.64 85.99 374.08 85.93 374.45 85.89 374.75 85.86 375.03 85.85 375.25 85.84 375.41 85.84 375.61 85.85 375.87 85.86 376.19 85.88 376.48 85.92 376.73 86 377.01 86.1 377.36 86.22 377.73 86.36 378.11 86.5 378.49 86.66 378.95 86.84 379.31 87 379.48 87.08 379.94 87.26 380.34 87.4 380.82 87.56 381.45 87.78 382.19 87.97 382.56 88.06 382.98 88.16 383.74 88.31 384.55 88.48 385.42 88.68 386.15 88.86 386.66 89 387.06 89.13 387.43 89.26 387.77 89.37 388.04 89.47 388.2 89.52 388.32 89.57 388.48 89.62 388.68 89.69 388.97 89.77 389.53 89.89 390.28 90.03 390.84 90.14 391.11 90.22 391.36 90.3 391.78 90.42 392.52 90.59 393.58 90.82 394.84 91.1 395.21 91.19 396.15 91.41 397.4 91.71 398.49 91.96 399.44 92.14 400.4 92.3 401.21 92.43 402.02 92.58 403.11 92.78 404.47 93.01 405.73 93.22 406.81 93.4 407.3 93.48 407.81 93.56 408.72 93.71 409.6 93.87 410.54 94.08 411.25 94.23 411.69 94.31 412.11 94.38 412.75 94.51 413.62 94.7 414.48 94.87 415.47 95.07 416.63 95.29 417.61 95.5 418.34 95.66 419.11 95.83 419.95 96.02 420.52 96.18 420.83 96.3 421.08 96.42 421.34 96.53 421.54 96.58 421.65 96.62 422.03 96.7 422.46 96.8 422.83 96.9 423.2 97 423.62 97.1 423.99 97.2 424.28 97.26 424.32 97.26 424.01 98.69 423.94 99.05 423.86 99.41 423.76 99.5 423.67 99.62 423.49 99.79 423.33 99.93 423.29 99.95 423.29 99.96 423.07 100.1 422.82 100.23 422.49 100.38 422.08 100.52 421.7 100.66 421.3 100.79 420.9 100.89 420.5 101.02 420.17 101.14 420.16 101.15 419.88 101.25 419.73 101.31 419.22 101.54 419 101.74 418.92 101.81 418.8 101.92 418.67 102.08 418.57 102.26 418.5 102.42 418.45 102.53 418.43 102.57 418.38 102.77 418.35 102.91 418.33 103 418.31 103.22 418.28 103.44 418.27 103.66 418.28 103.89 418.31 104.17 418.34 104.52 418.38 104.92 418.4 105.32 418.42 105.74 418.4 106.19 418.36 106.66 418.33 107.11 418.29 107.52 418.24 107.93 418.16 108.33 418.06 108.74 417.94 109.18 417.91 109.26 417.9 109.32 417.72 109.9 417.66 110.09 417.52 110.58 417.38 111.1 417.25 111.57 417.19 111.88 417.15 112.05 417.04 112.55 416.96 113.02 416.91 113.44 416.9 113.58 416.89 113.84 416.88 113.91 416.88 114.21 416.88 114.49 416.88 114.66 416.9 114.82 416.93 115.07 416.94 115.12 416.97 115.38 416.99 115.55 417.02 115.7 417.07 116.01 417.16 116.29 417.25 116.56 417.26 116.57 417.35 116.79 417.38 116.83 417.49 117.08 417.62 117.3 417.76 117.49 417.93 117.66 418.14 117.84 418.34 118 418.6 118.17 418.9 118.35 419.25 118.52 419.62 118.7 420 118.88 420.39 119.06 420.81 119.27 421.27 119.52 421.72 119.8 422.15 120.06 422.43 120.26 422.49 120.3 422.58 120.37 422.71 120.49 422.87 120.67 423.03 120.86 423.19 121.08 423.21 121.12 423.48 121.64 423.61 121.89 423.71 122.12 423.71 122.14 423.79 122.37 423.84 122.59 423.86 122.81 423.87 123.04 423.88 123.28 423.88 123.53 423.86 123.81 423.83 124.09 423.79 124.38 423.72 124.67 423.62 124.96 423.5 125.25 423.37 125.55 423.23 125.86 423.06 126.22 422.92 126.51 422.87 126.59 422.69 126.97 422.52 127.32 422.38 127.64 422.26 127.97 422.14 128.28 422.08 128.48 422.04 128.59 421.94 128.93 421.87 129.28 421.81 129.67 421.77 130.09 421.73 130.51 421.7 130.95 421.69 131.41 421.69 131.86 421.69 132.31 421.71 132.72 421.75 133.11 421.8 133.43 421.82 133.5 421.89 133.89 421.97 134.27 422.08 134.68 422.12 134.83 422.19 135.08 422.31 135.49 422.41 135.86 422.5 136.18 422.57 136.5 422.65 136.89 422.74 137.31 422.82 137.74 422.89 138.16 422.95 138.61 422.98 139.05 422.97 139.47 422.93 139.9 422.89 140.33 422.84 140.71 422.8 140.95 422.72 141.37 422.45 141.84 422.36 142.01 422.31 142.09 422.2 142.28 422.01 142.57 421.79 142.85 421.52 143.13 421.14 143.48 420.67 143.87 420.24 144.21 419.82 144.55 419.34 144.9 418.94 145.2 418.58 145.46 418.33 145.68 418.24 145.74 417.91 146.02 417.84 146.09 417.63 146.29 417.43 146.58 417.35 146.75 417.29 146.87 417.16 147.18 417.15 147.19 417.05 147.48 416.97 147.76 416.93 148.05 416.91 148.4 416.91 148.7 416.92 149.02 416.93 149.38 416.97 149.62 416.98 149.68 417 149.76 417.11 150.13 417.2 150.39 417.25 150.52 417.46 150.99 417.75 151.46 417.92 151.73 418 151.84 418.26 152.21 418.37 152.35 418.6 152.64 418.98 153.04 419.2 153.23 419.36 153.37 419.73 153.67 420.1 153.95 420.19 154.01 420.42 154.17 420.67 154.37 420.87 154.57 421.05 154.77 421.22 154.97 421.36 155.19 421.44 155.41 421.47 155.62 421.46 155.79 421.46 155.81 421.43 155.98 421.4 156.14 421.37 156.3 421.33 156.45 421.25 156.6 421.16 156.7 420.73 157.03 420.53 157.14 420.11 157.36 419.66 157.58 419.18 157.82 418.74 158.05 418.39 158.24 418.19 158.34 417.53 158.73 417.19 159.18 417.06 159.36 416.99 159.44 416.76 159.78 416.51 160.17 416.25 160.64 416.03 161.19 415.88 161.8 415.75 162.35 415.64 162.89 415.61 163.07 415.54 163.47 415.49 163.92 415.47 164.28 415.48 164.66 415.5 165.04 415.54 165.45 415.61 165.92 415.76 166.47 415.94 167.07 416.12 167.66 416.28 168.18 416.41 168.57 416.5 168.93 416.6 169.36 416.68 169.83 416.71 170.04 416.75 170.32 416.82 170.81 416.87 171.35 416.89 172.02 416.88 172.85 416.83 173.7 416.77 174.56 416.72 175.39 416.66 176.07 416.64 176.3 416.62 176.61 416.59 177.08 416.59 177.17 416.58 177.44 416.56 177.78 416.55 178.13 416.55 178.36 416.55 178.56 416.55 178.93 416.54 179.42 416.54 179.9 416.53 180.4 416.53 180.97 416.52 181.55 416.5 182.2 416.5 182.94 416.48 183.73 416.46 184.61 416.42 185.44 416.4 186 416.37 186.51 416.32 187.29 416.25 188.26 416.18 189.1 416.17 189.36 416.14 189.73 416.12 190.27 416.13 190.82 416.14 191.33 416.16 191.53 416.16 191.63 416.17 191.65 416.18 191.82 416.22 192.25 416.33 192.66 416.47 193.1 416.64 193.55 416.83 194.03 417.04 194.44 417.21 194.72 417.39 194.99 417.64 195.35 417.96 195.75 418.29 196.12 418.59 196.45 418.85 196.73 419.08 197 419.27 197.2 419.41 197.34 419.58 197.52 419.88 197.82 420.45 198.41 421.3 199.3 422.21 200.24 422.26 200.29 423.15 201.23 424.23 202.4 425.43 203.71 426.6 204.98 427.47 205.93 427.93 206.42 428.35 206.88 429.15 207.71 430.1 208.72 430.88 209.54 431.19 209.86 431.49 210.18 431.87 210.58 432.01 210.72 432.08 210.79 432.19 210.91 432.33 211.06 432.49 211.22 432.89 211.65 433.87 212.7 435.29 214.19 436.65 215.64 438.08 217.16 439.71 218.88 441.22 220.49 441.58 220.88 442.61 221.97 444 223.46 445.36 224.91 446.54 226.15 447.4 227.01 448.05 227.63 448.65 228.2 449.24 228.78 449.89 229.44 450.61 230.2 451.35 230.98 452.12 231.8 452.88 232.64 453.61 233.43 454.24 234.09 454.62 234.51 454.96 234.88 455.52 235.48 456.24 236.25 456.91 236.96 457.57 237.67 458.28 238.44 458.91 239.1 459.56 239.81 460.3 240.59 460.94 241.25 461.44 241.72 461.9 242.12 462.37 242.5 462.86 242.86 463.09 243 463.56 243.38 464.35 243.74 466.3 244.63 471.06 246.43 473.96 247.53 480.41 249.81 481.69 250.26 490.24 253.3 490.49 253.39 490.75 253.48 493.38 254.42 495.79 255.28 497.88 256.01 503.44 257.91 504.56 258.23 504.62 258.25 505.39 258.47 506.3 258.86 507.19 259.23 507.74 259.46 509.17 260.04 510.74 260.67 512.54 261.39 514.21 262.03 515.76 262.61 517.36 263.2 518.99 263.79 520.55 264.35 521.76 264.77 522.46 265.02 523.13 265.25 524.1 265.58 525.03 265.88 525.45 266.01 525.55 266.05 525.93 266.17 526.54 266.38 526.94 266.52 527.34 266.66 527.96 266.89 528.07 266.92 528.32 267.02 528.69 267.15 529.36 267.38 530.33 267.73 531.32 268.08 532.47 268.48 533.84 268.96 535.25 269.46 536.8 270 538.55 270.61 540.34 271.23 542.21 271.86 542.62 272 544.09 272.49 546.17 273.18 548.38 273.94 550.31 274.64 552.23 275.34 554.47 276.14 556.64 276.94 557.49 277.27 558.71 277.73 560.66 278.48 562.17 279.05 563.71 279.62 565.8 280.4 568.16 281.24 570.59 282.08 572.78 282.87 574.2 283.38 574.94 283.66 575.46 283.85 576.47 284.22 578.45 284.95 580.7 285.83 582.8 286.67 584.78 287.49 586.51 288.22 588.02 288.89 589.74 289.65 591.93 290.59 594.33 291.6 596.67 292.6 598.61 293.41 600.03 293.98 601.41 294.53 602.98 295.1 604.41 295.61 605.85 296.14 607.46 296.74 608.69 297.22 608.75 297.25 609.31 297.48 609.69 297.64 610.26 297.88 610.99 298.2 611.01 298.21 611.52 298.42 611.79 298.56 612.12 298.76 612.72 299.12 613.15 299.37 613.47 299.56 614.24 300.03 615 300.48 615.76 300.94 616.54 301.42 617.3 301.87 617.94 302.26 618.38 302.54 618.67 302.73 618.94 302.92 619.19 303.09 619.2 303.1 619.25 303.14 619.42 303.25 619.65 303.41 619.88 303.57 620.12 303.77 620.4 304.02 620.75 304.34 621.18 304.74 621.56 305.09 621.95 305.46 622.45 305.92 622.99 306.44 623.56 307.03 624.1 307.6 624.45 307.94 624.67 308.16 624.95 308.45 625.38 308.93 625.78 309.37 626.01 309.62 626.73 310.41 627.46 311.2 628.14 311.92 628.83 312.61 629.47 313.25 629.54 313.33 630.18 313.95 630.71 314.47 631.23 314.97 631.74 315.47 632.23 315.98 632.7 316.48 633.14 316.96 633.52 317.41 633.88 317.81 634.23 318.24 634.54 318.66 634.8 319.09 635.04 319.5 635.28 319.93 635.53 320.43 635.82 320.99 636.13 321.62 636.42 322.21 636.73 322.8 637.07 323.44 637.41 324.09 637.75 324.74 638.06 325.35 638.36 325.96 638.71 326.6 639.04 327.19 639.41 327.85 639.86 328.71 640.38 329.67 640.91 330.67 641.47 331.75 642.07 332.98 642.71 334.36 643.36 335.77 644.02 337.2 644.66 338.6 645.24 339.91 645.83 341.21 646.43 342.54 647.09 343.99 647.79 345.5 648.48 347.01 649.13 348.43 649.52 349.27 651.64 353.78 651.82 354.17 652.18 354.95 652.68 356.05 653.08 356.9 653.46 357.74 654.07 359.07 654.86 360.79 655.7 362.61 656.48 364.3 657.09 365.59 657.55 366.59 658.05 367.69 658.54 368.75 662 375.96 662.5 377.03 662.65 377.36 663.22 378.57 663.55 379.28 663.6 379.4 663.71 379.65 663.85 379.98 664.04 380.39 664.28 380.89 664.53 381.44 664.78 381.97 664.98 382.4 665.12 382.71 665.31 383.13 665.68 383.96 666.2 385.07 666.69 386.13 667.18 387.19 667.71 388.31 667.77 388.41 668.16 389.22 668.49 389.93 668.92 390.85 669.53 392.17 670.15 393.52 670.78 394.91 671.16 395.73 671.45 396.36 672.02 397.53 672.47 398.42 672.88 399.21 673.23 399.87 673.51 400.37 673.79 400.86 673.8 400.87 674.15 401.47 674.54 402.14 674.93 402.82 675.28 403.47 675.61 404.14 675.86 404.69 675.94 404.87 676.3 405.62 676.68 406.39 676.9 406.85 677.06 407.16 677.43 407.94 677.85 408.77 678.27 409.62 678.7 410.51 679.18 411.46 679.74 412.57 680.37 413.79 680.98 415.01 681.49 415.99 681.8 416.57 682.01 416.96 682.25 417.46 682.62 418.15 683.04 418.94 683.48 419.79 684.02 420.83 684.73 422.21 685.56 423.83 686.38 425.42 687.03 426.69 687.38 427.37 687.52 427.65 687.64 427.88 687.9 428.42 688.19 428.98 688.52 429.64 689.36 431.31 690.06 432.7 690.57 433.7 691.19 434.9 691.99 436.48 692.7 437.83 693.2 438.73 693.49 439.29 693.71 439.73 693.93 440.19 694.16 440.66 694.39 441.12 694.63 441.56 694.89 441.95 695.11 442.26 695.2 442.38 695.3 442.53 695.64 443.12 696.17 444.08 696.56 444.82 696.82 445.32 697.16 446 697.3 446.27 697.38 446.42 697.44 446.54 697.74 447.09 698.48 448.5 699.14 449.78 699.69 450.89 700.31 452.16 700.87 453.33 701.02 453.65 701.69 455.03 702.4 456.46 703.23 458.09 704 459.63 704.75 461.09 705.53 462.65 705.68 462.94 706.33 464.21 707.11 465.71 707.82 467.06 708.57 468.38 709.36 469.8 710.16 471.24 710.95 472.63 711.62 473.84 712.22 474.91 712.88 476.14 713.62 477.53 714.24 478.72 714.86 479.9 715.58 481.27 716.18 482.42 716.62 483.27 717.02 484.08 717.2 484.43 717.46 484.95 717.88 485.76 718.32 486.61 718.83 487.56 719.29 488.38 719.71 489.05 719.93 489.39 720.11 489.67 720.18 489.77 720.47 490.2 720.8 490.67 721.16 491.17 721.27 491.32 721.54 491.68 722 492.28 722.52 492.95 723.05 493.66 723.62 494.41 723.73 494.56 724.24 495.27 724.9 496.2 725.53 497.12 726.06 497.88 726.42 498.44 726.72 498.94 726.87 499.19 727.1 499.61 727.26 499.94 727.38 500.22 727.44 500.38 728.01 501.39 728.06 501.58 728.07 501.64 728.07 501.71 728.09 502.04 728.44 502.25 728.51 502.29 728.61 502.42 728.83 502.73 729.13 503.25 729.41 503.72 729.73 504.24 730.15 504.97 730.55 505.66 730.81 506.08 731.05 506.45 731.36 506.92 731.5 507.13 731.6 507.29 731.65 507.34 731.76 507.51 731.89 507.74 731.98 507.96 732 508.03 732.04 508.13 732.14 508.39 732.47 509.11 733.17 510.52 734.12 512.38 735.11 514.33 736.08 516.31 736.11 516.36 737.12 518.51 738.14 520.76 738.7 522.01 739.12 522.97 740.12 525.22 741.17 527.59 741.74 528.88 742.17 529.86 743.03 531.86 743.78 533.6 744.46 535.18 744.91 536.28 745.12 536.78 745.23 537.07 745.37 537.38 745.5 537.63 745.61 537.84 745.75 538.14 745.91 538.49 746.03 538.79 746.18 539.14 746.64 540.17 747.67 542.38 749.04 545.31 750.45 548.34 751.7 551.18 752.36 552.86 752.74 553.83 753.7 556.46 754.6 558.98 755.36 561.01 755.48 561.29 755.59 561.55 755.82 562.1 756.06 562.56 756.23 562.92 756.34 563.26 756.42 563.58 756.5 563.96 756.67 564.57 757.03 565.72 757.64 567.69 758.43 570.21 759.25 572.86 760.07 575.52 760.87 578.16 761.73 581.05 761.82 581.35 762.78 584.47 763.95 588.19 765.11 591.85 766.11 594.89 766.54 596.11 766.78 596.8 767.2 597.93 767.55 598.84 767.8 599.54 768.06 600.22 768.37 601.02 768.64 601.7 768.86 602.24 769.05 602.72 769.18 603.13 769.3 603.5 769.38 603.7 769.68 604.52 770 605.28 770.27 605.79 770.51 606.24 771.44 607.76 772.62 609.63 773.92 611.67 775.46 614.12 777.15 616.85 777.43 617.32 779.68 620.99 781.93 624.67 783.87 627.83 785.21 629.96 786.09 631.3 786.89 632.51 787.75 633.89 788.63 635.39 789.47 636.89 790.31 638.39 791.15 639.93 791.96 641.56 792.31 642.27 792.76 643.21 793.45 644.66 794.06 645.93 794.66 647.19 795.01 647.93 794.87 647.88 791.44 646.79 790.87 646.59 790.04 646.32 789.43 646.11 787.64 645.55 787.03 645.36 786.66 645.26 786.19 645.12 785.41 644.88 784.64 644.64 783.84 644.39 783.03 644.14 782.3 643.92 781.76 643.77 781.42 643.68 781.09 643.6 780.65 643.45 780.12 643.27 779.59 643.07 779.08 642.88 778.61 642.72 778.17 642.57 777.81 642.47 777.53 642.43 777.21 642.43 777.09 642.43 777.09 643.16 777.09 643.53 777.12 653.26 777.14 654.68 777.46 666.66 777.49 668.57 777.5 668.88 777.52 669.28 777.63 669.61 777.9 669.85 779.35 670.94 781.15 672.56 783.77 674.86 783.94 675 784.78 675.8 785.64 676.98 786.1 678.09 786.47 679.41 786.69 680.77 788.22 686.19 788.47 687.17 788.96 689.77 789.14 690.64 789.68 692.09 790.2 693.29 790.9 694.1 792.32 695.78 793.02 696.91 793.36 697.8 793.65 698.98 794.11 701.3 794.67 703.35 795.18 705.61 795.22 705.8 795.67 707.27 796.66 709.66 796.77 709.92 796.91 710.27 797.23 711.04 797.99 712.52 798.59 714.79 798.98 716.25 798.98 716.92 799 718.4 798.97 719.95 798.95 720.43 798.9 722.43 798.74 722.41 798.66 722.39 798.6 722.38 798.41 722.33 797.99 722.24 797.44 722.12 796.9 722.02 796.35 721.93 795.87 721.85 795.42 721.77 794.86 721.69 794.11 721.58 793.23 721.44 792.34 721.31 791.48 721.17 790.53 721.04 789.5 720.91 788.71 720.82 788.21 720.76 787.77 720.71 787.13 720.65 786.31 720.55 785.72 720.48 785.39 720.43 785.13 720.39 784.93 720.36 784.88 720.35 784.64 720.32 784.45 720.31 784.37 720.3 783.95 720.28 783.4 720.26 782.95 720.25 782.55 720.25 781.99 720.23 781.29 720.18 780.64 720.12 779.99 720.05 779.28 719.99 778.64 719.9 777.99 719.83 777.28 719.76 776.66 719.7 776.13 719.65 775.61 719.61 775.1 719.57 774.59 719.55 774.14 719.53 773.69 719.52 773.22 719.52 772.71 719.51 772.19 719.5 771.59 719.48 770.88 719.45 770.09 719.42 769.31 719.39 768.61 719.38 767.98 719.35 767.34 719.32 766.93 719.3 766.74 719.29 766.57 719.3 766.27 719.3 765.71 719.29 764.78 719.25 763.76 719.23 763.01 719.22 762.72 719.21 762.46 719.21 761.83 719.22 761.09 719.24 760.58 719.28 760.55 719.28 760.31 719.31 760.26 719.31 760.09 719.34 759.86 719.36 759.62 719.37 759.34 719.37 758.77 719.38 757.84 719.4 756.94 719.42 756.14 719.44 755.15 719.48 753.98 719.52 753 719.57 752.14 719.61 750.94 719.66 749.41 719.74 748.29 719.78 747.63 719.79 747.54 719.8 744.06 719.95 742.06 720.04 740.4 720.16 740.01 720.19 739.41 720.24 738.79 720.31 738.2 720.38 737.54 720.46 737.08 720.56 736.8 720.65 736.55 720.74 736.26 720.82 736 720.87 735.75 720.89 735.49 720.89 735.2 720.89 734.88 720.91 734.61 720.92 734.41 720.93 734.22 720.93 734 720.93 733.71 720.92 733.37 720.93 732.94 720.95 732.4 720.95 731.74 720.95 730.93 720.97 730.06 721.02 729.17 721.05 728.18 721.08 726.75 721.1 724.91 721.11 723.36 721.13 722.14 721.18 721.02 721.21 719.67 721.23 718.07 721.24 717.98 721.24 716.93 721.24 716.29 721.23 715.87 721.24 715.62 721.26 715.45 721.3 715.31 721.33 715.24 721.35 714.98 721.39 714.62 721.41 714.09 721.43 714.01 721.44 712.57 721.51 710.35 721.68 708.57 721.8 707.49 721.86 706.75 721.87 706.68 721.87 706.09 721.86 705.71 721.86 705.37 721.88 704.68 721.94 703.15 722.05 701.3 722.21 700.99 722.24 699.44 722.38 698.5 722.48 697.59 722.55 696.4 722.62 694.53 722.72 692.12 722.86 690.24 722.98 689.01 723.07 687.76 723.18 685.85 723.32 683.44 723.5 681.79 723.64 681.16 723.7 680.9 723.75 680.63 723.82 680.34 723.89 680.05 723.96 679.76 724.02 679.45 724.05 679.12 724.06 678.61 724.06 677.51 724.08 675.94 724.13 674.93 724.17 674.51 724.21 674.16 724.23 673.72 724.25 673.18 724.24 672.69 724.21 672.33 724.19 672.05 724.18 671.56 724.21 670.46 724.25 668.89 724.31 667.86 724.35 667.41 724.38 667.04 724.39 666.65 724.39 666.27 724.38 665.87 724.35 665.36 724.32 664.46 724.35 663.19 724.42 662.05 724.49 661.14 724.54 660.02 724.62 658.71 724.72 657.73 724.8 657.19 724.86 656.78 724.93 656.31 725.03 655.56 725.17 654.6 725.32 653.89 725.41 653.45 725.47 653.04 725.52 652.55 725.6 651.78 725.71 650.79 725.84 649.98 725.94 649.45 725.98 649.07 725.99 648.71 726 648.31 726.02 647.98 726.03 647.63 726.07 647.15 726.12 646.55 726.18 645.92 726.25 645.27 726.33 644.61 726.43 643.92 726.54 643.16 726.64 642.39 726.73 641.64 726.82 641.01 726.88 640.47 726.93 639.74 727.06 638.73 727.27 637.82 727.45 637.08 727.58 636.24 727.78 635.24 728.04 634.43 728.28 633.83 728.51 633.26 728.76 632.69 729.03 632.1 729.36 631.46 729.75 630.79 730.2 630.13 730.63 629.44 731.09 628.73 731.57 628.07 732 627.49 732.37 626.99 732.68 626.58 732.94 626.27 733.14 626.02 733.3 625.84 733.41 625.75 733.47 625.66 733.52 625.51 733.62 625.34 733.72 625.17 733.83 625.04 733.91 624.99 733.95 624.97 733.96 624.96 733.96 624.95 733.98 624.94 733.98 624.9 734 624.87 734.02 624.74 734.1 624.56 734.22 624.38 734.33 624.23 734.42 624.15 734.48 624.08 734.51 624.01 734.56 623.92 734.62 623.8 734.69 623.59 734.84 623.27 735.03 622.97 735.16 622.88 735.19 622.62 735.29 622.21 735.55 622.16 735.58 621.88 735.85 621.7 736.02 621.3 736.38 621.01 736.57 620.71 736.74 620.24 737.03 619.66 737.42 619 737.86 618.2 738.41 617.13 739.17 615.88 740.05 614.63 740.94 613.54 741.72 612.77 742.25 612.21 742.57 611.77 742.73 611.62 742.78 610.96 742.94 610.39 743.06 609.82 743.17 609.16 743.28 609.12 743.28 608.49 743.34 607.63 743.33 606.17 743.35 605.49 743.37 603.97 743.43 601.43 743.57 598.89 743.71 597.74 743.79 596.72 743.86 594.6 744.02 590.58 744.28 582.98 744.71 573.07 745.24 563.05 745.78 554.73 746.21 549.58 746.45 546.67 746.56 544.42 746.63 542.23 746.7 540.62 746.75 540.55 746.76 539.4 746.81 538.31 746.86 536.78 746.92 534.88 747.01 533.49 747.08 533.04 747.13 532.77 747.15 532.31 747.22 531.89 747.29 531.46 747.33 531 747.34 530.51 747.37 530 747.38 529.95 747.38 529.53 747.4 529.06 747.43 528.36 747.46 527.14 747.52 525.61 747.61 523.96 747.7 522.13 747.8 520.19 747.91 518.43 748.02 516.63 748.12 514.45 748.24 511.95 748.36 509.37 748.5 509.35 748.5 506.79 748.62 504.58 748.72 502.97 748.78 501.72 748.82 500.64 748.85 499.8 748.87 499.14 748.88 498.4 748.9 497.57 748.93 496.89 748.99 496.38 749.07 495.78 749.15 494.79 749.25 493.45 749.35 492.16 749.43 490.73 749.5 489.08 749.58 487.48 749.67 485.94 749.75 484.35 749.83 482.73 749.93 481.02 750.03 479.2 750.15 477.34 750.29 475.51 750.42 473.92 750.55 472.8 750.64 472.14 750.67 471.7 750.7 471.27 750.72 470.73 750.75 470.25 750.78 469.69 750.8 468.84 750.84 467.63 750.87 466.31 750.93 464.97 750.98 463.64 751.01 462.45 751.03 461.36 751.04 460.33 751.05 459.4 751.07 458.68 751.08 458.13 751.09 457.71 751.1 457.29 751.12 456.76 751.14 455.69 751.18 454.01 751.27 452.32 751.35 450.56 751.43 448.49 751.53 446.47 751.61 444.6 751.69 442.87 751.76 441.5 751.82 440.1 751.87 438.31 751.93 436.28 752.01 434.31 752.09 432.84 752.16 432.09 752.2 431.41 752.25 430.16 752.34 429.92 752.36 428.49 752.44 427.04 752.53 426.01 752.57 425.13 752.59 425.09 752.59 424.16 752.61 422.91 752.62 421.28 752.61 419.45 752.58 417.62 752.56 415.95 752.53 414.51 752.48 413.21 752.44 411.92 752.39 410.65 752.31 409.41 752.2 408.23 752.06 407.04 751.92 405.73 751.78 404.25 751.6 402.65 751.41 400.92 751.2 400.39 751.14 398.82 750.95 396.49 750.68 394.59 750.41 393.7 750.26 393.04 750.15 391.26 749.89 389.19 749.63 387.58 749.44 386.5 749.35 385.65 749.3 385.42 749.28 384.17 749.16 383.02 749.07 381.84 748.96 380.51 748.8 379.24 748.65 377.97 748.5 376.25 748.27 374.23 748.01 374.13 748 372.17 747.74 370.12 747.47 367.79 747.15 365.63 746.87 363.66 746.62 361.68 746.37 359.8 746.14 358.35 745.97 357.6 745.88 356.99 745.8 355.97 745.69 354.65 745.52 353.3 745.36 352.13 745.21 351.14 745.11 350.35 745.03 349.67 744.95 347.35 744.69 344.85 744.38 342.27 744.06 339.57 743.75 337.11 743.47 334.51 743.17 331.55 742.82 328.92 742.49 326.27 742.17 323.18 741.78 320.39 741.43 318.29 741.15 316.67 740.93 315.01 740.73 313.24 740.5 312.01 740.35 311.39 740.26 310.99 740.21 310.33 740.13 308.88 739.96 306.94 739.72 305.43 739.53 304.65 739.43 304.26 739.39 304.02 739.4 303.82 739.43 303.61 739.49 303.26 739.54 302.5 739.52 301.39 739.44 300.48 739.38 299.8 739.33 299.22 739.28 298.83 739.19 298.57 739.1 298.38 739 298.19 738.9 297.93 738.79 297.25 738.67 296.22 738.51 295.47 738.4 295.05 738.34 294.67 738.29 294.14 738.22 293.36 738.14 292.26 738.02 290.84 737.84 289.24 737.65 287.6 737.46 285.96 737.25 284.32 737.03 282.69 736.8 281.11 736.59 279.65 736.4 278.3 736.24 276.94 736.09 275.56 735.94 274.02 735.77 272.39 735.59 270.79 735.42 269.23 735.25 267.75 735.07 266.03 734.84 264.02 734.55 262.33 734.32 260.84 734.11 258.99 733.85 256.66 733.52 254.46 733.24 253.52 733.14 252.57 733.03 252.34 733.01 250.91 732.85 249.46 732.68 248.1 732.54 246.83 732.38 245.36 732.19 243.66 731.98 242.37 731.8 241.58 731.68 240.86 731.56 239.73 731.37 239 731.26 238.26 731.14 237.18 730.99 236.62 730.94 236.16 730.95 235.64 730.94 234.86 730.89 233.53 730.73 231.73 730.52 230.2 730.31 228.89 730.12 227.25 729.9 225.34 729.66 223.79 729.47 222.53 729.31 221.21 729.14 219.81 728.96 218.69 728.81 217.98 728.7 217.28 728.58 216.41 728.44 215.75 728.33 215.37 728.25 215.34 728.24 215.07 728.19 214.69 728.14 214.02 728.04 212.81 727.88 211.1 727.64 209.45 727.43 207.72 727.2 205.65 726.93 204.12 726.73 203.83 726.7 202.6 726.55 201.44 726.4 199.89 726.21 198.18 725.98 196.44 725.75 194.64 725.53 192.89 725.33 191.21 725.13 189.75 724.95 188.44 724.81 187.13 724.66 186.09 724.53 185.99 724.53 185.33 724.44 184.4 724.31 183.08 724.15 181.63 723.98 180.1 723.81 178.31 723.62 176.39 723.44 175.38 723.34 174.49 723.26 172.76 723.08 171.01 722.91 169.15 722.71 167.8 722.57 167.03 722.5 166.55 722.46 166.11 722.42 165.07 722.31 163.06 722.09 160.91 721.85 159.09 721.64 157.4 721.44 155.97 721.28 154.6 721.12 152.91 720.93 150.89 720.71 149.02 720.51 147.14 720.29 145.09 720.06 143.22 719.84 141.33 719.6 139.46 719.37 138.28 719.22 137.67 719.14 137.11 719.05 136.45 718.96 135.58 718.86 134.16 718.68 132.24 718.45 130.51 718.26 128.91 718.08 127.19 717.9 125.68 717.74 124.57 717.62 123.93 717.55 120.23 717.18 79.96 713.48 75.28 713.04 69.43 712.04 64.33 709.88 52.93 704.12 43.89 699.55 22.54 688.8 15.23 685.14 14.93 684.98 10.28 682.63 8.85 681.91 2.47 679 1 678.29 1.71 677.04 3.92 672.8 4.98 670.51 4.85 669.61 4.36 668.49 4.58 667.38 8.34 660.1 16.38 644.2 26.26 625.33 34 610.48 37.56 603.27 46.7 585.76 56.37 567.03 62.75 554.73 72.6 535.59 81.72 518.13 90.32 501.58 94.09 494.49 86.58 492.51 87.84 488.32 88.62 479.77 89.47 470.16 89.75 469.54 90.03 468.99 92.36 465.41 99.11 456.01 107.63 442.58 109.15 440.26 107.38 437.64 111.66 434.36 111.72 434.15 111.62 433.77 110.97 432.93 109.65 430.82 106.88 427.13 105.07 424.42 102.59 421.23 100.65 419.27 94.38 423.81 92.07 421.6 91.97 421.42 92.01 421.05 95.65 419.5 97.9 418.22 100.23 416.56 100.81 415.85 98.91 413.58 98.69 413.76 96.97 410.69 99.44 409.62 97.55 404.56 96.41 404.83 95.69 399.86 98.93 398.96 97.19 392.21 93.75 393.09 92.93 389.61 91.72 389.99 90.37 384.76 92.11 384.18 93.4 377.75 96.73 378.39 97.04 377.62 100.59 379.1 100.7 378.89 100.62 378.34 100.87 377.59 101.15 376.92 102.28 374.24 103.47 371.5 104.26 371.95 106.35 367.13 107.03 365.56 107.59 364.27 103.7 362.61 102.1 361.94 103.2 359.28 104.02 357.3 105.24 354.37 106.97 350.23 107 350.13 107 350.06 107 348.4 107 343.08 107 342.96 107 342.7 107 342.52 107.01 340.75 107.01 339.26 107.02 334.63 107.02 334.48 107.02 333.94 107.02 331.85 107.03 327.43 107.49 323.71 107.12 322.92 104.78 322.49 102.93 321.8 102.59 319.02 102.81 317.71 102.88 317.33 102.86 315.1 102.84 313.83 102.81 310.67 102.78 308.07 103.95 305.66 104.71 304.1 105.79 301.89 106.27 302.05 108.01 302.63 108.94 302.93 110.3 303.38 110.53 303.46 110.77 303.54 110.99 304 113.3 305.03 113.89 304.73 120.1 307.03 120.23 306.78 122.13 303.16 124.09 299.41 126.41 293.41 126.96 292.06 127.83 289.95 129.52 285.85 131.63 280.73 132.53 278.56 129.03 277.23 124.97 274.79 123.74 274.05 132.31 269.89 129.39 263.65 132.05 259.36 133.53 259.29 135.63 259.96 138.64 261.59 143.41 264.24 149.39 267.38 150.24 267.84 153.17 262.09 155.18 257.34 155.58 256.4 155.91 255.61 156.04 254.86 155.81 254.23 155.77 254.22 152.06 252.51 144.51 249.4 139.46 247.16 134.5 245.05 132.8 244.02 131.16 241.76 148.09 232.35 148.62 232.06 149.12 231.73 150.81 230.65 153.41 229.13 154.04 228.76 155 228.19 156.22 227.59 169.03 220.13 169.26 220 169.5 219.86 169.52 219.86 165.44 215.39 165.09 215.63 163.13 216.96 148.94 224.78 147.19 225.95 145.26 224.95 139.43 220.54 135.11 217.07 128.43 211.29 120.23 203.75 120.23 203.74 116.58 200.38 111.52 195.72 110.14 194.45 108.09 192.56 107.54 192.05 105.71 190.37 104.5 189.57 97.93 185.29 96.07 184.07 95.68 183.81 94.72 183.19 93 182.08 91.27 180.95 90.4 180.39 89.51 179.8 87.87 179.17 86.27 178.55 84.74 178.14 81.88 177.39 79.32 176.46 78.99 176.34 81.51 172.51 84.01 168.69 86.66 164.67 90.12 159.39 92.46 155.82 93.42 154.31 96.28 149.85 96.96 148.65 99 145.02 99.71 143.64 101.11 142.17 104.51 138.59 107.82 135.11 114.96 127.61 116.21 126.29 118.6 123.78 120.23 122.31 126.06 116.3 126.94 115.4 130.05 112.09 139.03 102.53 139.38 102.15 139.8 101.31 139.94 101.02 144.15 96.61 147.98 92.57 151.41 88.95 152.31 88.04 156.23 84.04 160.33 79.86 161.7 78.46 163.79 76.35 171.62 68.46 174.37 66.15 177.58 62.76 190.39 49.25 214.99 22.99 215.79 22.04 232.88 1.64 233.02 1.46 233.39 1 235.84 2.36 239.18 4.54 241.07 6.13 248.01 13.01 253.27 18.26 254.76 20.14 255.44 21.72 256.93 25.04 259.1 30.02 259.98 31.16 261.18 32.2 263.47 33.49 266.55 34.55 Z"/>
</g>
</svg>