<?xml version="1.0"?>
<svg xmlns="http://www.w3.org/2000/svg" version="1.2" baseProfile="tiny" width="800" height="810" viewBox="0 0 800 810" stroke-linecap="round" stroke-linejoin="round">
<g id="Hiệp Bình (phường xã)">
<path d="M 283.78 1.02 285.09 1.11 285.73 1.17 286.86 1.31 287.41 1.4 287.79 1.49 288.2 1.6 288.69 1.72 289.24 1.86 289.86 2.02 290.55 2.19 291.32 2.37 292.17 2.59 293.06 2.79 293.95 3 294.83 3.22 295.66 3.43 296.43 3.65 296.88 3.77 297.16 3.85 297.82 4.05 298.42 4.23 298.99 4.4 299.66 4.62 300.53 4.91 301.51 5.25 302.5 5.59 303.33 5.88 303.98 6.08 304.55 6.25 305.18 6.42 305.93 6.63 306.75 6.87 307.56 7.08 308.33 7.27 309.09 7.44 309.81 7.59 310.53 7.71 311.27 7.82 312.06 7.91 312.86 7.96 313.66 8.01 314.46 8.05 315.25 8.1 316.02 8.11 316.26 8.11 316.77 8.13 317.52 8.13 318.28 8.11 319 8.1 319.66 8.05 320.25 7.99 320.74 7.91 320.8 7.9 321.34 7.8 321.87 7.68 322.31 7.54 322.73 7.42 323.14 7.33 323.57 7.28 323.94 7.3 324.25 7.34 324.53 7.4 324.88 7.48 325.39 7.56 326.05 7.62 326.82 7.68 327.56 7.71 328.19 7.74 328.72 7.77 329.21 7.82 329.79 7.87 330.47 7.91 331.12 7.97 331.75 8.04 332.52 8.11 333.1 8.17 333.43 8.21 334.37 8.33 335.23 8.44 335.97 8.56 336.55 8.67 336.98 8.81 337.38 8.94 337.88 9.07 338.48 9.1 339.12 9.04 339.74 8.98 340.23 8.94 340.36 8.94 340.97 8.96 341.59 9.05 342.22 9.19 342.88 9.38 343 9.42 343.57 9.59 344.28 9.82 345.02 10.07 345.74 10.31 346.44 10.58 347.13 10.84 347.82 11.12 348.53 11.44 349.29 11.79 350.09 12.19 350.92 12.62 351.67 13.02 352.23 13.3 352.58 13.46 352.83 13.55 353.03 13.61 353.26 13.67 353.61 13.81 354.18 14.06 354.94 14.39 355.34 14.56 355.78 14.75 356.72 15.1 357.72 15.5 358.75 15.95 359.77 16.43 360.66 16.93 361.43 17.4 362.14 17.84 362.79 18.21 363.19 18.43 363.34 18.51 363.77 18.72 364.11 18.87 364.48 19.03 365.05 19.32 366.33 19.46 367.02 19.54 367.45 19.44 367.93 19.37 367.99 19.35 368.73 19.24 369.67 19.17 370.55 19.09 371.36 19.03 372.26 19 373.06 19 373.15 19 374.17 19.06 375.27 19.17 376.41 19.26 377.46 19.34 378.29 19.35 378.85 19.34 379.38 19.32 380 19.29 380.54 19.26 380.96 19.26 381.26 19.24 381.65 19.18 382.22 19.11 382.77 19.03 383.34 18.97 384.07 18.86 384.99 18.77 386.05 18.69 386.82 18.63 387.34 18.57 388.08 18.49 389.35 18.38 390.78 18.3 391.98 18.23 393.07 18.15 394.04 18.12 395.04 18.15 396.17 18.21 396.44 18.23 397.09 18.26 397.29 18.27 398.28 18.38 398.97 18.55 399.43 18.77 399.85 19 400.22 19.15 400.4 19.23 400.46 19.26 401.29 19.55 402.05 19.84 402.8 20.15 403.71 20.41 404.5 20.65 405.27 20.85 406.24 21.05 407.19 21.17 407.65 21.23 408.18 21.29 409.24 21.46 410.16 21.6 410.93 21.75 411.79 22.03 412.69 22.46 413.35 22.8 413.56 22.91 413.81 23.03 414.26 23.32 414.8 23.79 415.07 24.08 415.27 24.28 415.53 24.65 415.7 24.91 415.92 25.2 416.21 25.66 416.35 25.91 416.67 26.48 417.32 27.63 417.98 28.76 418.63 29.9 419.28 31.02 419.77 31.84 420.15 32.42 420.54 33.02 420.95 33.65 421.37 34.29 421.74 34.84 422.06 35.24 422.32 35.49 422.57 35.72 422.66 35.81 422.83 35.99 423.09 36.27 423.37 36.52 423.74 36.73 424.19 36.93 424.63 37.15 424.71 37.18 425.13 37.4 425.71 37.69 426.27 38.01 426.77 38.34 427.25 38.63 427.67 38.92 427.97 39.14 428.01 39.15 428.21 39.27 428.57 39.52 428.65 39.58 429.13 39.97 429.73 40.51 430.22 40.92 430.59 41.23 430.99 41.61 431.45 42.12 431.53 42.21 431.75 42.48 431.93 42.75 432.1 43.12 432.24 43.55 432.36 43.99 432.42 44.45 432.52 45 432.65 45.68 432.78 46.33 432.89 46.96 433.09 47.68 433.36 48.42 433.62 49 433.86 49.42 434.1 49.77 434.16 49.84 434.36 50.07 434.66 50.36 434.99 50.7 435.33 51.04 435.76 51.39 436.29 51.71 436.8 51.96 437.18 52.15 437.49 52.3 437.77 52.45 438.03 52.65 438.32 52.93 438.72 53.38 439.29 53.84 439.92 54.01 440.52 53.87 440.63 53.84 441.09 53.64 441.58 53.44 442.05 53.33 442.6 53.33 443.32 53.47 444.09 53.58 444.82 53.64 445.46 53.72 446.03 53.7 446.62 53.68 447.19 53.79 447.57 53.87 447.85 53.93 448.24 54.07 448.74 54.3 449.16 54.52 449.47 54.73 449.73 54.95 449.96 55.16 450.21 55.39 450.41 55.61 450.58 55.87 450.76 56.26 450.96 56.75 451.15 57.23 451.31 57.7 451.48 58.21 451.64 58.72 451.78 59.21 451.91 59.75 452.04 60.27 452.16 60.74 452.25 61.12 452.36 61.43 452.47 61.74 452.56 62.06 452.62 62.55 452.61 63.29 452.47 64.02 452.21 64.49 451.82 64.82 451.39 65.11 450.95 65.39 450.54 65.66 450.51 65.69 450.08 66.03 449.65 66.42 449.22 66.82 448.88 67.16 448.62 67.4 448.42 67.62 448.25 67.83 448.11 68 447.97 68.19 447.84 68.39 447.68 68.56 447.54 68.73 447.39 68.87 447.73 71.48 447.74 71.57 447.79 71.96 447.71 74.53 447.25 76.62 446.88 78.36 446.88 78.4 446.26 81.04 446.31 81.44 446.39 82.48 446.43 82.98 447.02 87.08 447.19 89.5 446.82 92.04 446.53 93.34 446.13 95.15 445.85 96.42 445.57 97.72 445.09 99.86 444.86 100.95 445.34 102.04 446.7 103.94 447.62 104.31 448.79 104 451.73 102.54 453.55 101.77 454.81 101.54 455.87 101.87 457.69 102.71 458.9 102.77 461.88 102.74 464.96 102.81 466.16 102.84 468.02 102.89 469.08 102.91 473.92 101.97 478.3 102.29 480.91 102.72 483.06 103.64 483.94 104.34 484.51 104.94 485.76 105.14 489.16 105.06 491.67 105.35 492.65 105.82 493.18 106.83 493.38 110.14 491.88 112.47 484.28 115.45 483.15 115.96 481.66 116.61 480.07 117.25 478.63 117.84 477.29 118.38 475.96 118.92 474.85 119.39 474.02 119.78 473.38 120.07 472.78 120.35 472.24 120.61 471.9 120.76 471.7 120.86 471.51 120.93 471.27 121.06 470.79 121.29 470.13 121.66 469.53 121.95 468.97 122.23 468.3 122.58 467.48 123.06 466.6 123.74 465.66 124.54 464.91 125.18 464.25 125.72 463.32 126.52 462.05 127.68 460.75 128.92 460.64 129.05 459.55 130.14 458.49 131.31 457.55 132.4 457.06 132.99 456.69 133.44 456.03 134.3 455.55 135.04 455.15 135.74 454.86 136.27 454.7 136.55 454.56 136.81 454.32 137.28 453.95 137.95 453.56 138.56 453.16 139.05 452.75 139.5 452.33 139.92 452.08 140.13 451.01 140.98 450.62 141.23 450.18 141.52 449.71 141.89 449.31 142.2 449.01 142.46 448.76 142.77 448.57 143.12 448.4 143.5 448.25 143.92 448.1 144.37 447.96 144.83 447.87 145.31 447.8 145.8 447.79 146.32 447.79 146.34 447.79 146.89 447.8 147.52 447.85 148.26 447.88 149.25 447.88 150.4 447.88 151.34 447.87 152.14 447.84 153.17 447.77 154.39 447.77 154.56 447.74 155.36 447.76 155.98 447.8 156.48 447.85 156.98 447.94 157.45 448.07 157.93 448.2 158.39 448.34 158.82 448.47 159.27 448.6 159.72 448.71 160.09 448.77 160.33 448.82 160.47 448.85 160.58 448.91 160.81 449.05 161.29 449.24 161.93 449.42 162.64 449.59 163.44 449.68 164.38 449.73 165.37 449.77 166.35 449.77 167.21 449.77 167.91 449.74 168.54 449.68 169.14 449.61 169.74 449.53 170.4 449.48 171.09 449.47 171.77 449.44 172.34 449.42 172.91 449.48 173.48 449.56 173.91 449.68 174.27 449.87 174.63 450.07 174.99 450.28 175.34 450.53 175.65 450.84 175.94 451.24 176.22 451.78 176.42 452.08 176.48 452.39 176.56 452.87 176.67 453.16 176.74 453.5 176.79 454.07 176.87 454.84 176.98 455.7 177.05 456.83 177.1 458.17 177.13 459.43 177.14 460.71 177.18 462.11 177.21 463.31 177.25 464.23 177.31 465 177.41 465.74 177.48 466.46 177.56 467.13 177.62 467.74 177.68 468.33 177.76 468.93 177.85 469.64 178.02 470.42 178.24 471.07 178.45 471.64 178.67 472.31 178.93 473.16 179.27 473.9 179.62 474.39 179.88 474.84 180.15 475.16 180.38 475.33 180.49 475.72 180.79 476.02 181.02 476.36 181.24 476.79 181.44 477.03 181.55 477.23 181.64 477.73 181.84 478.3 182.06 478.95 182.27 479.55 182.46 480.01 182.61 480.44 182.76 480.92 182.92 481.24 183.09 481.27 183.1 481.66 183.3 482.31 183.5 483.08 183.61 483.68 183.67 484.11 183.76 484.46 183.84 484.48 183.84 484.49 183.86 484.77 183.92 484.92 183.95 484.97 183.95 485.17 183.95 485.48 184.04 485.77 184.18 485.8 184.2 485.94 184.29 486.29 184.49 486.66 184.72 486.89 184.87 487.49 185.26 487.7 185.43 487.93 185.63 488.13 185.89 488.19 185.97 488.42 186.35 488.43 186.38 488.74 186.95 488.88 187.18 489.13 187.61 489.53 188.31 489.91 189.01 489.93 189.08 490.24 189.83 491.33 192.22 491.37 192.32 491.64 194.5 491.85 196.47 491.51 199.28 490.76 203.02 491.07 209.15 491.41 211.35 491.79 213.76 492.07 215.03 492.41 216.43 492.64 217.39 493.65 221.28 494.39 222.92 494.98 224.18 496.61 225.12 496.92 225.3 497.1 225.4 497.58 225.67 500.63 226.9 501.47 227.58 502.38 228.18 503.09 228.67 503.51 229.01 503.95 229.44 504.54 230.09 505 230.71 505.22 231.08 506.48 232.42 506.71 233.03 506.79 233.35 506.89 233.79 507 234.2 507.06 234.68 507.09 235.25 507.17 235.86 507.25 236.48 507.29 237.08 507.36 237.6 507.42 238.04 507.48 238.45 507.57 238.97 507.73 239.67 507.89 240.44 507.96 241.05 507.97 241.53 508.05 242.1 508.2 242.81 508.34 243.49 508.46 244.24 508.65 245.29 508.93 246.58 509.2 247.81 509.5 249.04 509.54 249.29 509.79 250.38 510 251.41 510.1 251.89 510.13 252.06 510.16 252.2 510.22 252.48 510.36 253.11 510.54 254 510.74 254.94 511.02 256.03 511.37 257.43 511.76 259.07 512.1 260.53 512.42 261.98 512.81 263.55 513.14 264.84 513.41 265.73 513.62 266.36 513.79 266.78 513.88 266.99 513.95 267.09 513.98 267.13 514.08 267.21 514.28 267.38 514.55 267.64 514.78 267.92 515.01 268.2 515.25 268.46 515.58 268.72 515.96 268.97 516.35 269.24 516.75 269.52 517.29 269.83 517.95 270.21 518.63 270.61 519.29 271.01 519.86 271.35 520.3 271.6 520.72 271.81 521.13 272.04 521.64 272.37 522.18 272.8 522.72 273.21 523.27 273.51 523.78 273.68 524.32 273.82 524.91 273.94 525.51 274.05 526.09 274.14 526.57 274.22 526.95 274.25 527.37 274.23 527.86 274.18 528.4 274.14 528.97 274.08 529.6 273.98 530.31 273.83 531.03 273.65 531.54 273.51 532.59 273.25 533.56 272.68 533.88 272.51 534.39 272.21 534.91 271.91 535.51 271.57 536.24 271.23 537.04 270.94 537.96 270.74 538.9 270.6 539.61 270.46 540.03 270.38 540.29 270.35 540.53 270.34 540.89 270.3 541.49 270.23 542.3 270.14 543.18 270.01 544.12 269.87 545.06 269.7 545.91 269.57 546.68 269.44 547.34 269.35 547.92 269.29 548.45 269.23 548.97 269.2 549.74 269.18 550.91 269.21 552.27 269.27 553.65 269.35 554.94 269.43 556.16 269.55 557.39 269.67 558.59 269.81 559.64 269.94 560.39 270.03 560.93 270.1 561.44 270.21 562.04 270.38 562.73 270.66 563.37 270.98 563.84 271.26 564.24 271.52 564.69 271.88 565.26 272.38 565.83 272.92 566.21 273.35 566.46 273.78 566.66 274.23 566.91 274.65 567.2 275.08 567.52 275.55 567.85 276.05 568.17 276.52 568.43 276.96 568.6 277.2 568.68 277.31 568.69 277.36 568.72 277.4 568.79 277.48 568.85 277.59 568.92 277.7 568.99 277.79 569 277.83 569.03 277.86 569.09 277.96 569.2 278.11 569.34 278.34 569.52 278.63 569.71 278.91 569.89 279.22 570.11 279.56 570.34 279.99 570.57 280.5 570.76 280.93 570.97 281.41 571.2 281.88 571.39 282.28 571.51 282.58 571.77 283.38 571.91 283.81 571.94 283.88 572.26 284.82 572.42 285.12 572.6 285.39 572.8 285.72 572.96 286.04 573.11 286.42 573.25 286.84 573.39 287.3 573.53 287.79 573.67 288.29 573.79 288.81 573.9 289.32 573.96 289.75 574.02 290.23 574.11 290.89 574.24 291.74 574.37 292.66 574.5 293.57 574.59 294.35 574.67 294.98 574.73 295.57 574.79 296.11 574.82 296.49 574.82 296.69 574.82 296.8 574.82 296.94 574.79 297.17 574.73 297.57 574.65 298.05 574.54 298.57 574.42 299.16 574.3 299.77 574.14 300.53 573.97 301.37 573.79 302.21 573.59 303.05 573.36 303.95 573.08 304.87 572.79 305.7 572.51 306.53 572.23 307.38 572 308.09 571.8 308.78 571.6 309.55 571.37 310.5 571.13 311.77 570.74 313.12 570.26 314.04 569.92 314.54 569.76 314.94 569.62 315.35 569.49 315.82 569.37 316.28 569.26 316.72 569.14 317.19 569.02 317.69 568.88 318.19 568.71 318.56 568.51 318.77 568.32 318.99 568.2 319.29 568.08 319.6 567.95 319.86 567.8 320.08 567.65 320.3 567.46 320.57 567.29 320.88 567.14 321.2 567.01 321.5 566.92 321.79 566.83 322.07 566.74 322.4 566.66 322.84 566.6 323.37 566.49 324.19 566.37 325.16 566.26 325.88 566.2 326.32 566.09 326.84 565.91 327.56 565.71 328.1 565.49 328.52 565.27 329.04 565.09 329.76 564.97 330.69 564.84 331.78 564.72 332.95 564.52 334.35 564.24 335.97 563.97 337.54 563.69 339.03 563.47 340.34 563.37 341.08 563.32 341.62 563.27 342.23 563.23 342.93 563.15 344.45 563.15 345.05 563.13 345.38 563.09 346.45 563.03 346.99 562.92 347.7 562.75 348.92 562.58 350.23 562.49 351.15 562.4 352.03 562.32 352.73 562.29 353.07 562.2 354.1 562.12 355.04 562.06 355.92 562 356.75 561.96 357.45 561.95 358.05 561.96 358.66 562.06 359.34 562.24 360.11 562.46 360.88 562.67 361.62 562.84 362.14 562.97 362.45 563.1 362.77 563.29 363.23 563.52 363.79 563.75 364.36 563.95 364.82 564.06 365.05 564.26 365.42 564.58 365.96 564.89 366.44 565.17 366.87 565.48 367.33 565.77 367.78 565.98 368.1 566.17 368.36 566.35 368.65 566.52 368.88 566.69 369.15 566.95 369.52 567.25 369.96 567.52 370.36 567.78 370.69 568.02 370.96 568.23 371.23 568.49 371.5 568.86 371.89 569.42 372.44 570.09 373.12 570.79 373.81 571.49 374.46 572.19 375.03 572.9 375.57 573.6 376.11 574.39 376.66 575.22 377.2 576.05 377.69 576.87 378.15 577.68 378.6 578.41 378.95 578.95 379.18 579.45 379.4 580.07 379.66 580.73 379.89 581.43 380.12 581.96 380.23 582.27 380.22 583.06 380.12 585.47 381.39 586.43 381.85 587.89 382.51 589.4 383.13 590.97 383.79 592.66 384.6 594.39 385.45 595.24 385.87 596.1 386.28 597.65 386.99 599.02 387.58 600.21 388.16 601.33 388.7 602.3 389.12 602.92 389.35 603.46 389.55 604.09 389.78 604.27 389.82 604.6 389.92 605.12 389.95 605.98 389.99 607.06 390.18 608.08 390.55 608.86 391.01 609.6 391.5 610.4 392.02 611.12 392.52 611.83 393.01 612.59 393.47 613.2 393.86 613.85 394.29 614.6 394.75 615.14 395.01 615.45 395.09 615.67 395.1 615.84 395.12 616 395.17 616.19 395.24 616.42 395.41 616.88 395.77 617.7 396.41 618.73 397.24 619.68 398.04 620.53 398.83 621.38 399.66 622.18 400.45 623.02 401.29 623.9 402.2 624.67 403 625.24 403.66 625.72 404.2 626.17 404.66 626.55 405.07 626.66 405.22 626.81 405.43 627.12 405.85 627.69 406.48 628.44 407.28 629.14 408.02 629.75 408.64 630.32 409.19 630.75 409.59 631.11 409.85 631.43 410.12 631.72 410.36 632.02 410.65 632.4 411.07 632.55 411.25 632.83 411.58 633.26 412.1 633.68 412.64 634.06 413.13 634.42 413.61 634.77 414.12 635.1 414.66 635.39 415.16 635.66 415.69 635.99 416.32 636.33 417.01 636.59 417.54 636.71 417.87 636.8 418.15 636.84 418.34 636.91 418.74 637.64 420.15 637.8 420.46 638.08 420.89 638.37 421.35 638.67 421.79 638.94 422.17 639.14 422.51 639.34 422.82 639.5 423.08 639.64 423.34 639.76 423.76 639.91 424.45 640.07 425.14 640.15 425.63 640.19 426.07 640.24 426.65 640.28 427.24 640.33 427.71 644.39 425.8 646.32 424.9 646.37 424.82 646.5 424.63 646.8 424.25 647.3 423.83 647.92 423.39 648.55 422.89 648.91 422.62 649.07 422.46 649.44 422.12 649.75 421.8 650.08 421.48 650.28 421.29 650.45 421.14 650.75 420.88 651.08 420.62 651.35 420.37 651.58 420.14 651.6 420.12 651.83 419.86 652.05 419.58 652.25 419.28 652.43 418.98 652.55 418.68 652.65 418.34 652.75 417.95 652.86 417.51 652.95 417.03 653.05 416.47 653.11 415.83 653.14 415.13 653.17 414.43 653.15 413.7 653.11 412.93 653.08 412.13 653.06 411.96 653.05 411.72 653.03 411.42 653.02 410.76 653.03 410.08 653.08 409.51 653.14 409.08 653.22 408.74 653.25 408.62 653.31 408.41 653.4 408.13 653.51 407.88 653.63 407.65 653.77 407.45 653.92 407.27 654.11 407.11 654.19 407.05 654.31 406.97 654.56 406.84 654.82 406.7 655.11 406.56 655.53 406.4 656.08 406.28 656.63 406.19 657.2 406.1 657.85 406 658.53 405.94 659.22 405.88 659.87 405.85 660.42 405.8 660.78 405.76 661.07 405.73 661.48 405.65 662.01 405.53 662.55 405.39 663.07 405.23 663.12 405.22 663.7 405.07 664.1 404.94 664.66 404.73 664.73 404.83 671.52 406.51 682.3 405.62 690.87 405.62 695.92 407.39 705.81 408.93 710.87 410.02 713.95 411.12 718.13 414.2 720.1 416.61 724.71 421.68 734.83 424.97 753.74 434.64 784.28 445.85 795.49 450.25 798.94 451.84 799 451.87 798.97 452.07 798.94 452.32 798.89 452.58 798.85 452.87 798.8 453.19 798.71 453.64 798.57 454.39 798.4 455.32 798.28 456.07 798.18 456.63 798.09 457.26 797.95 458.07 797.85 458.74 797.77 459.17 797.72 459.43 797.69 459.61 797.66 459.87 797.6 460.46 797.51 461.52 797.4 462.88 797.29 464.25 797.18 465.43 797.08 466.34 796.97 467.08 796.89 467.62 796.84 467.96 796.83 468.31 796.81 468.82 796.83 469.25 796.94 469.5 797.03 469.57 797.15 469.68 797.48 469.99 797.69 470.53 797.69 471.14 797.55 471.67 797.37 472.08 797.14 472.39 796.89 472.65 796.63 472.91 796.38 473.19 796.11 473.47 795.8 473.79 795.52 474.09 795.49 474.12 795.27 474.3 795.23 474.35 794.95 474.56 794.63 474.81 794.3 474.98 794.01 475.07 793.67 475.12 793.33 475.16 793.12 475.18 792.4 475.15 791.78 474.96 791.47 474.87 791.02 474.69 790.55 474.45 790.05 474.22 789.64 473.99 789.3 473.76 788.98 473.53 788.64 473.32 788.24 473.08 787.84 472.85 787.5 472.65 787.3 472.56 786.62 472.25 785.76 472.27 785.48 472.27 785.17 472.27 784.9 472.27 784.5 472.28 783.96 472.28 783.39 472.31 783.31 472.33 782.79 472.41 782.26 472.55 781.8 472.65 781.43 472.7 781.14 472.79 780.86 472.98 780.51 473.24 780.08 473.73 779.83 474.41 779.72 474.98 779.6 475.38 779.48 475.79 779.45 476.12 779.43 476.35 779.4 476.95 779.37 477.63 779.43 478.66 779.59 480.21 779.76 481.88 779.82 482.51 779.92 483.58 780.11 485.34 780.22 486.71 780.26 487.54 780.29 488.3 780.28 489.22 780.23 490.11 780.19 490.91 780.14 491.48 780.12 491.67 780.08 492.44 780.05 493.21 780.02 493.98 780 494.75 780.05 495.52 780.17 496.24 780.32 496.89 780.48 497.5 780.6 498.04 780.76 498.58 780.97 499.2 781.14 499.78 781.34 500.41 781.6 501.12 781.85 501.78 782.11 502.4 782.4 503.01 782.71 503.61 783.02 504.21 783.3 504.72 783.48 505.09 783.67 505.45 783.76 505.62 783.91 505.91 784.16 506.42 784.36 506.89 784.5 507.31 784.56 507.62 784.54 508.03 784.54 508.06 784.4 508.7 783.96 509.42 783.62 509.76 783.42 509.96 783.03 510.31 782.74 510.56 782.43 510.79 782.1 511 781.79 511.19 781.54 511.33 781.4 511.42 781.28 511.51 781.14 511.62 780.96 511.74 780.79 511.87 780.6 511.99 780.42 512.13 780.25 512.27 780.19 512.3 779.97 512.47 779.76 512.64 779.55 512.79 779.39 512.91 779.25 513.02 779.11 513.11 778.95 513.24 778.77 513.39 778.52 513.62 778.23 513.85 777.89 514.07 777.51 514.3 777.08 514.51 776.58 514.71 776.08 514.91 775.61 515.05 775.15 515.18 774.58 515.3 774.01 515.36 773.46 515.38 772.92 515.39 772.41 515.39 771.98 515.35 771.64 515.28 771.33 515.21 771.1 515.16 770.89 515.1 770.61 515.02 770.13 514.91 769.52 514.78 768.92 514.64 768.3 514.48 767.64 514.33 767.05 514.21 766.59 514.15 766.22 514.13 766.05 514.13 765.84 514.15 765.42 514.19 765.01 514.25 764.53 514.36 764.05 514.56 763.56 514.84 763.07 515.15 762.6 515.5 762.2 515.88 761.85 516.29 761.53 516.69 761.2 517.1 760.93 517.55 760.7 517.99 760.53 518.41 760.4 518.79 760.33 519.18 760.26 519.66 760.25 520.21 760.28 520.78 760.33 521.32 760.37 521.7 760.43 521.95 760.48 522.21 760.53 522.63 760.57 523.18 760.6 523.77 760.6 524.38 760.57 524.97 760.57 525.12 760.56 525.43 760.51 525.88 760.46 526.45 760.36 527.06 760.2 527.69 760.02 528.31 759.77 528.97 759.52 529.66 759.26 530.33 758.97 530.96 758.6 531.6 758.25 532.22 757.89 532.79 757.6 533.19 757.32 533.59 756.95 534.08 756.51 534.59 756.06 535.11 755.71 535.59 755.46 535.95 755.26 536.25 755.03 536.67 754.77 537.18 754.54 537.72 754.31 538.33 754.07 538.96 753.89 539.55 753.77 540.03 753.67 540.44 753.58 540.83 753.49 541.18 753.4 541.55 753.35 542.07 753.34 542.72 753.37 543.4 753.41 544.06 753.46 544.68 753.54 545.28 753.66 545.83 753.77 546.29 753.84 546.68 753.98 547.06 754.17 547.51 754.4 547.92 754.64 548.28 754.94 548.59 755.24 548.89 755.6 549.19 755.98 549.48 756.08 549.56 756.37 549.77 756.82 550.05 757.35 550.33 757.95 550.6 758.54 550.88 758.96 551.06 759.54 551.3 760.11 551.33 760.33 551.36 760.65 551.4 760.97 551.45 761.33 551.5 761.7 551.51 761.73 551.51 762.22 551.45 762.88 551.31 763.68 551.08 764.39 550.86 764.44 550.85 764.76 550.74 765.25 550.57 766.19 550.28 767.18 550.02 768.21 549.83 769.19 549.69 770.18 549.56 771.2 549.4 772.1 549.2 772.95 549.03 773.77 548.94 774.03 548.92 774.38 548.91 775 548.89 775.74 548.91 776.4 548.99 776.92 549.09 777.4 549.22 777.95 549.39 778.22 549.49 778.63 549.66 779.39 550 780.06 550.33 780.63 550.63 781.19 550.93 781.74 551.25 782.5 551.7 783.4 552.23 783.9 552.53 784.9 553.16 784.91 553.16 785.13 553.3 785.99 553.82 786.16 553.94 786.96 554.47 788.12 555.25 789.45 556.13 789.53 556.18 790.81 557.01 791.98 557.72 792.83 558.19 793.38 558.53 793.84 558.92 794.29 559.38 794.66 559.81 795 560.26 795.38 560.75 795.69 561.21 795.87 561.64 796.01 562.07 796.11 562.5 796.18 562.95 796.26 563.41 796.32 563.9 796.34 564.41 796.29 564.89 796.24 565.35 796.15 565.81 796.04 566.29 795.97 566.61 795.72 567.31 795.27 567.82 795.15 567.97 795.01 568.18 794.72 568.46 794.18 568.99 794.15 569.02 793.77 569.34 793.61 569.46 793.43 569.62 793.16 569.85 792.9 570.06 792.6 570.29 792.18 570.59 791.75 570.93 791.29 571.28 790.72 571.59 790.04 571.85 789.53 572.03 789.29 572.11 788.53 572.39 787.98 572.62 787.42 572.85 786.7 573.17 786.02 573.51 785.48 573.82 785.01 574.1 784.64 574.34 784.34 574.54 784.1 574.74 783.8 575.02 783.37 575.45 782.68 576.11 781.86 576.91 781.13 577.75 780.6 578.52 780.56 578.58 780.14 579.29 779.79 579.78 779.46 580.09 779.17 580.32 778.94 580.49 778.66 580.79 778.2 581.35 777.63 582.06 777.03 582.78 776.61 583.3 776.48 583.47 776.46 583.5 776.28 583.72 775.94 584.13 775.43 584.77 775.09 585.18 773.54 587.72 764.14 603.12 762.56 605.7 761.5 605.15 759.43 604.29 757.86 603.63 756.97 603.23 755.98 602.87 754.69 602.47 753.75 602.35 752.87 602.69 751.73 602.78 750.73 601.81 749.15 600.61 746.36 599.53 743.37 598.56 740.37 597.61 737.52 596.71 735.91 596.24 735.31 596.1 734.88 596.02 734.31 595.91 733.6 595.8 732.34 595.62 730.15 595.31 727.44 594.25 725.22 592.29 724.11 591 723.54 590.6 722.61 590.35 721.31 590.06 720.23 589.83 719.51 589.68 718.93 589.59 718.39 589.51 717.89 589.42 717.59 589.34 717.42 589.29 717.28 589.25 717.14 589.2 716.8 589.09 716.05 588.89 714.72 588.57 712.98 588.15 711.35 587.69 709.92 587.2 708.32 586.68 706.7 586.23 705.69 585.95 705.16 585.8 704.7 585.66 703.87 585.43 702.7 585.12 701.87 584.94 701.47 584.87 701.17 584.86 700.93 584.81 700.7 584.77 700.47 584.67 700.25 584.58 700.02 584.44 699.77 584.3 699.51 584.18 699.14 584.04 698.36 583.81 697.6 583.6 697.13 583.47 696.09 583.23 695.32 583.04 694.59 582.83 693.94 582.6 693.52 582.46 693.14 582.36 692.71 582.26 692.21 582.15 691.52 581.98 690.75 581.76 689.95 581.55 689 581.32 687.92 581.06 686.9 580.78 686.13 580.56 685.67 580.44 685.44 580.35 685.33 580.27 685.26 580.18 685.18 580.07 685.05 579.96 684.84 579.84 684.36 579.64 683.33 579.27 681.84 578.76 680.28 578.22 678.79 577.75 677.63 577.44 676.66 577.19 675.57 576.93 674.48 576.65 673.55 576.38 673 576.16 672.57 576.05 671.92 576.01 671.14 575.98 670.41 575.96 669.8 575.91 668.86 575.73 667.29 575.33 665.63 574.91 664.38 574.71 663.29 574.68 662.38 574.7 661.88 574.71 661.59 574.74 661.24 574.8 660.7 574.88 659.81 574.96 658.5 575.05 656.87 575.13 655.09 575.17 653.92 575.19 653.15 575.17 651.8 575.14 649.75 575.14 647.61 575.24 645.92 575.37 640.71 576.08 638.3 577.22 637.37 577.61 635.91 578.27 635.48 578.45 634.39 578.95 633.11 579.59 632.34 580.02 631.79 580.35 631.17 580.7 630.68 580.99 630.14 581.35 629.26 581.93 628.11 582.75 626.86 583.66 625.8 584.46 624.93 585.12 624.03 585.75 623.04 586.41 622.3 586.92 621.79 587.29 621.41 587.66 621.05 588.01 620.75 588.32 620.48 588.57 620.22 588.77 619.95 588.95 619.55 589.17 619.05 589.48 618.5 589.8 617.87 590.25 617.17 590.8 616.59 591.29 616.17 591.71 615.57 592.45 614.77 593.45 614.45 593.85 613.26 595.33 612.46 596.25 611.92 596.81 611.46 597.27 611.03 597.67 610.65 598.05 610.18 598.53 609.54 599.21 608.83 600.04 608.17 600.95 607.51 601.9 606.8 602.81 606.14 603.61 605.55 604.27 604.66 605.2 603.23 606.67 601.79 608.14 601.5 608.45 600.93 609.01 600.45 609.51 599.95 610.08 598.96 611.29 597.34 613.37 595.67 615.63 593.96 617.96 592.28 620.21 591.16 621.7 590.62 622.47 590.57 622.52 590.12 623.16 589.68 623.79 588.98 624.86 588.01 626.43 587.28 627.69 586.52 628.95 585.57 630.6 584.9 631.85 584.57 632.59 584.29 633.19 584.03 633.71 583.78 634.17 583.5 634.68 583.01 635.5 581.95 637.17 579.98 640.45 577.48 644.78 575.13 648.77 572.99 652.59 570.88 656.65 569.05 660.04 567.88 661.99 566.74 663.84 566.72 663.85 565.31 666.12 565.04 666.52 564.18 667.84 563.43 668.98 562.75 669.92 562.1 670.77 561.49 671.58 560.9 672.31 560.49 672.86 560.16 673.37 559.84 673.89 559.5 674.43 558.93 675.26 558.05 676.53 557.02 677.96 556.07 679.31 555.3 680.41 554.73 681.28 554.3 682.04 553.87 682.82 553.4 683.58 552.9 684.36 552.3 685.35 551.54 686.58 550.66 687.93 549.77 689.34 548.89 690.71 548.03 691.95 547.28 693 546.72 693.86 546.23 694.8 545.71 695.99 545.65 696.11 544.77 697.79 543.49 699.67 542 701.33 541.16 702.04 540.58 702.54 539.46 703.45 538.76 704.15 538.26 704.79 537.62 705.58 536.76 706.66 535.65 708.03 534.58 709.33 533.54 710.54 532.24 712.14 530.9 713.81 529.94 715.03 529.19 715.97 528.39 716.88 527.49 717.89 526.62 718.88 525.77 719.82 524.92 720.74 524.23 721.51 523.75 722.01 523.4 722.24 523.09 722.36 522.8 722.51 522.52 722.77 522.23 723.13 521.81 723.62 521.2 724.28 520.49 724.91 519.81 725.48 519.12 726.13 518.32 726.96 517.19 728.13 515.7 729.61 514.04 731.15 512.41 732.64 511.11 733.81 510.28 734.55 509.51 735.2 508.31 736.23 506.06 738.17 503.18 740.66 501.4 742.22 500.75 742.79 500.47 743.02 500.27 743.21 500.07 743.39 499.78 743.65 499.32 744.1 498.55 744.85 497.16 746.15 494.75 748.35 491.77 751 489.88 752.64 489 753.37 488.26 753.91 487.31 754.52 486.11 755.21 484.89 755.91 483.66 756.63 482.35 757.4 480.57 758.45 478.41 759.69 476.76 760.65 475.89 761.16 475.12 761.57 473.75 762.31 471.9 763.31 470.54 764.04 469.84 764.41 469.28 764.7 468.47 765.14 467.39 765.74 466.23 766.38 464.89 767.12 463.38 767.92 461.81 768.73 460.07 769.58 457.81 770.61 455.3 771.72 453.59 772.47 452.25 773.07 450.08 774.03 447.25 775.27 445.13 776.21 444.05 776.68 443.54 776.89 443.2 777.03 442.74 777.23 442.08 777.52 441.49 777.83 440.86 778.17 439.95 778.65 438.77 779.29 437.37 780.05 436.1 780.76 435.06 781.34 434.18 781.8 433.46 782.14 432.85 782.4 432.04 782.76 430.96 783.23 430.11 783.6 429.42 783.85 428.54 784.17 427.48 784.6 426.4 785.02 425.51 785.41 424.88 785.68 424.06 786.01 422.79 786.51 421.51 787.05 420.48 787.5 419.46 787.91 418.32 788.35 417.52 788.65 416.98 788.85 416.07 789.16 414.16 789.81 410.78 790.89 406.45 792.2 403.02 793.16 400.66 793.8 398.32 794.46 395.03 795.43 391.19 796.58 388.79 797.34 387.78 797.68 387.08 797.94 386.48 798.15 386.31 798.21 386.02 798.32 385.62 798.46 385.1 798.63 384.45 798.85 383.79 799.06 383.05 799.32 382.26 799.57 381.52 799.82 380.86 800.02 379.97 800.29 378.28 800.82 375.86 801.56 373.89 802.17 372.32 802.65 370.21 803.28 367.7 804.02 365.98 804.5 364.62 804.76 362.53 805.11 359.83 805.59 357.74 805.94 356.57 806.16 355.57 806.42 353.86 806.85 351.26 807.36 349.01 807.7 347.81 807.85 346.67 807.98 344.59 808.18 342.03 808.42 340 808.61 338.99 808.68 338.37 808.71 337.65 808.7 337.18 808.65 336.89 808.55 336.17 808.44 334.63 808.38 332.75 808.35 332.15 808.36 331.03 808.39 329.29 808.47 327.47 808.56 326.04 808.65 325.13 808.71 324.45 808.76 323.41 808.79 321.8 808.82 320.25 808.82 318.76 808.84 316.97 808.91 308.81 808.21 292.23 806.9 280.64 805.6 275.79 805.07 265.79 803.51 263.15 803.1 262.99 803.06 260.24 802.46 259.48 802.63 257.48 803.3 255.54 803.42 253.99 803.36 253.59 803.34 252.26 803.22 251.54 803.11 250.72 802.99 249.44 802.82 248.23 802.66 247.61 802.53 247.4 802.39 247.29 802.26 247.2 802.16 247 801.85 246.61 801.25 246.23 800.66 245.98 800.32 245.81 800.17 245.61 800.03 245.43 799.91 245.3 799.85 245.12 799.77 244.72 799.63 244.64 799.6 244.29 799.48 243.98 799.37 243.81 799.31 243.67 799.25 243.39 799.12 242.84 798.86 242.27 798.6 241.9 798.43 241.65 798.32 241.44 798.23 241.18 798.09 240.78 797.91 240.16 797.6 239.54 797.32 239.16 797.15 239.01 797.09 238.94 797.08 238.7 796.95 238.2 796.57 237.56 796.01 237.28 795.77 236.16 794.7 235.14 793.57 234.32 792.61 233.62 791.92 232.89 791.41 232.32 791.06 231.63 790.7 230.55 790.13 229.43 789.5 228.47 788.98 227.55 788.5 227.01 788.21 226.8 788.08 226.15 787.68 225.46 787.25 224.63 786.71 223.16 785.77 220.88 784.3 218.39 782.68 215.88 781.05 213.54 779.55 212 778.6 211.15 778.11 210.71 777.85 210.46 777.69 210.26 777.54 209.95 777.32 209.57 777.03 209.11 776.69 208.54 776.23 207.89 775.72 207.27 775.23 206.72 774.78 206.3 774.44 205.89 774.07 205.13 773.37 204.09 772.37 202.98 771.3 201.95 770.33 201.18 769.66 200.67 769.19 200.24 768.82 199.85 768.53 199.53 768.32 199.28 768.15 199.05 767.96 198.56 767.48 197.81 766.71 197.13 766.11 196.39 765.58 195.2 764.68 193.74 763.48 192.43 762.31 191.51 761.48 190.79 760.8 190.11 760.08 189.57 759.43 189.29 759.08 189.17 758.91 189.05 758.79 188.83 758.66 188.52 758.48 188.24 758.23 188.06 757.94 187.91 757.68 187.75 757.4 187.58 757.11 187.44 756.86 187.38 756.75 187.34 756.68 187.26 756.57 187.03 756.32 186.34 755.69 185.47 753.92 185.15 751.23 184.93 749.26 184.6 748.32 184.27 747.76 183.9 747.12 183.44 746.32 183.06 745.64 182.98 745.5 182.67 744.99 182.24 744.22 181.95 743.73 181.82 743.53 181.75 743.39 181.62 743.17 181.44 742.85 181.18 742.4 180.93 741.97 180.67 741.53 180.67 741.51 180.39 741.07 180.16 740.65 179.99 740.31 179.85 740.03 179.75 739.82 179.59 739.51 179.32 738.94 178.96 738.19 178.65 737.52 178.42 736.99 178.21 736.43 177.91 735.69 177.53 734.75 177.14 733.8 176.87 733.07 176.61 732.34 176.28 731.26 176.02 729.98 175.87 728.95 175.8 728.43 175.79 728.15 175.77 727.81 175.76 727.42 175.74 727.24 175.68 726.38 175.59 725.42 175.5 724.73 175.36 724.28 175.13 723.88 174.79 723.36 174.4 722.77 174.03 722.1 173.79 721.44 173.6 720.84 173.39 720.14 173.13 719.22 172.9 718.34 172.77 717.77 172.71 717.45 172.7 717.22 172.66 716.96 172.63 716.63 172.49 716.08 172.22 715.08 171.94 714.06 171.79 713.45 171.71 712.97 171.63 712.04 171.54 710.54 171.39 708.78 171.17 706.5 170.92 703.78 170.71 701.11 170.54 698.77 170.45 696.65 170.35 694.63 170.31 692.91 170.29 691.58 170.28 690.07 170.25 688.2 170.26 686.7 170.42 685.66 170.55 685.36 170.39 681.74 170.39 681.73 169.68 679.82 169.48 678.2 169.42 676.57 169.37 674.51 169.31 672.66 169.23 671.17 169.11 669.78 169 668.17 168.89 666.3 168.83 664.98 168.8 664.24 168.78 663.65 168.77 663.07 168.75 662.38 168.75 661.56 168.74 660.67 168.72 659.82 168.71 659.13 168.69 658.7 168.66 658.27 168.6 657.57 168.54 656.68 168.46 655.73 168.35 654.77 168.2 653.86 168.06 653.14 168.01 652.59 168.01 652.37 168.01 651.71 167.97 650.14 167.94 648.49 167.95 647.34 168.01 645.96 168.12 643.72 168.21 641.27 168.23 639.31 168.15 637.71 168.05 636.22 167.92 634.97 167.8 634.17 167.71 633.49 167.57 632.63 167.41 631.66 167.26 630.71 167.15 629.98 167.08 629.49 166.97 628.8 166.77 627.67 166.58 626.55 166.44 625.69 166.34 624.87 166.2 623.79 166.04 622.47 165.89 621.18 165.72 619.73 165.47 618.01 165.21 616.24 164.9 614.5 164.6 613.2 164.38 612.48 164.17 611.77 163.8 610.63 163.35 609.2 162.93 607.81 162.66 606.8 162.5 606.24 162.35 605.66 162.01 604.55 161.5 603.03 161.01 601.53 160.46 600.1 159.79 598.51 159.07 596.87 158.52 595.67 158.24 595.1 158.04 594.73 157.7 594.08 157.18 593.1 156.54 591.91 155.93 590.69 155.28 589.45 154.56 588.06 153.79 586.52 153.25 585.15 152.83 583.92 152.4 582.75 151.93 581.75 151.46 580.93 151.05 580.22 150.42 579.18 149.45 577.53 148.55 576.01 148.09 575.24 147.85 574.85 147.45 574.2 146.85 573.23 146.4 572.51 146.14 572.13 145.94 571.85 145.72 571.57 145.44 571.22 145.11 570.8 144.72 570.34 144.3 569.79 143.86 569.19 143.34 568.54 142.78 567.89 142.57 567.63 141.4 566.32 140.02 564.81 138.76 563.47 137.79 562.52 136.85 561.63 135.87 560.59 134.99 559.66 133.99 558.64 132.82 557.52 132.05 556.78 131.63 556.36 131.06 555.84 130.02 554.88 128.31 553.39 126.17 551.56 123.92 549.6 122.06 548.09 120.6 546.98 118.87 545.63 116.61 543.8 114.48 542.18 112.97 541.06 111.54 540.04 109.91 538.9 108.52 537.95 107.52 537.27 106.62 536.67 105.65 536.01 104.78 535.42 104.01 534.93 103.26 534.41 102.47 533.82 101.72 533.27 101.15 532.87 100.6 532.5 100.03 532.08 99.6 531.77 98.99 531.43 97.95 530.83 96.79 530.11 95.78 529.46 94.76 528.86 93.68 528.29 92.93 527.89 92.42 527.63 91.56 527.17 90.03 526.37 88.28 525.52 87.11 524.97 86.48 524.66 85.25 524.04 84.74 523.78 83.49 523.17 83.31 523.07 82.75 522.81 82.14 522.52 81.49 522.23 80.97 521.98 80.4 521.66 80.07 521.47 79.57 521.18 78.63 520.72 78.58 520.73 78.41 520.61 77.72 520.32 76.75 519.84 75.59 519.24 75.5 519.2 74.18 518.55 72.48 517.69 70.68 516.64 69.16 515.59 68.14 514.78 67.63 514.31 67.43 514.15 67.23 513.96 66.2 513.34 64.48 512.39 62.6 511.4 62.48 511.33 60.63 510.4 59.03 509.63 57.98 509.14 57.16 508.7 56.04 508.03 54.36 507.03 52.53 506 50.64 504.95 48.67 503.81 46.97 502.88 45.68 502.17 44.62 501.54 43.65 500.87 42.51 500.01 41.17 498.96 39.77 497.84 39.32 497.46 38.26 496.53 36.69 494.96 35.1 493.3 33.55 491.65 32.18 490.24 31.04 489.1 30.04 488.08 29.19 487.22 28.45 486.43 27.63 485.52 26.68 484.49 25.79 483.51 25 482.61 24.31 481.81 23.69 481.09 23.12 480.43 22.71 479.9 22.48 479.6 22.35 479.4 22.25 479.26 22.06 479.01 21.66 478.55 20.98 477.76 20 476.66 18.84 475.36 17.7 474.07 16.73 472.99 16.09 472.24 15.69 471.67 15.36 471.16 14.98 470.68 14.53 470.21 14.07 469.62 13.58 468.91 13.05 468.08 12.52 467.22 11.96 466.33 11.44 465.52 11.08 465 10.71 464.45 10.15 463.54 9.56 462.54 9.07 461.74 8.62 461.03 8.14 460.11 7.64 458.78 7.16 457.37 6.77 456.06 6.37 454.78 6.05 453.47 5.7 452.04 5.22 450.42 5.16 450.21 4.76 449.01 4.46 448.16 4.26 447.65 4.06 447.16 3.85 446.62 3.63 445.83 3.4 444.8 3.19 444 3.02 443.46 2.83 442.89 2.62 442.15 2.37 441.21 2.09 440.01 1.82 438.57 1.59 437.21 1.43 436.07 1.34 435.13 1.28 434.41 1.22 433.75 1.18 433.01 1.17 432.09 1.14 431.07 1.12 430.13 1.12 429.31 1.12 428.24 1.12 426.88 1.12 425.97 1.09 425.42 1.05 424.73 1.02 423.77 1 422.39 1.02 420.55 1.05 418.86 1.09 417.4 1.14 415.67 1.2 413.56 1.34 411.61 1.57 409.59 1.85 407.14 2.12 404.5 2.45 402.29 2.77 400.75 2.99 399.72 3.23 398.66 3.54 397.35 3.73 396.23 3.77 395.43 3.77 394.77 3.79 394.09 3.94 393.1 4.23 391.86 4.48 390.73 4.65 389.73 4.83 388.78 5.1 387.65 5.4 386.3 5.71 385.07 5.79 384.82 6.25 383.11 6.73 381.23 7.2 379.32 7.65 377.52 8.07 376 8.45 374.87 8.74 374.18 8.98 373.73 9.18 373.38 9.38 373.06 9.56 372.78 9.76 372.46 10.13 371.9 10.64 371.15 11.01 370.55 11.38 369.93 11.84 369.19 12.12 368.64 12.22 368.22 12.3 367.68 12.41 367.11 12.55 366.58 12.7 365.98 12.85 365.31 13.09 364.64 13.62 363.65 14.52 362.14 15.38 360.63 16.09 359.39 16.83 358.2 17.81 356.69 18.97 354.89 20.03 353.29 21.18 351.81 21.6 351.38 22.71 350.21 24.17 348.82 25.13 348.02 26.11 347.39 27.67 346.53 29.17 345.65 30.1 345.05 31.04 344.44 32.65 343.53 34.44 342.63 34.9 342.45 35.92 342.02 37.52 341.46 46.03 337.97 47.88 337.6 49.97 336.97 51.61 336.43 52.68 336.09 53.48 335.89 54.12 335.75 54.65 335.66 55.16 335.6 55.87 335.51 57.32 335.26 58.57 335.04 59.35 334.89 60.77 334.66 61.48 334.58 62.01 334.55 62.43 334.55 62.71 334.54 63.14 334.54 64.18 334.48 66.09 334.24 68.5 333.83 70.28 333.49 71.27 333.29 71.85 333.18 72.33 333.09 72.91 332.98 79.58 331.75 80.66 331.55 81.74 331.38 82.83 331.21 84.8 330.83 87.62 330.24 89.68 329.81 90.7 329.58 91.31 329.43 92.02 329.26 93.24 328.98 95.48 328.49 98.32 327.87 100.12 327.44 101.06 327.18 102.12 326.93 103.4 326.76 104.69 326.68 105.89 326.7 106.89 326.75 107.65 326.72 108.32 326.61 108.99 326.48 109.7 326.42 110.7 326.41 111.99 326.38 113.3 326.36 114.42 326.36 115.11 326.38 115.7 326.41 116.92 326.44 118.67 326.5 120.03 326.55 120.93 326.59 122.01 326.65 123.78 326.73 126.01 326.81 127.82 326.92 128.97 327.02 129.94 327.12 131.03 327.19 132.28 327.27 133.62 327.36 134.98 327.45 136.31 327.56 137.65 327.65 138.95 327.76 140.16 327.87 141.36 328.04 142.8 328.27 144.34 328.53 145.24 328.7 145.64 328.79 146.12 328.93 147.03 329.18 148.49 329.53 148.79 329.58 150.29 329.9 151.88 330.23 153.48 330.53 155.3 330.8 156.91 330.98 158.52 331.13 160.3 331.35 161.67 331.49 162.52 331.6 163.09 331.67 163.58 331.72 164.2 331.77 164.9 331.83 165.63 331.89 166.37 331.95 167.08 332 167.75 332.01 168.34 332.04 168.95 332.17 169.8 332.38 170.69 332.61 171.49 332.8 172.31 332.97 172.94 333.1 173.6 333.24 174.45 333.4 175.22 333.52 176.3 333.64 178.5 333.95 181.46 334.38 183.64 334.69 184.61 334.8 185.15 334.86 185.95 334.95 187.64 335.2 190.12 335.57 192.09 335.8 193.42 335.91 194.73 336.01 196.11 336.15 197.42 336.25 198.65 336.35 199.9 336.48 200.93 336.55 201.67 336.62 202.22 336.65 202.69 336.66 203.35 336.63 204.49 336.55 205.93 336.49 207.58 336.38 209.75 336.21 212.15 335.94 213.74 335.63 218.14 335.11 220.27 334.97 221.47 334.81 222.04 334.75 222.82 334.66 223.92 334.52 225.15 334.29 225.66 334.17 226.55 333.95 227.95 333.61 229.2 333.37 230.32 333.2 231.46 333.06 232.75 333 234.23 333.03 234.8 333.04 235.57 333.07 236.36 333.1 236.7 333.1 237.02 333.1 237.65 333.1 238.64 333.1 239.67 333.06 240.81 332.84 242.39 332.43 243.98 331.98 245.12 331.6 246.21 331.1 247.44 330.52 248.46 330.04 249.07 329.78 249.46 329.64 249.83 329.52 250.23 329.39 250.81 329.21 251.45 328.98 251.92 328.82 252.18 328.75 252.35 328.69 252.52 328.59 252.83 328.41 253.35 328.12 253.97 327.75 254.63 327.36 255.4 326.96 256.31 326.47 257.34 325.76 258.4 324.62 259.85 323.36 262.11 322.53 264.41 321.76 265.67 321.17 266.15 320.91 266.49 320.7 267.21 320.17 268.89 319.03 271.27 317.59 273.45 316.65 274.15 316.35 274.86 316.05 275.31 315.15 275.37 314.45 275.74 313.89 276.6 312.95 277.77 311.7 279.07 310.32 280.59 308.69 281.48 307.75 282.21 306.99 283.44 305.68 284.24 304.84 284.87 304.15 285.78 303.18 286.95 301.94 287.58 301.28 287.81 301.07 288.43 300.43 289.09 299.76 289.66 299.2 290.26 298.62 291.17 297.77 292.15 296.88 293 296.09 293.88 295.18 294.89 294.01 295.92 292.72 296.99 291.35 298.19 289.83 299.45 288.15 300.68 286.41 301.87 284.73 302.77 283.42 303.33 282.64 303.85 281.9 304.65 280.74 305.59 279.33 306.45 278.02 307.18 276.86 307.86 275.76 308.47 274.74 309.12 273.66 309.8 272.43 310.47 271.24 311.01 270.26 311.29 269.75 314.01 260.96 314.04 260.5 314.12 259.87 314.23 259.17 314.41 258.37 314.65 257.4 314.91 255.93 315.17 252.75 315.41 247.21 315.52 241.28 315.35 237.1 315.03 234.42 314.72 232.71 314.54 231.8 311.75 223.15 311.35 221.35 310.81 219.04 310.16 216.28 309.64 214.13 309.33 212.82 309.01 211.46 308.47 209.24 307.79 206.35 307.18 203.76 306.75 201.96 306.58 201.16 306.55 200.96 306.45 200.41 306.36 199.93 306.29 199.55 306.19 199.3 306.1 199.15 305.96 198.93 305.76 198.59 305.52 198.04 305.19 197.1 304.84 195.84 304.55 194.88 304.38 194.25 304.21 193.71 304.05 193.13 303.87 192.45 303.68 191.69 303.5 190.97 303.31 190.26 303.16 189.62 302.99 188.97 302.77 188.23 302.51 187.43 302.31 186.74 302.11 186.01 301.82 185.03 301.44 183.7 300.91 182.1 300.57 181.16 300.19 180.22 299.99 179.81 299.66 179.3 299.46 178.93 299.34 178.64 299.26 178.36 299.14 178.07 298.93 177.73 298.68 177.34 298.48 176.96 298.28 176.54 298.11 176.14 297.99 175.87 297.89 175.64 297.77 175.34 297.59 174.93 297.56 174.85 297.36 174.33 297.05 173.37 296.76 172.42 296.49 171.4 296.35 170.86 295.95 169.28 295.26 168.26 295.02 167.89 294.88 167.71 294.32 166.97 293.8 166.35 293.14 165.57 292.29 164.44 291.52 163.35 290.75 162.27 289.97 161.19 284.76 152.83 284.22 151.74 283.68 150.77 283.05 149.79 282.25 148.59 281.25 147.12 280.13 145.51 279.11 144.1 278.19 142.89 277.26 141.72 276.29 140.55 275.26 139.42 274.77 138.95 274.26 138.47 273.37 137.7 272.69 137.21 272.29 136.95 272.04 136.79 271.88 136.64 271.66 136.47 271.27 136.13 270.63 135.48 269.94 134.74 269.38 134.08 268.89 133.4 268.32 132.59 267.69 131.6 264.55 128.94 264.04 128.77 263.62 128.52 263.21 128.22 262.75 127.86 262.27 127.48 261.73 127.03 261.19 126.55 260.61 126.03 259.71 125.37 258.07 124.17 255.91 122.54 254.37 121.3 253.59 120.67 253.06 120.41 247.23 116.24 244.89 114.58 243.42 113.68 242.45 113.13 241.47 112.59 240.28 111.97 240.08 111.87 239.59 111.62 239.62 111.57 249.38 97.93 253.05 92.82 253.99 91.7 254.82 90.68 255.51 89.88 256.16 89.11 256.82 88.34 257.4 87.71 257.71 87.4 258.08 87.06 258.51 86.65 258.79 86.34 259.14 86 259.67 85.54 260.17 85.06 260.73 84.55 261.5 83.95 262.41 83.29 263.33 82.58 264.19 81.95 264.98 81.34 265.75 80.64 266.46 80 267.1 79.35 267.13 79.33 267.81 78.61 268.5 77.83 269.21 76.98 269.94 76.05 270.03 75.93 270.64 75.13 271.21 74.36 271.38 74.13 271.55 73.9 271.83 73.45 272.28 72.76 272.8 72.02 273.25 71.41 273.6 70.87 273.86 70.42 274.02 70.05 274.12 69.73 274.2 69.47 274.25 69.25 274.29 69.05 274.32 68.82 274.37 68.57 274.4 68.37 274.42 68.28 274.42 68.26 274.42 68.22 274.43 68.16 274.45 68.05 274.45 68.02 274.48 67.73 274.51 67.33 274.52 67.09 274.52 66.93 274.55 66.56 274.57 66.29 274.59 66.16 274.59 66.06 274.6 65.97 274.62 65.83 274.63 65.65 274.63 65.62 274.63 65.35 274.62 65 274.59 64.62 274.54 64.23 274.49 63.86 274.42 63.45 274.32 62.98 274.17 62.45 274 61.88 273.75 61.23 273.4 60.44 273 59.6 272.6 58.77 272.28 58.04 272.01 57.52 271.74 56.99 271.4 56.36 271.09 55.76 270.84 55.22 270.55 54.56 270.21 53.81 269.97 53.15 269.83 52.44 269.72 51.58 269.7 51.39 269.64 50.96 269.58 50.56 269.52 50.22 269.44 49.93 269.35 49.54 269.24 48.85 269.12 47.88 269.04 47.16 269.01 46.73 268.98 46.45 268.95 46.2 268.9 45.76 268.86 44.92 268.77 43.92 268.67 43 268.63 42.25 268.61 41.4 268.6 40.32 268.58 39.23 268.57 38.49 268.57 37.9 268.58 37.07 268.78 36.16 269.13 35.32 269.29 34.26 269.29 33.07 269.23 32.16 269.01 31.44 268.61 30.76 268.53 30.59 268.37 30.21 268.29 29.73 268.29 29.22 268.27 28.68 268.24 28 268.2 27.25 268.16 26.6 268.12 25.96 268.06 25.14 267.96 24.29 267.81 23.26 267.56 21.85 267.24 20.23 266.92 18.58 266.63 17.01 266.41 15.53 266.27 14.04 266.15 12.62 266.07 11.45 266.06 10.73 266.09 10.33 266.1 10.05 266.09 9.82 266.07 9.56 266.02 9.05 265.9 8.17 265.52 7.22 264.76 6.53 269.06 4.09 269.4 3.91 271.63 3.14 275.66 1.75 276.66 1.42 277.23 1.31 277.79 1.2 278.34 1.12 278.91 1.06 279.5 1.03 279.51 1.02 280.16 1.02 280.8 1 281.39 1 281.91 1.02 282.47 1.02 282.91 1.02 283.38 1 283.78 1.02 Z"/>
</g>
</svg>