<?xml version="1.0"?>
<svg xmlns="http://www.w3.org/2000/svg" version="1.2" baseProfile="tiny" width="800" height="951" viewBox="0 0 800 951" stroke-linecap="round" stroke-linejoin="round">
<g id="Thủ Đức (phường xã)">
<path d="M 260.34 410.72 264.2 415.82 271.88 425.96 272.43 426.56 275.11 429.48 277.25 431.82 287.71 436.03 300.94 439.71 303.29 442.98 305.26 445.73 305.8 446.48 306.56 447.13 310.62 450.63 312.05 451.86 322.67 458.33 330.9 462.61 334.27 464.37 345.3 467.15 351.63 467.46 353.29 467.56 354.04 467.59 357.04 467.79 357.67 467.84 357.78 467.85 363.71 468.74 364.65 468.88 366.69 468.92 380.71 462.73 381.21 466.19 384.88 473.82 391.22 484.34 397.62 494.92 396.37 500.62 390.35 513.2 384.6 520.81 386.13 520.92 392.5 525.3 393.38 525.94 392.49 526.83 391.43 527.97 388.66 531.33 383.44 538.6 381.99 540.83 372.28 557.1 367.06 564.45 353.88 587.4 341.58 608.99 335.21 620.54 334.99 620.95 333.84 623.03 332.5 625.47 318.03 651.53 317.61 652.28 314.97 656.89 305.12 674.03 302.3 679.32 301.28 681.36 298.59 685.94 298.57 685.99 288.33 703.48 282.31 713.83 272.13 731.73 263.79 747.63 256.99 759.63 251.17 769.27 237.35 794.25 231.11 804.87 222.93 818.99 220.14 825.01 215.74 836.92 212.19 850.15 208.63 866.4 206.83 876.08 206.64 876.89 204.43 887.32 203.85 890.72 202.18 900.6 200.7 907.9 198.83 918.64 198.27 921.76 195.99 933.88 194.59 941.36 193.5 947.22 193.48 947.35 192.67 947.3 192.37 947.25 192.15 947.21 191.67 947.07 191.2 946.95 189.74 946.81 188.51 946.82 188.5 946.82 188.14 946.85 187.98 946.86 186.76 947.06 186.21 947.1 182.81 947.05 178.32 945.91 177.6 945.78 176.76 945.73 176.28 945.78 174.25 946.14 173.45 946.33 171.98 946.86 171.1 947.08 170.12 947.2 168.4 947.27 161.27 947.54 157.86 947.67 139.16 948.67 132.53 950.04 125.27 949.85 125.77 948.11 126.08 947.07 126.63 943.27 127.72 933.72 128.68 925.37 129.23 920.66 128.88 883.35 129.05 862.95 129.35 828.24 129.49 810.97 129.47 783.24 127.85 768.14 118.98 750.01 118.59 749.22 117.84 747.68 117.69 747.37 114.46 742.57 106.44 729.49 106.26 729.19 106.11 728.96 106.03 728.83 105.85 728.54 105.74 728.36 105.59 728.17 105.06 727.62 103.89 726.46 102.24 725.04 100.5 723.75 98.96 722.64 97.43 721.53 95.7 720.29 94.05 718.94 92.58 717.65 91.45 716.69 90.83 716.16 90.47 715.8 90.08 715.39 89.68 714.99 89.39 714.68 89.12 714.44 88.81 714.2 88.46 713.94 88.09 713.68 87.75 713.44 87.45 713.23 87.08 712.93 86.48 712.45 85.74 711.9 84.92 711.39 83.92 710.78 82.69 709.99 81.38 709.18 80.04 708.41 79.37 708.07 80.58 706.09 87.73 694.36 88.92 692.43 89.18 692.11 89.56 691.63 89.82 691.31 89.96 691.15 89.98 691.12 90.08 691 90.4 690.6 90.86 690.04 91.29 689.51 91.64 689.08 91.85 688.85 92.03 688.72 92.25 688.54 92.5 688.31 92.77 687.93 93.08 687.39 93.12 687.35 93.52 686.76 94.08 686.13 94.7 685.52 95.23 685.01 95.56 684.68 95.78 684.47 95.97 684.32 96.19 684.17 96.48 683.98 96.84 683.77 97.25 683.53 97.77 683.28 98.32 683.03 98.74 682.85 99.16 682.68 99.74 682.47 99.92 682.41 100.31 682.27 100.83 682.07 101.26 681.83 101.61 681.56 101.94 681.3 102.26 681.08 102.49 680.91 102.69 680.74 102.89 680.57 103.03 680.45 103.15 680.35 103.44 680.11 103.47 680.08 103.88 679.69 104.1 679.47 104.21 679.31 104.3 679.19 104.64 678.81 104.83 678.28 104.89 678.03 104.97 677.67 105.04 677.32 105.07 676.96 105.11 676.6 105.1 676.21 105.05 675.84 104.99 675.49 104.93 675.15 104.86 674.82 104.76 674.49 104.62 674.16 104.38 673.81 104.09 673.43 103.83 673.09 103.55 672.76 103.21 672.41 102.86 672.12 102.44 671.86 101.79 671.5 100.9 670.96 99.92 670.32 99.87 670.29 98.85 669.62 97.97 669.02 97.36 668.62 97.23 668.53 96.57 668.13 96.4 668.02 96.39 668.02 95.63 667.54 95.26 667.32 94.56 666.91 93.99 666.57 93.57 666.32 93.14 666.1 92.71 665.87 92.19 665.62 91.62 665.36 91.3 665.23 91.1 665.15 90.68 665.02 90.32 664.93 89.92 664.84 89.41 664.79 88.85 664.77 88.38 664.79 88.11 664.8 87.91 664.81 87.29 664.88 86.64 665.01 85.95 665.16 85.18 665.28 84.43 665.38 83.68 665.49 82.89 665.63 82.14 665.83 81.42 666.05 81.05 666.18 80.8 666.26 80.77 666.28 80.23 666.44 79.62 666.62 79.11 666.72 78.74 666.77 78.71 666.77 78.43 666.76 78.16 666.72 77.92 666.69 77.67 666.65 77.5 666.63 77.07 666.6 76.62 666.43 76.31 666.29 75.86 666.08 75.4 665.87 74.99 665.65 74.65 665.44 74.43 665.28 74.36 665.22 74.07 665 73.8 664.77 73.56 664.54 73.34 664.3 73.15 664.03 72.98 663.72 72.84 663.38 72.73 663.08 72.67 662.79 72.59 662.44 72.49 662.02 72.44 661.56 72.4 661.09 72.37 660.59 72.34 660.07 72.35 659.58 72.39 659.18 72.46 658.9 72.53 658.63 72.6 658.33 72.67 658.02 72.76 657.65 72.91 657.21 73.08 656.73 73.26 656.26 73.43 655.85 73.63 655.46 73.81 655.14 73.96 654.91 74.15 654.64 74.42 654.27 74.76 653.87 75.1 653.49 75.38 653.11 75.59 652.81 75.82 652.5 76.08 652.07 76.35 651.6 76.64 651.11 76.86 650.63 77.06 650.12 77.25 649.59 77.43 649.09 77.57 648.62 77.69 648.14 77.77 647.67 77.81 647.23 77.84 646.89 77.86 646.66 77.86 646.54 77.88 646.1 77.88 645.63 77.86 645.18 77.82 644.76 77.79 644.44 77.75 644.24 77.7 644.06 77.67 643.76 77.63 643.35 77.61 642.92 77.62 642.49 77.67 642.13 77.73 641.84 77.82 641.54 77.95 641.23 78.13 640.89 78.34 640.55 78.58 640.23 78.83 639.93 79.1 639.62 79.41 639.33 79.76 639.06 80.13 638.82 80.51 638.61 80.87 638.46 81.24 638.38 81.55 638.33 81.87 638.29 82.03 638.28 82.16 638.28 82.44 638.29 82.8 638.34 83.24 638.44 83.75 638.55 84.22 638.67 84.67 638.78 85.14 638.88 85.51 638.96 85.72 639.02 85.88 639.07 86.06 639.1 86.29 639.16 86.55 639.21 86.88 639.25 87.27 639.25 87.68 639.23 88.1 639.22 88.53 639.17 88.97 639.08 89.32 638.99 89.67 638.88 90.06 638.73 90.43 638.58 90.76 638.41 91.05 638.24 91.31 638.07 91.54 637.9 91.72 637.72 91.86 637.6 91.98 637.51 92.09 637.44 92.19 637.36 92.32 637.26 92.47 637.15 92.64 637.02 92.8 636.89 92.85 636.86 92.98 636.76 93.12 636.65 93.26 636.56 93.39 636.46 93.53 636.37 93.64 636.29 93.73 636.22 93.84 636.15 94.02 636.04 94.26 635.9 94.52 635.74 94.75 635.56 94.97 635.37 95.27 635.1 95.42 634.95 95.68 634.69 96.02 634.14 96.12 633.66 96.12 633.64 96.13 633.32 96.09 633.09 95.98 632.77 95.83 632.41 95.64 632.02 95.52 631.8 95.45 631.67 95.31 631.4 95.17 631.11 94.96 630.73 94.73 630.27 94.49 629.81 94.27 629.34 94.07 628.87 93.88 628.37 93.68 627.83 93.53 627.35 93.4 626.9 93.24 626.43 93.12 626.02 93.03 625.61 92.91 625.14 92.79 624.65 92.7 624.1 92.66 623.51 92.67 622.93 92.7 622.34 92.72 621.75 92.76 621.17 92.77 621.03 92.8 620.59 92.84 619.98 92.87 619.3 92.89 618.6 92.86 618.02 92.83 617.39 92.74 616.34 92.6 615.01 92.52 614.19 92.47 613.7 92.35 612.44 92.23 611.25 92.18 610.47 92.2 609.95 92.23 609.49 92.24 609.32 92.26 609.07 92.36 608.75 92.45 608.45 92.53 608.01 92.72 607.5 93.05 607.12 93.32 606.92 93.53 606.78 93.75 606.71 94.03 606.68 94.39 606.59 94.79 606.49 95.18 606.43 95.24 606.42 95.68 606.4 96.09 606.4 96.39 606.38 96.6 606.38 96.84 606.38 97.05 606.38 97.71 606.37 98.22 606.61 98.38 606.68 98.63 606.83 98.94 607.01 99.24 607.18 99.5 607.35 99.75 607.52 100.01 607.7 100.32 607.87 100.7 608.05 101.06 608.23 101.4 608.37 101.64 608.44 102.11 608.58 102.66 608.6 102.82 608.59 103.08 608.55 103.34 608.52 103.56 608.45 103.81 608.32 104.05 608.13 104.27 607.97 104.3 607.93 104.46 607.79 104.49 607.77 104.7 607.55 104.93 607.3 105.15 607.09 105.33 606.88 105.53 606.68 105.72 606.48 105.9 606.24 106.04 605.93 106.14 605.53 106.14 605.06 105.98 604.65 105.73 604.41 105.64 604.33 105.57 604.27 105.49 604.08 105.47 603.76 105.49 603.37 105.5 603.1 105.53 602.84 105.59 602.43 105.67 601.87 105.76 601.17 105.84 600.27 105.92 599.23 106 598.19 106.07 597.39 106.12 596.94 106.14 596.74 106.17 596.6 106.2 596.4 106.26 596.07 106.34 595.57 106.45 594.95 106.52 594.46 106.59 594.04 106.68 593.47 106.81 592.76 106.92 592.19 106.99 591.85 107.02 591.6 107.06 591.38 107.09 591.18 107.12 590.99 107.14 590.84 107.09 590.82 104.46 589.61 95.92 586.25 72.65 577.71 58.24 570.34 50.53 567.83 47.01 563.97 45.51 562.13 42.33 559.78 39.99 558.95 36.13 558.12 28.59 556.95 24.75 555.6 18.21 555.6 10 556.28 4.82 555 4.77 554.92 4.86 554.89 5.15 554.65 5.31 554.53 5.41 554.45 5.51 554.36 5.7 554.16 5.72 554.14 5.86 553.88 5.96 553.58 5.99 553.44 6.01 553.38 6.06 553.2 6.14 552.87 6.21 552.6 6.27 552.38 6.28 552.33 6.31 552.16 6.35 551.92 6.38 551.65 6.41 551.26 6.42 550.73 6.42 550.68 6.41 550.25 6.4 549.74 6.37 549.14 6.34 548.62 6.3 548.16 6.28 547.58 6.28 546.88 6.29 546.16 6.3 545.45 6.34 544.72 6.37 544.11 6.42 543.55 6.43 542.96 6.43 542.36 6.43 541.78 6.43 541.26 6.41 540.85 6.38 540.49 6.36 540.14 6.31 539.85 6.24 539.58 6.14 539.31 6.01 539.03 5.89 538.73 5.75 538.42 5.58 538.12 5.4 537.81 5.25 537.52 5.08 537.21 4.91 536.88 4.71 536.55 4.71 536.54 4.47 536.13 4.23 535.59 3.96 534.99 3.7 534.38 3.43 533.76 3.18 533.13 2.95 532.45 2.71 531.73 2.45 530.86 2.45 530.83 2.21 529.84 1.96 528.78 1.72 527.76 1.54 526.99 1.43 526.59 1.38 526.31 1.28 525.95 1.12 525.5 1 524.87 1.04 524.19 1.12 523.66 1.16 523.18 1.19 522.73 1.23 522.3 1.28 521.85 1.36 521.34 1.49 520.75 1.62 520.22 1.75 519.7 1.97 519.04 2.23 518.31 2.5 517.57 2.77 516.85 3.02 516.14 3.23 515.52 3.43 514.93 3.62 514.38 3.8 513.89 3.99 513.45 4.24 512.94 4.52 512.36 4.73 511.99 4.91 511.73 5.06 511.41 5.18 511.08 5.25 510.8 5.29 510.53 5.42 510.11 5.66 509.42 5.88 508.66 6.12 507.83 6.4 506.95 6.61 506.27 6.75 505.71 6.97 505.03 7.25 504.2 7.49 503.51 7.62 503.13 7.71 502.9 7.96 502.27 8.16 501.78 8.32 501.42 8.51 501.01 8.74 500.51 8.92 500.21 9.01 500.08 9.06 500.03 9.1 500.01 9.18 499.97 9.28 499.93 9.38 499.89 9.44 499.86 9.45 499.86 9.49 499.82 9.54 499.79 9.6 499.7 9.71 499.55 9.88 499.22 10.12 498.77 10.3 498.41 10.42 498.18 10.53 497.94 10.69 497.59 10.9 497.12 11.04 496.79 11.11 496.62 11.16 496.48 11.23 496.33 11.3 496.15 12.46 494.96 12.98 493.82 13.45 493.01 14.33 491.1 15.16 488.99 15.45 488.28 15.58 487.78 15.63 487.61 15.71 487.22 15.75 487.05 15.76 486.65 15.76 486.29 15.75 485.64 15.72 484.61 15.61 484.22 13.88 478.42 13.79 476.73 14.25 475.5 15.51 474.33 15.56 474.29 15.86 474.08 17.66 472.86 18.66 471.78 19.09 470.77 19.44 469.96 19.44 469.95 19.78 469.25 20.38 467.41 20.85 465.63 20.99 465.12 21.44 463.03 21.55 462.53 21.67 461.09 21.7 460.84 21.72 460.6 21.73 459.77 21.73 459.32 21.74 458.67 21.75 457.46 22.15 455.16 22.19 455.03 22.23 454.95 22.29 454.88 22.55 454.65 23.09 450.89 23.3 449.44 23.33 448.85 23.35 448.21 23.22 447.27 22.9 446.23 22.23 444.86 21.06 443.29 19.85 442.3 19.82 442.28 19.9 442.02 20.03 440.96 20.21 439.55 20.73 432.07 21.19 422.86 21.28 420.89 21.1 419.83 20.87 419.47 21.18 419.15 24.76 415.41 25.51 415.23 25.65 414.51 29.68 409.09 31.22 407.19 33.13 403.43 34.01 401.09 34.78 399.08 35.02 398.45 35.69 398.56 36.35 398.86 37.1 399.34 37.78 399.51 38.44 399.45 40.37 398.59 41.78 398.13 44.78 397.44 46.38 397.11 48.89 396.72 51.31 396.51 53.05 396.7 54.94 397.05 58.77 397.25 62.46 397.47 65.84 397.24 68.03 396.67 69.48 396.3 71.03 397.92 73.06 400.12 74.62 401.58 75.37 401.99 77.06 402.26 79.76 402.25 81.41 402.19 85.27 402.04 88.74 401.71 89.34 401.65 93.27 407.88 94.21 409.37 94.67 410.22 95.16 411.13 95.61 411.96 96.32 411.6 97.55 410.81 98.46 410.62 98.97 410.52 99.64 410.35 100.72 410.08 101.29 409.94 101.92 409.79 102.34 409.68 102.8 409.57 104.77 409.11 105.5 408.85 105.83 408.77 105.71 408.43 106.18 408.27 106.44 408.18 106.87 408.03 107.25 407.91 107.44 407.85 110.54 407.17 110.57 407.17 114.32 406.44 114.34 406.42 116.08 406.09 116.74 406.06 121.43 405.47 122.9 405.48 122.92 405.48 124.74 405.53 126.54 406.72 127.61 407.77 128.35 408.84 129.29 410.2 130.66 410.88 131.11 411.1 131.13 409.51 239.9 386.69 245.53 390.55 248.32 392.3 250.05 394.89 251.95 399.57 257.15 406.52 260.34 410.72 Z"/>
</g>
<g id="Linh Xuân (phường xã)">
<path d="M 340.97 1 343.8 4.99 347.06 11.42 350.68 14.96 351.33 15.55 353.43 17.11 353.54 17.19 355.04 18.26 355.56 18.83 355.96 19.26 356.74 20.6 357.36 22 357.95 23.3 358.29 25.71 358.38 26.44 358.59 28.08 359.01 29.64 359.25 30.07 359.73 30.92 360.27 31.69 360.93 32.63 364.14 35.48 365.56 36.69 366.15 37.1 368.82 39.01 369.98 39.83 371.47 40.83 371.73 41.16 372.33 41.97 372.96 43.39 373.15 44.01 373.25 44.3 373.53 44.81 374.28 45.42 375.03 45.85 375.49 46.12 376.2 46.77 376.78 47.41 376.91 47.71 377.3 48.59 377.83 49.75 378.76 51.25 382.45 54.73 386.3 58.44 388.04 59.95 388.58 60.43 390.54 61.75 392.32 63.32 393.81 65.17 394.6 66.1 395.24 66.52 396.59 66.96 398.61 67.93 398.95 68.25 399.88 69.09 399.95 69.15 400.89 70.01 403.34 72.8 405.75 75.17 409.53 77.73 411.48 79.76 413.24 83.38 414.07 87.01 415.16 88.95 417.82 92.53 419.06 93.52 419.56 94.7 419.65 96.05 420.68 97.86 421.76 99.87 424.4 103.71 425.12 104.79 430.51 107.77 432.81 110.34 442.35 121.03 450.97 127.67 457.18 134.58 463.38 141.35 469.88 146.44 472.39 153.89 475.97 161.24 477.4 166.96 478.77 169.15 478.61 174.72 477.97 182.54 477.86 186.07 479.04 187.43 483.63 189.56 486.04 192.61 487.44 200.63 487.47 205.67 487.28 207.79 486.38 218.05 485.31 225.01 485.97 230.5 485.51 234.1 483.1 238.61 482.8 239.97 482.58 241.79 481.81 243.74 480.29 246.38 478.81 249.05 477.32 253.27 476.72 254.29 475.13 254.95 474.38 255.57 474.33 256.44 475.4 259.01 475.48 259.63 474.84 260.24 472.38 259.9 471.96 260.31 471.7 261.39 472.02 264.08 471.69 265.93 470.86 269.37 470.09 270.32 468.92 271.22 468.66 272.3 468.95 273.25 469.86 274.79 469.89 275.87 469.26 278.13 468.32 282.46 468.1 283.51 466.73 287.31 466.39 288.16 465.83 289.54 465.74 291.29 466.05 292.79 465.29 293.91 464.99 294.37 464.66 295.3 463.58 298.38 463.42 298.86 463.17 299.57 467.14 300.85 469.04 301.46 469.67 301.68 477.33 304.46 488.78 308.06 500.87 310.71 513.01 311.96 529.41 312.73 551.67 313.42 564.95 313.95 567.47 314.13 565.79 313.19 558.99 309.36 555.7 306.82 554.79 304.64 555.65 289.46 556.84 280.66 556.91 280.1 559.96 271.75 568.4 257.98 574 257.92 578.8 257.9 584.47 257.83 591.66 257.79 593.06 257.77 595.29 257.74 598.59 257.72 606.08 257.68 606.01 253.73 606 252.7 606 252.22 606.08 251.97 606.36 251.7 606.51 251.55 607.28 251.24 608.19 251.03 609.21 250.82 610.89 250.65 612.99 250.42 614.12 250.28 614.55 250.22 614.57 250.43 614.69 251.57 616.19 251.57 616.41 251.57 617.47 251.54 618.12 251.54 618.77 251.51 619.82 251.49 621.37 251.38 621.38 251.38 624.62 251.44 624.66 250.97 624.67 250.97 624.69 250.97 624.7 250.96 624.71 250.96 624.72 250.96 624.73 250.96 624.74 250.95 624.76 250.95 624.77 250.95 624.78 250.94 624.79 250.94 624.79 250.93 624.8 250.93 624.81 250.93 624.83 250.92 624.84 250.9 624.85 250.9 624.85 250.89 624.86 250.89 624.87 250.89 624.87 250.88 624.89 250.88 624.9 250.87 624.91 250.86 624.91 250.85 624.92 250.85 624.92 250.83 624.93 250.83 624.94 250.82 624.96 250.81 624.96 250.8 624.97 250.8 624.97 250.79 624.97 250.77 624.98 250.77 624.98 250.76 624.99 250.75 624.99 250.74 625 250.73 625.01 250.72 625.01 250.7 625.03 250.69 625.03 250.68 625.03 250.67 625.04 250.66 625.04 250.65 625.04 250.63 625.04 250.62 625.05 250.61 625.05 250.6 625.05 250.59 625.05 250.58 625.05 250.56 625.05 250.55 625.05 250.54 625.05 250.53 625.05 250.52 625.05 250.5 625.05 250.49 625.05 250.48 625.05 250.47 625.05 250.46 625.05 250.45 625.05 250.43 625.04 250.42 625.04 250.41 625.04 250.4 625.04 250.39 625.03 250.39 625.03 250.38 625.03 250.36 625.03 250.35 625.01 250.35 625.01 250.34 625.01 250.33 625 250.33 625 250.32 624.99 250.31 624.99 250.29 624.98 250.28 624.98 250.27 624.97 250.26 624.96 250.25 624.96 250.23 624.94 250.23 624.94 250.22 624.93 250.21 624.92 250.2 624.91 250.2 624.91 250.19 624.9 250.19 624.9 250.18 624.89 250.18 624.87 250.16 624.86 250.15 624.85 250.14 624.84 250.14 624.83 250.13 624.81 250.13 624.81 250.12 624.8 250.12 624.79 250.12 624.79 250.11 624.78 250.11 624.77 250.11 624.84 249.51 625.66 248.38 625.77 248.24 625.85 248.13 626.15 247.72 627.03 246.99 629.52 244.93 630.88 243.81 633.57 241.95 634.52 241.28 636.24 240.47 638.52 239.37 646.38 239.38 649.89 239.39 650.46 240.4 652 243.1 662.83 243.08 668.8 243.07 670.82 244.03 671.72 244.28 672.12 244.37 672.06 244.62 671.51 246.79 671.41 247.72 671.43 248.91 671.85 250.5 672.13 251.42 672.18 251.6 674.16 254.46 675.81 256.31 676.94 257.65 682.79 256.78 685.41 256.01 692.37 252.01 698.93 247.79 705.01 243.89 711.97 239.44 713.57 238.89 718.49 238 720.04 238.47 729.56 239.65 738.99 239.43 745.67 238.48 750.29 237.04 752.79 235.51 754.5 234.09 757.64 229.56 758.86 227.38 760.37 220.81 774.69 227.55 787.28 234.09 789.71 235.93 790.44 236.49 792.04 238.47 794.19 240.69 798.33 244.59 799 245.21 792.92 253.33 787.64 260.77 787.62 260.82 780.78 270.46 767.28 286.91 757.09 297.76 754.7 299.91 740.23 312.11 738.57 313.18 715.91 326.35 693.66 339.6 690.01 341.72 675.61 350.18 657.07 361.23 643 369.66 629.67 377.53 612.4 387.73 597.7 396.56 594.29 398.49 591.94 399.95 577.41 408.58 550.7 424.29 545.87 427.26 541.68 429.63 539.95 430.64 539.84 430.7 538.16 431.67 510.39 448.33 508.54 449.46 488.86 461.06 471.09 471.4 462.55 476.57 448.07 485.18 436.5 492.17 426.65 498.03 415.52 505.75 410.08 510.54 406.47 513.44 401.73 517.65 393.38 525.94 392.5 525.3 386.13 520.92 384.6 520.81 390.35 513.2 396.37 500.62 397.62 494.92 391.22 484.34 384.88 473.82 381.21 466.19 380.71 462.73 366.69 468.92 364.65 468.88 363.71 468.74 357.78 467.85 357.67 467.84 357.04 467.79 354.04 467.59 353.29 467.56 351.63 467.46 345.3 467.15 334.27 464.37 330.9 462.61 322.67 458.33 312.05 451.86 310.62 450.63 306.56 447.13 305.8 446.48 305.26 445.73 303.29 442.98 300.94 439.71 287.71 436.03 277.25 431.82 275.11 429.48 272.43 426.56 271.88 425.96 264.2 415.82 260.34 410.72 257.15 406.52 251.95 399.57 250.05 394.89 248.32 392.3 245.53 390.55 239.9 386.69 131.13 409.51 131.31 399.15 131.33 398.38 131.37 396.28 131.42 395.07 131.87 385.93 132.54 372.51 135.04 356.81 137.54 356 139.9 354.81 141.73 353.1 142.82 351.1 143.03 350.71 144.04 348.15 144.8 346.23 146.32 344.58 147.32 343.39 149.22 341.23 151.05 340.04 155.42 336.68 154.54 334.85 154.21 334.07 153.83 333.04 153.46 331.4 157.04 329.82 159.32 328.69 162.84 325.79 166.56 323.79 168.02 323.33 169.48 322.83 172.32 322.86 178.92 323.17 181.47 322.91 183.17 322.74 188.02 320.91 192.82 318.63 192.92 318.59 194.52 317.79 196.4 316.85 200.12 314.97 201.96 315.58 207.11 314.44 208.11 314.27 212.39 314.95 219.87 316.85 223.9 317.27 229.8 316.51 231.29 315.97 232.91 315.38 233.79 315.07 236.24 314.16 237.33 313.76 245.31 312.67 252.32 312.83 254.07 312.86 255.24 312.88 256.37 312.81 257.46 310.83 263.94 300.53 266.3 296 267.89 291.65 268.77 286.69 268.92 282.3 268.18 281.95 266.54 281.17 266.04 280.94 263.15 279.4 259.17 275.51 258.58 274.65 255.71 270.52 254.7 267.74 252.5 266.2 248.51 263.55 245.38 261.45 233.51 252.87 238.56 245.84 240.23 243.88 245.04 238.22 246.29 236.26 247.01 234.89 247.4 234.14 248.83 230.82 248.89 230.69 249.25 229.83 249.46 229.35 244.42 227.76 244.47 226.1 244.57 223.73 248.63 219.43 250.43 216.85 250.15 213.7 250.88 213.6 250.28 210.01 250.33 209.97 249.95 206.24 249.77 204.4 247.55 193.3 247 190.54 246.61 187.35 246.28 184.61 246.12 183.95 245.41 180.97 245.41 180.96 247.33 180.27 248.56 179.82 248.99 179.67 248.99 179.66 249.72 179.4 250.62 179.08 252.1 178.55 250.52 175.43 249.14 172.74 248.11 170.7 246.14 166.83 243.97 163.04 243.36 162 241.37 158.53 236.44 151.35 235.51 149.52 235.12 148.78 235.31 148.58 235.79 147.94 237.94 145.22 238.05 145.08 238.77 144.17 241.58 141.05 242.55 140.02 242.91 139.77 243.5 139.32 243.81 139.13 244.92 138.43 245.1 138.3 246.13 137.58 248.46 135.79 249.16 135.24 250.31 133.56 255.27 129.77 261.18 125.86 271.25 118.66 271.49 118.67 273.29 118.75 277.46 105.99 281.85 106.24 282.26 106.31 283.32 98.47 282.71 98.32 282.74 97.99 283.05 95.61 283.42 95.15 283.5 89.86 284.77 88.74 287.57 85.33 288.2 84.78 288.34 83.35 288.88 83.43 289.27 81.29 289.75 78.67 289.77 78.54 289.91 77.82 290.39 75.4 291.13 73.73 291.53 72.8 291.61 72.61 292.38 71.87 293.49 70.78 295.04 68.93 296.39 67.31 297.32 66.19 298.17 64.12 298.2 64.06 298.71 64.21 299.52 64.45 301.26 59.82 303.71 48.2 304.32 45.85 304.95 41.59 309.55 28.18 313.52 27.88 315.76 27.43 318.64 26.78 319.05 26.62 317.71 24.1 315.88 20.65 314.08 16.01 327.65 18.83 327.91 13.74 327.74 6.78 327.65 3.96 333.11 2.6 334.6 2.58 335.4 2.57 336.83 2.55 337.4 2.54 337.93 2.53 338.24 2.82 340.97 1 Z"/>
</g>
</svg>