<?xml version="1.0"?>
<svg xmlns="http://www.w3.org/2000/svg" version="1.2" baseProfile="tiny" width="800" height="1170" viewBox="0 0 800 1170" stroke-linecap="round" stroke-linejoin="round">
<g id="Long Bình (phường xã)">
<path d="M 522.92 1 531.24 29.42 533.71 36.34 538.82 50.65 557.92 104.26 566.13 152.61 569.25 173.23 578.35 233.56 585.06 248.33 615.27 273.62 645.5 298.01 677.09 338.18 696.35 363.56 698.99 370.03 698.91 383.2 695.14 400.32 695.12 400.38 693.61 408.04 691.52 414.79 690.81 416.4 686.7 425.65 674.19 450.63 666.15 467.28 654.59 488.62 653.97 489.74 643.18 507.85 639.72 513.01 636.79 517.71 634.87 520.63 632.9 523.35 630.19 527.53 628.19 531.37 626.58 535.46 626.4 542.55 628.11 553.4 629.01 556.65 631.95 567.17 638.39 589.64 640.95 598.52 650.56 627.84 654.35 637.62 656.88 644.88 666.36 666.35 671.05 673.63 672.05 675.17 677.36 683.41 681.89 690.27 690.81 705.72 699.23 720.71 704.92 733.95 708.74 743.84 715.97 762.53 719.79 772.81 719.9 773.08 729.93 795.06 737.74 812.19 758.65 856.37 774.81 889.16 782.7 900.74 790.03 910.95 799 920.25 789.91 924.29 782.81 927.41 774.81 931.43 768.16 935.13 761.89 939.07 761.18 939.58 758.24 943.63 757.92 944.21 757.72 944.64 756.49 947.28 755.64 949.94 750.97 966.85 750.53 968.38 749.51 970.8 740.33 991.46 733.43 1003.51 732.35 1005 730.98 1006.7 730.15 1007.53 728.41 1008.99 721.52 1014.06 712.8 1019.86 706.29 1022.52 694.46 1025.03 693.58 1025.53 687.85 1027.78 687.77 1027.82 665.31 1034.94 656.12 1040.56 647.47 1048.04 640.76 1054.75 634.6 1060.9 629.49 1067.52 627.78 1069.29 624.49 1072.82 614.28 1081.07 611.68 1083.15 603.17 1087.36 592.92 1091.54 583.26 1093.56 576.17 1093.62 569.67 1092.55 561.09 1088.71 547.9 1080.83 529.37 1069.69 522.87 1066.36 518.02 1064.43 508.78 1062.14 505.96 1061.42 503.06 1061.02 499.49 1061.1 495.27 1061.47 490.46 1062.98 481.59 1067.52 478.97 1068.85 475.14 1072.54 472.68 1076.31 469.49 1081.69 467.26 1087.33 464.32 1100.67 460.41 1120.87 457.13 1133.96 452.4 1151.86 452.21 1152.69 451.51 1156.43 439.39 1152.3 439.16 1152.08 438.76 1151.86 438.46 1151.7 438.04 1151.41 437.48 1151.14 436.06 1150.61 435.19 1150.33 434.2 1150.09 432.17 1149.74 431.13 1149.61 428.98 1149.45 426.9 1149.36 424.8 1149.36 422.58 1149.41 421.41 1149.47 420.13 1149.61 418.56 1149.87 414.91 1150.61 412.84 1151.1 405.88 1153.01 403.52 1153.52 401.18 1153.84 398.91 1154.05 396.69 1154.21 394.67 1154.26 392.89 1154.19 388.39 1153.7 384.08 1152.98 382.16 1152.61 379.27 1151.95 371.95 1149.87 364.62 1147.72 362.21 1147.12 358.48 1146.33 353.71 1145.52 351.68 1145.39 350.25 1145.4 349.29 1145.47 347.19 1145.74 346.14 1145.92 345.02 1146.16 343.91 1146.48 342.9 1146.91 339.83 1148.62 338.37 1149.53 331.6 1154 329.2 1155.67 326.06 1157.7 322.41 1160.23 320.1 1161.54 317.7 1162.66 313.14 1164.44 310.91 1165.19 296.33 1169.21 252.82 1064.26 243.67 1040.85 221.47 996.29 203.85 964.78 173.75 945.45 175.36 933.97 184.78 915.66 195.71 898.86 177.97 887.27 171.86 872.68 185.85 864.34 205.32 849.92 236.64 820.74 228.1 791.97 203.89 757.93 188.46 717.63 179.46 666.46 173.36 619.88 178.32 566.5 173.79 547.51 144.73 547.34 98.24 526.5 98.32 524.5 98.73 515.39 99.57 497.28 99.65 496.61 99.66 496.47 103.55 463.58 103.58 463.28 103.7 462.78 93 458.99 81.2 454.81 61.31 449.25 60.53 449.07 50.81 446.85 21.54 440.14 7.32 437.75 2.63 436.97 1 436.76 1.03 436.7 8.24 426.55 16.53 415.47 25.43 403.2 27.59 400.29 40.77 381.78 42.9 378.8 66.79 346.41 83.79 323.18 87.57 318.01 89.64 319.88 99.98 329.63 100.65 330.26 102.56 332.05 102.8 331.76 104.67 329.55 104.82 329.39 107.68 326.01 117.69 314.18 134.55 294.26 139.11 288.85 157.96 266.58 161.05 262.91 161.29 262.62 164.2 252.47 161.77 251.45 162.75 245.17 163.02 244.58 163.85 244.85 169.71 246.77 169.2 236.14 177.6 234.7 177.54 232.2 181.91 232.78 182.04 232.75 182.34 228.68 182.5 227.13 182.58 226.07 182.94 224.04 183.03 218.85 183.27 218.54 185 218.37 189.42 217.95 189.58 216.61 189.76 215.25 190.72 209.67 192.61 207.8 193.94 206.86 196.31 207.48 198.85 207.45 199.01 207.45 199.16 207.43 199.25 207.08 199.54 206.17 199.99 206.34 200.72 206.62 201.88 207.06 202.36 207.42 203.16 209.37 204.82 209.8 205.85 210.11 209.71 211.16 210.75 211.44 211.52 211.68 212.7 212.03 212.86 212.04 213.41 211.79 213.81 210.54 214.94 210.2 215.01 210.17 215.76 210.11 216.34 210.06 217.7 210.39 218.24 210.68 218.98 211.36 221.84 209.51 222.36 206.55 223.3 206.55 225.96 207.79 228.18 207.91 228.73 207.06 229.08 206.49 229.34 206.09 231.37 204.18 233.36 203.38 234.3 202.5 234.62 202.68 236.09 199.99 238.62 195.01 239.38 194.48 239.82 194.16 252.36 189.42 266.8 165.02 266.18 158.9 266.07 157.96 263.46 135.29 262.75 128.55 261.52 116.76 260.21 113.93 259.44 112.97 259.28 112.25 259.2 111.27 259.26 110.56 259.81 108.79 260.99 106.02 261.42 104.7 261.98 103.71 262.46 103.1 263.17 102.67 264.27 102.48 265.75 102.61 267.56 102.99 268.32 103.15 269.81 103.7 271.62 103.5 273.11 102.69 273.85 101.61 274.44 100.54 275.38 99.65 277.64 98.65 279.5 97.76 279.9 97.56 281.24 96.72 282.93 94.95 283.26 93.61 283.04 92.65 283.02 92.54 281.95 92.23 280 92.38 278.99 92.07 277.85 91.29 277.23 89.88 277.43 88.61 277.72 87.03 278.3 85.49 279.29 83.79 280.11 82.85 282.22 82 286.21 82.02 290.07 81.7 291.54 81.12 293.29 80.21 294.04 79.18 294.69 77.45 295.24 76.01 295.78 75.32 296.97 74.57 296.18 69.93 298.74 65.97 299.51 66.01 311.59 69.62 316.1 71.64 321.16 74.3 323.64 75.05 325.6 75.6 328.21 76.19 328.77 76.09 329.33 75.64 329.85 75.13 331.78 73.31 333.57 72.14 334.88 71.21 355.09 66.76 366.02 59.65 368.94 55.5 369.91 53.93 371.26 50.57 371.63 49.67 372.3 48.49 373.17 47.53 380.08 41.88 382.07 40.18 382.61 39.73 383.65 39.09 384.66 38.79 384.95 38.64 384.98 38.72 385.22 39.43 387.77 38.29 387.43 37.47 386.93 36.26 386.82 35.97 386.71 35.68 388.25 36.08 392.68 37.23 393.05 37.33 395.15 36.77 397.01 36.26 397.65 36.08 397.55 35.84 396 30.96 396.57 30.8 400.29 29.26 401.44 28.72 402.35 29.82 404.45 28.76 404.79 28.59 402.82 24.23 403.03 24.14 403.65 23.85 403.97 23.69 405.01 23.19 405.89 22.78 407.57 21.97 408.29 21.61 409.17 21.17 411.14 17.86 412.94 15.14 414.39 17.14 421.71 16.72 421.84 11.06 423.25 10.67 425.49 10.05 428.4 9.25 434.2 9.31 435.26 9.33 435.29 9.33 435.45 10.24 451.09 10.64 473.33 10.43 484.44 10.32 485.61 10.06 490.96 8.88 498.61 7.21 511.04 4.06 511.57 3.9 511.66 3.88 522.92 1 Z"/>
</g>
</svg>