<?xml version="1.0"?>
<svg xmlns="http://www.w3.org/2000/svg" version="1.2" baseProfile="tiny" width="800" height="1041" viewBox="0 0 800 1041" stroke-linecap="round" stroke-linejoin="round">
<g id="Tam Bình (phường xã)">
<path d="M 302.45 127.41 303.54 128.34 304.11 127.71 304.43 127.45 304.73 127.12 309.8 122.02 310.91 121.07 313.22 119.06 315 117.54 315.27 117.34 315.87 116.9 316.28 116.55 316.56 116.35 317.33 115.8 318 115.3 318.12 115.23 318.69 114.79 319.44 114.24 322.01 112.42 325.64 118.92 329.16 125.91 330.42 128.42 332.2 131.58 335.2 138.32 337.69 142.31 339.31 141.26 342.53 139.84 360.72 131.76 367.2 129.51 369.49 128.76 376.23 126.54 383.38 124.17 385.08 123.6 385.59 123.32 389.42 123.28 392.98 122.47 401.33 119.35 409.67 116.73 414.71 114.95 415.83 113.9 416.5 113.03 416.96 112.84 418.64 113.03 418.7 113.07 418.66 113.15 418.48 114.38 418.1 115.44 417.77 116.02 417.39 116.67 417.04 117.4 416.8 118.05 416.58 118.72 416.34 119.45 416.21 120.08 416.13 120.52 416.03 120.93 415.91 121.31 415.63 121.59 415.22 121.82 414.78 122.12 414.29 122.57 413.62 123.09 412.87 123.62 411.96 124.02 411.03 124.31 410.32 124.67 409.85 125.32 409.39 126.41 408.78 127.97 408.21 129.41 407.71 130.71 407.1 132.53 406.29 135.06 405.4 138 404.51 141.04 404 142.76 403.74 143.71 403.62 144.1 402.68 147.18 401.81 149.99 401.1 152.18 400.39 154.37 399.54 157.04 398.75 159.73 398.05 162.16 397.32 164.57 396.49 167.09 395.53 169.84 394.54 172.55 393.65 174.82 393 176.12 392.98 176.14 392.46 176.85 391.85 177.78 391.18 179.04 390.55 180.11 389.96 180.96 389.38 181.79 388.79 182.6 388.18 183.43 387.63 184.28 387.11 185.11 386.46 185.86 385.75 186.61 385 187.72 384.23 189.2 384.01 189.55 383.83 189.85 383.85 189.79 383.18 190.8 382.65 191.55 382.35 192.12 381.96 193.31 381.76 194.45 381.7 195.12 379.49 198.88 378.12 203.22 375.02 213.04 374.55 214.48 398.71 218.53 402.28 219.12 415.28 222.24 420.81 223.57 466.75 234.59 467.25 234.73 489.05 240.81 486.96 244.46 478.58 258.68 471.04 271.44 468.79 275.41 465.05 282.21 463.02 285.74 457.9 294.63 454.64 299.85 451.23 305.3 448.62 308.89 444.45 314.35 443.27 315.85 440.88 319.13 438.49 322.42 438.07 323 438.29 323.17 438.96 323.51 441.31 324.38 441.86 324.46 443.31 324.7 444.79 324.95 445.52 325.13 446.25 325.29 447.04 325.49 447.81 325.72 449.41 326.28 451.17 326.91 453 327.44 456.09 328.53 456.66 328.69 458.59 328.96 459.29 329.02 460.53 328.96 463.67 328.67 464.58 330.58 465.37 331.89 465.76 332.42 466.61 333.31 466.65 333.35 467.09 333.84 468.75 335.4 470.72 337.06 473.03 339.13 476.69 342.14 481.8 332.85 483.4 329.91 483.5 329.97 487.43 332 488.42 332.58 495.35 336.76 495.37 336.78 499.54 329.36 500.19 328.23 510.15 334.43 510.44 334.61 515.68 337.67 519.77 340.58 522.12 343.34 523.78 345.28 524.88 344.25 524.96 344.17 532.39 337.16 534.5 334.77 538 330.07 538.98 328.67 539.22 328.35 542.62 323.55 542.72 323.41 545.19 319.52 545.19 319.5 546.91 316.48 548.09 314.05 548.43 313.12 548.86 312.8 549.89 312.75 551.27 313.3 553.56 315.69 554.65 316.4 556.07 316.99 559.25 318.75 560.67 319.52 561.34 319.52 562 319.24 568.47 315.25 571.97 313.12 574.66 311.34 577.66 308.91 578.92 307.39 579.32 306.96 579.77 306.66 580.21 306.62 580.7 306.8 582.28 307.85 583.7 308.85 586.86 310.83 589.51 312.49 589.96 312.77 592.22 314.21 597.77 317.33 599.07 318.08 600.43 318.87 600.95 319.18 603.75 320.75 608.55 323.41 611.3 324.83 613.33 326 614.44 326.57 615.39 326.99 616 327.22 619.79 328.59 620.46 327.66 622.69 324.16 623.27 323.25 624.87 320.57 626.49 317.9 627.12 317.21 627.14 317.19 627.93 316.72 628.5 316.6 629.01 316.6 629.27 316.62 629.57 316.66 630.26 316.97 630.69 317.33 632.27 319.36 634.39 318.22 636.54 317.11 637.69 316.48 645.51 310.45 647.38 309.01 647.96 308.68 648.69 308.28 648.77 308.24 651.83 306.54 654.79 304.47 656.57 302.91 657.18 302.34 657.97 301.66 661.41 306.25 665.44 311.64 665.77 311.4 665.81 311.38 665.95 311.58 668.62 315.14 668.85 315.45 670.73 317.96 669.15 319.36 668.52 319.92 665.71 321.97 665.2 322.31 658.15 327.01 651.12 331.92 650.68 332.22 651.69 333.41 651.77 333.52 652.2 334.06 652.48 334.41 653.53 335.68 653.76 335.88 654.26 336.53 654.67 337.16 655.54 338.21 656.71 339.67 657.04 340.06 657.24 339.94 657.38 340.14 657.95 340.93 660.1 343.58 660.56 343.18 661.59 344.39 662.87 345.85 663.4 346.46 665.1 348.44 666.48 350 666.86 350.35 667.31 350.91 668.48 352.45 671.84 356.1 672.69 357.13 674.01 358.71 674.35 359.1 676.44 361.75 677.98 363.45 681.1 366.73 681.61 367.22 681.63 367.24 683.91 369.3 685.11 370.09 686.14 370.76 688.94 373.6 689.44 374.1 689.57 374.17 689.93 374.49 690.07 374.59 691.35 375.99 695.26 380.2 696.72 381.84 696.88 382.02 696.9 382.02 697 381.98 697.22 381.9 697.63 382.39 699.9 385.12 701.17 386.66 709.82 381.8 710.33 381.52 710.99 381.13 711.74 380.71 717.4 377.26 721.22 374.92 722.7 373.68 723.27 373.17 724.44 372.04 724.26 371.8 725.72 370.36 727.83 368.74 728.51 369.61 729.35 370.52 729.33 370.54 729.16 370.64 728.11 371.29 727.79 372.1 727.83 372.32 727.87 372.73 731.45 377.73 733.29 380.28 734.75 382.31 736.23 384.35 736.86 385.24 737.02 385.47 737.37 386.95 738.58 388.61 742.09 393.49 742.35 393.83 743.08 394.2 743.3 394.5 744.5 396.1 745.95 398.11 746.42 398.71 746.48 398.79 757.15 393.57 758.84 392.74 760.35 392.01 760.94 391.71 762.97 390.69 763.17 390.59 764.06 390.13 766.15 389.09 774.49 403.29 784.01 418.81 785.98 422.03 786.77 423.3 787.46 424.62 785.33 425.33 768.25 431.38 765.82 432.11 759.02 434.04 756.28 434.91 751.91 436.31 747.09 437.85 740.22 440.07 735 441.75 733.17 442.36 720.53 446.49 711.12 449.59 706.96 450.93 702.06 452.51 692.48 455.57 692.46 455.57 686.3 457.67 687.22 460.33 687.28 460.49 691.45 472.72 694.93 482.93 697.69 491.74 698.42 494.29 694.1 495.71 684.4 498.89 678.04 501.12 677.33 501.38 679.82 506.35 681.65 509.3 683.21 512.08 686.12 517.18 687.42 519.49 691.41 525.81 696.57 534.05 698.98 537.98 703.6 545.54 705.14 547.66 705.73 548.13 707.73 548.54 714.09 549.63 715.23 550.11 715.84 550.78 716.22 552.24 716.18 553.34 715.98 559.33 715.55 563.46 715.69 569.11 715.73 570.65 715.8 572.54 716.4 578.61 716.75 582.08 716.97 586.94 716.69 589.81 717.23 590.89 719.52 595.5 720.49 596.86 720.27 598.34 720.27 599.23 721.63 602.43 724.06 606.24 728.39 615.09 732.28 624.45 733.9 623.96 740.1 621.37 746.36 631.8 751.99 640.85 758.59 651.47 758.98 652.24 763.84 649.48 768.86 657.18 770.14 656.41 774.57 653.78 774.74 653.68 780.73 650.19 782.05 649.52 782.82 649.46 783.51 649.56 784.07 649.95 784.56 650.56 785.92 652.82 786.08 653.09 787.19 654.55 789.82 658.6 790.27 659.63 790.41 660.36 790.49 662.53 790.47 665.04 790.68 665.81 791.26 666.86 792.24 668.06 792.54 668.28 792.74 668.44 793 668.56 793.25 668.62 793.59 668.66 793.94 668.68 794.69 668.7 799 667.33 794.69 694.43 793.53 717.6 792.76 733.38 792.66 735.46 792.6 739.09 792.56 740.42 792.26 758.31 792.21 761.06 791.45 760.68 789.08 759.5 787.46 757.15 786.18 755.31 784.34 753.49 781.22 751.44 778.08 751.36 778.04 751.36 775.5 751.34 767.4 752.35 766.27 752.42 763.27 752.98 763.23 753 756.75 754.28 756.71 754.28 751.36 755.45 751.02 755.55 750.37 755.76 749.62 756.02 749.17 756.16 748.36 756.45 748.57 757.03 748 757.17 746.74 757.62 743.34 758.41 742.55 758.61 741.82 758.8 740.73 759.06 739.76 759.3 737.89 759.77 736.74 760.05 735.85 760.23 734.29 760.56 732.16 761.91 730.93 762.54 730.16 761.1 729.3 759.54 728.51 758.07 726.89 755.49 720.11 744.74 719.08 744.84 713.08 745.41 706.42 745.67 703.56 745.77 698.9 745.79 695.99 745.33 694.69 744.62 692 742.11 688.49 738.3 685.82 735.5 683.31 736.15 679.54 737.12 673.71 737.53 667.33 737.14 660.72 736.8 657.46 736.19 654.44 735.87 650.27 736.23 645.94 736.9 643.18 737.47 638 738.66 635.57 739.45 632.23 740.95 631.09 741.05 629.92 740.75 628.62 739.92 627.49 739.41 626.33 739.21 625.91 740.3 624.59 743.77 623.07 747.82 619.77 754.3 617.12 757.58 610.15 766.94 609.91 768.19 608.61 768.5 602.43 774.96 601.91 775.5 602.29 776.13 602.61 777.96 602.45 781.36 601.66 797.26 600.75 810.18 600.45 812.61 600.22 814.43 600.08 814.88 600.14 814.92 602.23 816.62 604.25 819.34 605.41 821.71 605.96 823.51 606.18 825.13 606.14 826.22 606.1 827.25 605.73 829.75 604.8 836.25 604.36 836.63 604.25 836.75 604.17 836.9 604.11 837.12 603.42 841.09 603.4 843.17 603.38 844.31 603.38 845.08 603.36 846.52 603.32 846.92 603.28 847.37 603.08 849.84 602.88 850.71 602.11 854.31 601.86 855.21 601.05 858.26 600.02 861.44 599.43 862.66 599.43 862.68 598.83 864.08 598.08 865.82 596.36 867.68 593.26 869.79 592.73 870.15 592.65 870.21 590.46 872.24 589.67 874.37 589.83 877.28 592.81 887.29 593.01 887.96 593.05 889.74 593.07 890.87 593.07 891.48 593.05 892.17 592.99 892.47 592.85 893.14 592.77 893.45 592.55 894.3 592.04 895.53 590.6 899.18 589.08 902.46 588.27 903.86 587.38 905.84 585.38 907.89 585.26 908.19 585.13 908.45 585.05 908.7 584.93 909 584.69 909.57 584.32 910.38 584.04 910.99 583.86 911.39 583.66 911.8 583.33 912.4 582.93 913.19 582.62 913.76 582.44 914.02 582.34 914.17 582.26 914.23 582.18 914.29 582.16 914.29 582.06 914.35 581.89 914.41 581.71 914.49 581.57 914.55 581.51 914.59 581.43 914.67 581.27 914.9 580.96 915.42 580.56 916.27 580.23 916.98 579.95 917.61 579.61 918.46 579.18 919.53 579.02 919.94 578.8 920.59 578.39 921.78 577.9 923.22 577.52 924.39 577.28 925.37 576.91 926.54 576.43 928.06 576.02 929.48 575.64 930.79 575.23 931.99 575.01 932.72 574.93 933.18 574.8 933.67 574.6 934.24 574.34 934.78 574.04 935.23 573.67 935.88 573.18 936.87 572.76 937.76 572.44 938.51 572.11 939.36 571.79 940.31 571.44 941.33 571.08 942.4 570.65 943.62 570.19 944.87 569.72 946.15 569.28 947.4 568.89 948.54 568.67 949.45 568.45 950.36 568.22 951.37 568.08 952.26 568 953.03 567.92 953.78 567.88 954.55 567.8 955.38 567.66 956.3 567.59 957.47 567.8 958.56 568.08 959.33 568.24 959.96 568.34 960.45 568.53 961.14 568.83 962.45 569.26 964.21 569.68 966.06 570.11 967.76 570.11 967.82 570.55 969.32 570.96 970.55 571.36 971.73 571.79 972.82 572.25 973.9 572.7 974.95 573.16 975.98 573.59 976.91 573.99 977.62 573.99 977.64 574.34 978.21 574.64 978.78 574.93 979.3 575.19 979.81 575.49 980.34 575.8 980.86 576.04 981.39 576.24 981.92 576.47 982.4 576.65 982.87 576.77 983.33 576.85 983.84 576.89 984.43 576.93 985.06 576.97 985.77 576.97 986.66 576.97 987.67 576.97 988.7 576.95 989.71 576.87 990.69 576.81 991.74 576.75 993 576.73 994.23 576.71 995.47 576.71 996.68 576.75 997.67 576.81 998.46 576.87 999.38 576.91 1000.41 576.93 1001.28 576.95 1002.03 576.95 1002.11 576.93 1003.02 576.89 1003.71 576.83 1004.18 576.77 1004.58 576.71 1004.89 576.69 1004.97 576.59 1005.35 576.47 1005.82 576.32 1006.38 576.24 1006.69 576.2 1006.79 576.16 1007.03 575.98 1007.56 575.74 1008 575.72 1008.04 575.37 1008.39 575.21 1008.53 575.03 1008.67 574.76 1008.88 574.26 1009.3 574.1 1009.34 573.37 1009.62 572.84 1009.79 572.07 1009.99 572.01 1010.01 571.32 1010.21 570.61 1010.39 569.92 1010.56 569.38 1010.66 568.99 1010.7 568.53 1010.76 567.8 1010.82 566.95 1010.86 566.03 1010.94 565.14 1011.02 564.29 1011.14 563.54 1011.27 562.81 1011.39 562.09 1011.55 561.54 1011.75 561.15 1011.93 560.81 1012.12 560.49 1012.3 560.32 1012.4 560.22 1012.48 559.98 1012.68 559.78 1012.93 559.59 1013.19 559.43 1013.49 559.29 1013.82 559.17 1014.18 559.09 1014.47 559.05 1014.63 558.95 1015.07 558.86 1015.64 558.8 1016.39 558.78 1017.28 558.8 1018.15 558.82 1018.54 558.84 1018.86 558.86 1019.08 558.91 1020.14 558.97 1021.15 558.99 1022.1 558.95 1023.03 558.91 1023.94 558.82 1024.8 558.7 1025.52 558.58 1026.15 558.44 1026.74 558.3 1027.25 558.18 1027.69 558.01 1028.1 557.77 1028.48 557.51 1028.89 557.22 1029.25 556.92 1029.6 556.9 1029.62 556.6 1029.92 556.23 1030.24 555.81 1030.59 555.4 1030.93 555.18 1031.13 554.92 1031.38 554.49 1031.8 554.08 1032.23 553.6 1032.67 553.38 1032.88 552.91 1033.24 552.08 1033.89 551.27 1034.48 550.6 1035.02 550.22 1035.53 550.03 1035.77 549.97 1035.87 547.44 1037.07 542.09 1039.58 542.03 1038.95 541.97 1038.18 541.91 1037.41 541.85 1036.85 541.75 1036.2 541.55 1035.29 541.34 1034.38 541.18 1033.83 541 1033.48 540.8 1033.14 540.53 1032.73 540.27 1032.29 539.91 1031.78 539.52 1031.22 539.14 1030.61 538.77 1030.04 538.55 1029.64 537.6 1027.77 537.5 1027.25 537.46 1027 537.33 1026.64 537.17 1026.19 536.83 1025.5 536.38 1024.59 535.96 1023.76 535.59 1023.07 535.21 1022.41 534.78 1021.7 534.32 1021.03 533.85 1020.4 533.34 1019.75 532.8 1019.04 532.23 1018.35 531.87 1017.93 531.66 1017.69 531.16 1017.14 530.77 1016.75 530.39 1016.43 529.96 1016.09 529.5 1015.74 528.93 1015.21 528.18 1014.49 527.37 1013.68 526.46 1012.7 525.47 1011.65 524.72 1010.82 524.31 1010.27 524.11 1009.99 523.97 1009.79 523.46 1009.26 522.87 1008.65 522.24 1007.94 521.5 1007.07 520.48 1006.02 519.33 1004.82 518.21 1003.71 517.16 1002.68 516.05 1001.58 514.93 1000.55 513.68 999.5 512.32 998.4 511.25 997.55 510.64 997.09 510.34 996.86 510.09 996.76 509.87 996.7 509.65 996.68 509.36 996.66 508.96 996.56 508.25 996.22 507.26 995.61 506.41 995.04 505.6 994.54 504.6 993.93 503.67 993.28 502.72 992.63 501.67 991.94 500.69 991.29 499.66 990.69 498.32 990.2 496.91 989.96 495.77 989.9 495.08 989.86 494.66 989.73 494.42 989.67 493.59 989.37 492.88 989.11 492.07 988.8 490.79 988.26 489.31 987.55 487.75 986.78 485.95 986.01 483.9 985.08 482.77 984.53 481.66 983.98 479.39 982.87 477.16 981.8 475.09 980.92 473.11 980.11 471.18 979.24 469.93 978.64 466.75 976.97 465.72 977.1 465.31 977.12 464.6 976.97 463.69 976.67 462.82 976.37 462.01 976.02 461.34 975.74 460.63 975.44 459.68 974.97 458.61 974.38 457.53 973.77 456.44 973.13 455.34 972.42 454.31 971.69 453.38 970.98 452.45 970.27 451.54 969.52 450.61 968.67 449.69 967.76 448.8 966.87 448.07 966.14 447.59 965.63 447.24 965.27 446.96 964.92 446.66 964.56 446.31 964.13 445.95 963.61 445.56 963.02 445.22 962.53 444.99 962.19 444.77 961.89 444.53 961.5 444.29 961.16 444 960.73 443.62 960.14 443.21 959.54 442.85 958.97 442.44 958.34 442.02 957.63 441.75 957.15 441.61 956.84 441.35 956.23 441.05 955.48 440.74 954.76 440.5 954.15 440.32 953.72 440.15 953.32 439.93 952.63 439.65 951.66 439.36 950.64 439.12 949.63 439 948.74 438.98 947.93 439 947.14 439.04 946.23 439.12 945.13 439.2 943.98 439.3 942.74 439.43 941.39 439.47 940.94 439.57 940.01 439.69 938.86 439.81 937.64 440.03 935.92 440.26 934.32 440.4 933.39 440.48 932.68 440.54 931.26 440.56 930.84 440.56 930.05 440.66 928.04 440.72 927.13 440.78 926.32 440.84 925.61 440.98 924.64 441.27 922.92 441.63 920.95 442 918.89 442.36 916.76 442.63 914.92 442.79 913.38 442.95 911.94 443.11 910.72 443.35 909.77 443.64 909.08 443.92 908.54 444.18 907.83 444.43 906.87 444.57 906.19 444.65 905.62 444.79 904.67 444.95 903.39 445.1 902.32 445.18 901.61 445.28 901.04 445.4 900.6 445.52 900.23 445.64 899.85 445.81 899.46 446.01 899.04 446.23 898.63 446.47 898.27 446.68 897.98 446.88 897.7 447.04 897.35 447.2 896.95 447.36 896.54 447.61 896.26 447.87 895.98 448.09 895.49 448.28 894.84 448.44 894.18 448.6 893.57 448.74 892.98 448.9 892.37 449.07 891.76 449.25 891.22 449.47 890.69 449.92 890.04 450.54 888.83 451.05 887.05 451.38 885.38 451.68 884.13 451.94 883.12 452.21 882.2 452.51 881.27 452.87 880.16 453.24 879.07 453.62 877.97 453.99 876.76 454.29 875.58 454.56 874.47 454.8 873.37 455.02 872.26 455.22 871.27 455.39 870.46 455.55 869.69 455.69 869 455.79 868.37 455.87 867.84 455.91 867.54 455.91 867.36 455.91 867.22 455.91 866.95 455.87 866.45 455.79 865.74 455.71 864.97 455.61 864.14 455.49 863.1 455.32 861.91 455.14 860.69 454.98 859.58 454.86 858.71 454.78 858.08 454.7 857.51 454.56 856.85 454.39 856.16 454.21 855.51 454.03 854.86 453.85 854.25 453.66 853.71 453.46 853.2 453.26 852.78 453 852.35 452.75 851.99 452.55 851.6 452.12 850.36 452.08 850.26 451.9 849.7 451.56 848.64 451.4 848.26 451.15 847.73 450.85 847.1 450.56 846.48 450.32 845.91 450.02 845.24 449.71 844.67 449.43 844.23 449.19 843.82 448.94 843.46 448.7 843.07 448.52 842.77 448.38 842.57 448.3 842.45 448.26 842.41 448.24 842.34 448.15 842.22 448.05 842.08 447.97 841.94 447.89 841.84 447.85 841.78 447.83 841.72 447.73 841.57 447.51 841.25 447.16 840.68 446.74 840.06 446.31 839.41 445.89 838.78 445.5 838.21 445.18 837.67 444.91 837.08 444.59 836.51 444.08 835.94 443.33 835.23 442.58 834.57 442 834.1 441.47 833.76 440.84 833.39 440.01 832.97 439.1 832.6 438.31 832.38 437.64 832.24 436.93 832.14 435.94 832.01 434.56 831.85 432.98 831.67 431.36 831.51 429.76 831.35 428.06 831.24 426.24 831.14 424.46 831.06 422.92 831.02 421.91 831.04 421.22 831.08 420.53 831.16 419.76 831.24 418.89 831.37 417.87 831.53 416.76 831.71 415.52 831.93 414.29 832.12 413.13 832.28 412.06 832.4 411.27 832.5 410.81 832.54 410.48 832.56 410.14 832.6 409.59 832.7 408.66 832.89 407.42 833.07 406.21 833.33 405.15 833.72 404.2 834.16 403.41 834.61 402.72 835.01 402.06 835.4 401.63 835.62 400.35 836.37 398.98 836.71 398.31 836.9 397.36 837.14 396.43 837.34 395.59 837.46 394.85 837.54 394.14 837.6 393.49 837.67 392.94 837.69 392.44 837.65 391.81 837.54 391.04 837.42 390.25 837.28 389.48 837.12 388.77 836.94 388.1 836.71 387.37 836.33 386.66 835.78 385.95 835.21 385.29 834.79 384.74 834.49 384.19 834.2 383.6 833.88 382.85 833.43 381.98 832.91 381.09 832.38 380.22 831.87 379.51 831.47 378.99 831.1 378.48 830.74 377.97 830.41 377.55 830.07 377.22 829.73 376.92 829.36 376.62 829 376.27 828.65 376.01 828.43 375.87 828.33 375.83 828.27 375.75 828.15 375.62 827.86 375.4 827.32 375.12 826.49 374.77 825.31 374.33 823.61 373.82 821.54 373.4 819.64 372.95 817.71 372.44 815.57 371.98 813.72 371.61 812.29 371.35 811.05 371.11 809.88 370.92 809.05 370.84 808.68 370.8 808.5 370.76 808.28 370.64 807.65 370.36 806.29 370.03 804.85 369.97 804.53 369.59 802.91 369.22 801.29 368.86 799.59 368.62 798.21 368.45 797.22 368.27 796.33 368.07 795.39 367.97 794.65 367.95 794.02 367.87 793.21 367.64 792.19 367.44 791.28 367.32 790.59 367.24 790.05 367.16 789.48 367.08 788.79 367.02 788 366.91 787.19 366.81 786.38 366.77 785.63 366.69 785 366.55 784.46 366.41 783.89 366.31 783.46 366 782.65 364.34 780.89 364.06 780.41 363.45 779.6 362.68 778.75 362.09 778.18 361.55 777.73 360.62 777.08 359.42 776.29 358.31 775.4 354.3 773.78 353.67 773.42 353.43 773.3 353.02 773.05 350.87 771.82 350.1 770.16 349.13 768.01 347.79 762.89 347.49 761.63 347.05 759.79 346.68 758.11 346.17 754.95 345.73 752.05 345.32 743.99 346.32 739.07 346.76 735.36 346.48 732.77 346.13 729.91 346.07 729.77 344.63 726.63 344.23 725.64 344.21 725.56 343.7 724.63 343.18 723.71 342.85 723.15 342.67 722.84 342.27 722.09 342.24 722.05 341.94 721.55 341.86 721.45 341.6 721.1 341.29 720.84 341.03 720.62 340.24 720.11 339.94 719.91 339.45 719.6 338.98 719.34 338.8 719.22 338.76 719.2 338.38 719.02 337.97 718.89 337.71 718.89 337.65 718.89 337.44 718.85 337.08 718.77 337.06 718.75 337.04 718.75 336.57 718.65 336.01 718.53 335.22 718.45 334.2 718.31 333.35 718.04 332.85 717.78 332.81 717.76 332.38 717.54 331.75 717.33 331.19 717.13 330.58 716.93 329.79 716.69 328.94 716.4 328.19 716.12 327.52 715.86 327.26 715.73 326.95 715.59 326.39 715.33 325.94 715.05 325.53 714.74 325.03 714.34 324.81 714.2 324.38 713.89 323.79 713.55 323.14 713.2 322.17 712.74 321.06 712.29 320.17 711.95 319.42 711.66 318.57 711.38 317.53 711.1 316.6 710.87 315.81 710.75 315.04 710.65 314.23 710.57 313.36 710.49 312.41 710.39 311.44 710.29 310.43 710.16 309.21 710.08 307.63 710.02 305.79 709.98 304.11 709.94 302.45 709.92 300.68 709.88 299.2 709.82 298.07 709.72 297.06 709.58 296.31 709.48 295.86 709.42 295.48 709.31 294.85 709.17 294.44 709.07 294.04 708.99 293.33 708.73 292.8 708.36 292.4 707.98 292.07 707.57 291.79 707.11 291.53 706.64 291.28 706.15 291.12 705.69 291.02 705.12 290.94 704.37 290.96 703.62 291 702.87 291.02 701.98 291.08 701.07 291.18 700.2 291.28 699.41 291.37 698.62 291.41 697.79 291.41 696.88 291.41 695.74 291.35 694.45 291.28 693.15 291.16 691.92 290.94 690.86 290.7 689.93 290.45 689.08 290.27 688.45 290.19 688.15 290.15 688.01 290.09 687.82 290.01 687.5 289.87 687.01 289.68 686.43 289.52 685.84 289.34 685.27 289.16 684.66 289 684.04 288.87 683.41 288.81 682.76 288.75 682.09 288.73 681.28 288.77 680.23 288.77 680.01 288.85 678.41 288.89 677.05 288.92 676 288.92 674.76 288.92 673.24 288.87 671.94 288.81 670.97 288.79 670.14 288.79 669.41 288.79 669.39 288.81 668.7 288.89 668.06 289.02 667.43 289.2 666.82 289.4 666.23 289.6 665.69 289.83 665.18 290.07 664.71 290.39 664.31 290.8 663.96 291.33 663.56 291.93 663.07 292.52 662.69 293.03 662.36 294.44 661.25 294.77 660.97 295.32 660.42 295.86 659.83 296.39 659.18 296.9 658.37 297.38 657.5 297.71 656.88 297.89 656.53 298.09 656.17 298.48 655.48 299 654.55 299.63 653.57 300.5 652.44 300.99 651.85 301.63 651.08 302.87 649.64 304.27 648.11 305.71 646.67 305.85 646.51 307.55 644.86 309.23 643.35 310.45 642.29 311.32 641.58 312.31 640.73 313.54 639.68 314.7 638.79 315.77 638.16 316.66 637.69 317.39 637.33 318.18 636.95 319.05 636.46 319.68 636.16 320.01 635.99 320.25 635.89 320.51 635.77 320.96 635.57 321.67 635.22 322.46 634.86 323.31 634.47 324.4 633.97 325.86 633.34 327.6 632.63 329.36 631.92 331.27 631.15 333.35 630.3 335.32 629.45 336.8 628.78 346.8 624.85 348.77 621.79 348.5 617.44 347.81 616.1 346.52 615.5 343.22 615.11 338.74 615.21 337.1 614.95 336.35 614.16 335.2 613.25 332.36 612.03 328.94 611.47 323.17 611.04 316.81 612.28 315.41 612.26 312.96 612.19 311.38 612.15 307.33 612.05 303.42 612.09 301.82 612.01 299.43 610.92 298.03 610.47 296.37 610.78 293.98 611.79 290.11 613.71 288.57 614.12 287.36 613.63 285.57 611.14 284.95 609.7 285.25 608.27 285.88 605.45 286.24 603.75 286.61 602.07 287.13 599.7 287.52 597.98 288 594.63 287.78 591.45 287.01 586.07 286.95 585.4 286.85 584.04 286.79 583.51 287.6 580.03 287.6 579.99 288.08 577.7 288.69 574.95 288.79 571.56 288.73 571.06 288.71 570.94 288.27 567.49 288.47 567.31 288.65 567.09 288.85 566.87 289.04 566.6 289.22 566.36 289.4 566.14 289.62 565.85 289.89 565.57 290.23 565.24 290.68 564.8 291.24 564.27 291.81 563.77 292.38 563.32 292.42 563.28 292.95 562.92 293.53 562.55 294.1 562.17 294.61 561.74 294.95 561.11 295.13 560.16 295.15 559.19 295.07 558.54 294.95 558.12 294.81 557.71 294.67 557.31 294.55 556.8 294.38 556.19 294.22 555.5 294.04 554.79 293.86 554.15 293.65 553.48 293.43 552.81 293.21 552.18 292.97 551.55 292.7 550.9 292.46 550.4 292.24 550.05 291.97 549.77 291.65 549.47 291.35 549.18 291 548.9 290.6 548.62 290.05 548.33 289.38 548.03 288.87 547.85 288.51 547.77 288 547.66 287.25 547.52 286.48 547.54 285.74 547.56 284.88 547.46 283.93 547.38 282.92 547.24 281.97 547.06 281.24 547.06 280.63 547.2 279.98 547.46 279.38 547.72 279.23 547.77 278.44 547.95 277.61 547.72 276.86 547.12 276.34 546.53 275.95 546.17 275.61 545.9 275.24 545.7 274.84 545.5 274.33 545.25 273.66 544.93 272.98 544.5 272.41 544.04 271.96 543.59 271.52 543.15 271.13 542.76 270.87 542.46 270.79 542.38 270.46 541.91 270.16 541.37 269.82 540.6 269.45 539.62 269.19 538.67 269.05 537.84 268.88 536.99 268.7 536.1 268.58 535.37 268.5 534.76 268.34 534.2 268.15 533.63 267.93 533.14 267.69 532.78 267.41 532.43 267.3 532.31 266.7 531.64 266.17 531.14 265.68 530.73 265.04 530.18 264.25 529.48 263.62 528.97 263.52 528.89 263.03 528.56 262.77 528.4 262.73 528.38 262.32 528.1 261.77 527.71 261.15 527.33 260.48 526.9 259.75 526.48 258.98 526.09 258.43 525.81 258.33 525.77 257.74 525.49 257.16 525.22 256.67 524.94 256.31 524.61 255.96 524.25 255.74 524.01 255.62 523.89 255.29 523.58 254.95 523.26 254.52 522.73 254.04 522 253.49 521.17 252.94 520.34 252.44 519.55 251.93 518.78 251.28 517.71 250.43 516.23 249.58 514.73 248.71 513.25 247.86 511.73 247.43 510.98 247.25 510.66 246.87 510.05 246.58 509.67 246.36 509.32 246.02 508.84 245.75 508.57 245.39 508.19 244.68 507.58 244.09 507.2 243.77 507.03 243.48 506.89 242.61 506.45 241.44 505.88 240.3 505.51 239.29 505.31 238.08 505.13 236.68 504.91 235.99 504.83 235.38 504.75 234.13 504.58 232.85 504.32 231.84 504.06 230.81 503.75 229.61 503.41 228.62 503 227.63 502.62 226.53 502.23 226.45 502.19 226.21 502.09 225.72 501.89 225.17 501.59 224.57 501.3 223.66 501.08 222.36 500.94 222.1 500.92 221.25 500.88 220.88 500.86 221.99 496.52 222.1 496.1 222.7 493.75 222.93 492.21 223.07 490.71 223.13 489.23 223.15 487.71 223.09 486.5 223.01 485.69 222.87 484.96 222.83 484.79 222.64 484.13 222.38 483.21 222.08 482.3 221.73 481.47 221.37 480.8 221.08 480.36 220.78 479.93 220.39 479.43 219.97 479.02 219.56 478.76 219.14 478.5 218.67 478.25 218.17 478.01 217.62 477.75 217.5 477.69 217.48 477.67 217.19 477.54 216.99 477.44 216.59 477.24 216.3 477.1 215.57 476.73 214.7 476.29 213.69 475.7 212.62 475.07 211.6 474.47 210.71 473.9 209.9 473.33 209.19 472.82 208.57 472.32 207.92 471.77 207.27 471.16 206.6 470.43 205.89 469.64 205.22 468.87 204.72 468.21 204.66 468.13 203.99 467.17 203.16 465.92 203.02 465.69 202.87 465.47 201.82 463.83 197.2 455.57 197.18 455.55 193.42 450.79 192.59 449.25 192.18 448.36 191.88 447.69 191.35 446.43 190.68 445.18 189.85 443.78 189.18 442.71 188.7 441.9 188.13 440.94 187.46 439.79 186.85 438.59 186.27 437.44 185.7 436.43 185.38 435.88 185.27 435.72 185.27 435.7 185.09 435.39 185.01 435.15 184.97 435.01 184.95 434.91 184.91 434.79 184.81 434.56 184.73 434.34 184.65 434.14 184.56 433.96 184.46 433.81 184.34 433.71 184.22 433.53 184.12 433.19 184 432.58 183.94 431.63 183.96 430.25 184.02 428.61 184.1 427.03 184.12 425.79 184.12 425.77 184.12 425.08 184.12 424.7 184.1 424.42 184.06 424.13 184.04 423.85 183.98 423.57 183.92 423.3 183.84 423 183.73 422.69 183.61 422.37 183.45 421.97 183.25 421.54 183.01 421.05 182.6 420.3 181.95 419.17 181.2 417.94 180.43 416.66 179.68 415.3 179.12 414.25 178.85 413.68 178.73 413.4 178.65 413.13 178.47 412.67 178.21 412.04 178.06 411.62 178.06 411.43 178.08 411.29 178.1 411.17 178.14 411.05 178.14 411.01 178.25 410.79 178.31 410.56 178.29 410.3 178.23 409.89 178.33 409.1 178.69 407.83 179.22 406.65 175.88 405.84 175.45 405.72 171.38 404.75 168.32 404.85 165.1 404.55 162.77 404.16 160.79 403.84 155.99 402.85 150.6 402.14 145.72 401.04 142.09 399.28 138.97 398.29 138.95 398.29 135.53 397.78 131.52 398.15 125.34 398.51 120.34 398.39 115.82 397.86 112.8 396.79 107.13 394.04 103.51 392.27 100.37 391.2 98.32 391.18 95.67 391.56 92.73 391.54 90.67 391.52 88.11 391.52 85.18 391.89 81.94 391.87 78.31 391.67 78.25 391.65 75.86 391.26 74.89 390.77 73.13 389.88 71.24 388.77 68.85 388.67 66.73 388.51 64.25 388.4 58.16 386.22 55.36 384.96 54.35 385.02 52.57 385.63 49.06 386.91 45.32 388.36 42.32 389.78 40.5 390.75 39.48 391.16 38.23 391.2 36.65 391.12 34.64 391.89 32.41 392.64 31.52 392.68 30.49 392.25 29.52 391.24 29.19 390.45 27.9 387.27 27.61 385.81 27.15 383.16 26.74 381.32 26.28 379.21 25.81 377.28 25.63 376.84 25.16 376.94 9.59 380.85 7.34 381.42 6.53 381.62 4.97 382.11 4.79 381.8 4.48 381.25 4.1 380.61 3.77 380.04 3.41 379.43 2.9 378.58 2.34 377.61 1.79 376.7 1.59 376.37 1.26 375.85 1.26 375.83 1 375.38 1.77 374.13 2.52 372.87 2.92 372.18 4.65 370.46 8.6 366.53 19.03 357.11 17.59 354.82 43.84 342.29 55.08 337.55 73.63 330.07 89.61 323.96 91.96 324.14 109.95 317.21 109.38 316.26 109 315.45 108.43 314.21 108.37 314.07 108.21 313.93 107.9 313.56 107.5 313.02 107.17 312.55 106.95 312.23 106.22 311.09 105.45 309.78 104.66 308.4 103.79 306.96 102.92 305.48 102.05 304 101.24 302.67 100.45 301.37 99.68 300.08 99.01 298.96 98.38 297.89 97.69 296.67 96.96 295.36 96.13 293.84 95.95 293.53 95.24 292.26 94.43 290.86 93.7 289.54 93.12 288.47 92.61 287.5 92.21 286.67 92.16 286.57 91.84 285.84 91.72 285.47 91.7 285.29 91.64 285.09 91.46 284.66 91.09 283.89 90.69 282.88 90.24 281.68 89.82 280.47 89.31 279.05 88.72 277.41 88.4 276.52 88.19 275.89 87.81 274.66 87.51 273.54 87.22 272.43 86.96 271.31 86.7 270.16 86.41 268.94 86.13 267.61 85.76 265.78 85.32 263.15 84.79 260.01 84.29 256.91 84.1 255.84 83.88 254.4 83.66 252.88 83.54 251.85 83.41 250.63 83.29 249.26 83.25 248.73 83.17 247.86 83.03 246.52 82.85 245.19 82.62 243.81 82.58 243.61 82.38 242.45 82.16 241.16 81.98 240.2 81.86 239.66 81.75 239.21 81.75 239.17 81.63 238.62 81.59 238.16 81.63 237.75 81.73 237.41 81.83 237 82.18 235.95 82.52 235 82.89 234.05 83.35 232.81 83.9 231.23 84.47 229.67 84.99 228.27 85.44 227.08 85.8 226.13 86.17 225.28 86.41 224.73 86.53 224.49 86.62 224.36 86.72 224.28 86.9 224.16 87.18 223.98 87.43 223.82 87.71 223.62 88.11 223.33 88.52 223.05 88.82 222.83 89.05 222.66 89.31 222.44 89.45 222.32 89.63 222.16 89.9 221.91 90.08 221.71 90.22 221.53 90.36 221.37 90.48 221.16 90.63 220.96 90.73 220.76 90.83 220.56 90.93 220.35 91.03 220.13 91.11 219.91 91.19 219.71 91.25 219.46 91.31 219.16 91.42 218.63 91.54 217.72 91.7 216.55 91.88 215.37 92.02 214.4 92.1 213.81 92.18 213.49 92.25 213.2 92.35 212.9 92.43 212.64 92.43 212.6 92.55 212.29 92.55 212.27 92.69 211.97 92.87 211.64 93.06 211.3 93.34 210.81 93.79 210.13 94.33 209.3 94.49 209.03 94.88 208.44 95.39 207.65 95.79 207.01 96.18 206.4 96.56 205.81 96.9 205.29 97.23 204.76 97.59 204.27 97.86 203.89 98.02 203.56 98.08 203.32 98.12 203.14 98.14 202.57 98.14 201.86 98.1 200.97 98.08 199.94 98.04 198.76 98 197.49 97.98 196.96 97.98 196.17 98 194.91 98.04 193.68 98.06 192.59 98.08 191.76 98.08 190.92 98.1 189.87 98.14 188.7 98.2 187.56 98.28 186.47 98.38 185.52 98.52 184.83 98.65 184.26 98.79 183.71 98.99 183.11 99.29 182.34 99.66 181.51 100.04 180.66 100.35 179.93 100.55 179.4 100.67 179.04 100.79 178.69 100.91 178.27 101 177.84 101.06 177.46 101.1 177.09 101.12 176.69 101.12 176.63 101.1 176.3 101.02 176 100.93 175.69 100.81 175.39 100.65 175.13 100.43 174.84 100.06 174.54 99.62 174.21 99.15 173.91 98.65 173.67 98.14 173.4 97.69 173.2 97.33 173.08 97.03 172.96 96.72 172.86 96.46 172.76 96.18 172.66 95.87 172.59 95.59 172.53 95.3 172.47 95 172.41 94.76 172.39 94.6 172.37 94.43 172.35 94.25 172.33 93.95 172.29 93.54 172.27 93.06 172.25 92.57 172.23 92.06 172.21 91.48 172.15 90.85 172.07 90.28 171.99 89.77 171.93 89.27 171.87 88.94 171.85 87.83 171.91 87.77 171.93 87.49 171.99 87.2 172.09 86.88 172.19 86.82 172.21 86.41 172.39 85.7 172.72 84.87 173.12 84.04 173.53 83.44 173.83 83.35 173.87 82.87 174.09 82.48 174.26 82.08 174.4 81.55 174.58 80.9 174.76 80.32 174.92 79.77 175.09 79.18 175.21 78.76 175.31 78.45 175.35 78.11 175.39 77.74 175.43 77.32 175.45 76.79 175.49 76.1 175.49 75.31 175.49 74.48 175.51 73.61 175.55 72.72 175.57 71.85 175.59 71.04 175.59 70.72 175.57 70.37 175.57 69.86 175.57 69.22 175.63 68.14 175.82 66.81 176.08 65.57 176.3 64.54 176.5 64.44 176.54 63.3 176.79 62.47 176.99 61.97 177.13 61.62 177.23 61.3 177.35 61.01 177.46 60.81 177.56 60.63 177.62 60.39 177.72 60.12 177.94 60 178.02 59.84 178.16 59.66 178.33 59.43 178.55 59.03 179.04 58.36 179.89 57.55 180.98 56.72 182.09 56.42 182.48 56.03 183.01 55.52 183.61 55.16 184.02 54.84 184.38 54.49 184.73 54.11 185.05 53.7 185.38 53.22 185.74 52.53 186.23 51.37 187.02 51.19 187.16 49.89 188.07 48.33 189.18 46.73 190.36 45.38 191.39 44.47 192.12 43.64 192.79 42.64 193.58 41.81 194.12 40.31 195.28 39.6 195.81 38.96 196.29 38.77 195.85 38.11 195.34 38.09 195.34 37.92 195.2 37.46 194.85 36.85 194.45 36.73 194.37 36.06 193.96 35.41 193.56 34.54 193.01 33.51 192.32 32.6 191.69 31.87 191.15 31.22 190.6 30.59 190.07 30 189.57 29.9 189.47 29.88 189.47 29.88 189.45 29.54 189.12 29.13 188.68 28.73 188.19 28.42 187.77 28.14 187.32 27.82 186.81 27.53 186.27 27.33 185.76 27.13 185.27 26.97 184.77 26.8 184.26 26.66 183.73 26.5 183.21 26.42 182.84 26.38 182.56 26.3 182.24 26.2 181.81 26.16 181.47 26.22 181.2 26.38 180.92 26.56 180.66 26.76 180.41 26.99 180.17 27.19 179.93 27.41 179.68 27.7 179.4 28.02 179.08 28.06 179.04 28.44 178.71 28.93 178.29 29.46 177.84 29.58 177.74 30 177.37 30.57 176.91 31.2 176.42 32.01 175.77 33.08 174.98 34.16 174.17 35.23 173.38 36.22 172.66 37.07 172.11 37.82 171.68 38.29 171.4 38.47 171.24 38.57 171.12 38.67 170.97 38.9 170.71 39.2 170.22 39.36 169.66 39.3 169.21 39.2 168.93 39.1 168.69 38.94 168.42 38.81 168.22 38.71 168.04 38.57 167.86 38.41 167.67 38.23 167.49 38.02 167.29 37.8 167.11 37.6 166.92 37.36 166.72 37.03 166.46 36.55 166.09 36.02 165.69 35.45 165.28 34.8 164.82 34.03 164.29 33.18 163.72 32.31 163.16 31.42 162.65 30.53 162.24 29.7 161.9 29.62 161.88 28.67 161.5 27.57 161.03 26.56 160.6 25.97 160.34 25.73 160.22 25.57 160.08 25.35 159.92 24.98 159.75 24.64 159.71 24.37 159.69 23.91 159.55 23.44 159.37 23.2 159.29 22.73 159.08 22.45 158.94 22.11 158.7 21.62 158.36 21.09 157.95 20.44 157.4 19.65 156.69 18.8 155.88 17.99 155.09 17.3 154.35 16.86 153.8 16.64 153.47 16.58 153.41 16.37 153.13 16.35 153.09 16.09 152.7 15.93 152.4 15.79 152.12 15.62 151.75 15.52 151.47 15.44 151.23 15.2 150.54 14.96 149.77 14.71 149.02 14.51 148.39 14.33 147.95 14.17 147.62 13.98 147.3 13.78 146.99 13.54 146.67 13.21 146.24 12.71 145.64 12.1 144.97 11.67 144.5 11.49 144.28 11.01 143.75 10.99 143.73 10.68 143.35 10.52 143.08 10.4 142.8 10.32 142.48 10.3 142.15 10.32 141.89 10.42 141.61 10.54 141.26 10.68 140.88 10.88 140.35 11.11 139.7 11.29 139.13 11.45 138.59 11.49 138.47 11.63 137.96 11.73 137.43 11.78 137.07 11.82 136.72 11.84 136.44 11.86 136.2 11.86 135.91 11.84 135.57 11.82 135.18 11.78 134.78 11.71 134.29 11.61 133.71 11.55 133.38 12.52 132.23 16.21 127.83 25.93 114.67 37.64 100 47.34 87.59 55.18 77.56 59.45 72.09 61.97 67.96 70.17 54.65 77.05 43.68 93.16 17 97.19 10.03 101.97 1.81 102.43 1 104.22 2.36 106 3.41 108.94 5.56 112.07 7.85 116.87 11.37 123.28 15.99 125.77 17.79 130.47 20.99 134.46 23.79 135.51 24.6 138.81 27.09 141.48 29.03 144.16 30.96 147.72 33.61 156.07 39.44 157.08 40.15 160.58 42.5 172.55 50.06 177.37 53.01 180.09 54.67 182.4 55.99 194.35 63.46 199.74 66.89 212.84 75.03 218.23 78.45 219.34 79.14 223.19 81.47 234.76 88.5 237.41 90.16 247.9 96.66 261.39 105.43 262.54 106.24 265.64 108.39 268.5 110.17 271.13 111.69 272.19 112.26 273.87 113.15 280.73 116.51 284.24 118.21 292.22 122.16 294.08 122.89 294.99 123.26 297.08 124.17 298.09 124.65 298.84 125.02 301.86 126.9 302.28 127.27 302.45 127.41 Z"/>
</g>
</svg>