<?xml version="1.0"?>
<svg xmlns="http://www.w3.org/2000/svg" version="1.2" baseProfile="tiny" width="800" height="1135" viewBox="0 0 800 1135" stroke-linecap="round" stroke-linejoin="round">
<g id="Thủ Đức (phường xã)">
<path d="M 522.78 49.34 530.55 59.61 546.01 80 547.12 81.21 552.5 87.09 556.82 91.81 577.85 100.28 604.47 107.67 609.2 114.25 613.16 119.78 614.25 121.29 615.78 122.61 623.95 129.64 626.83 132.12 648.19 145.13 664.76 153.75 671.54 157.29 693.72 162.88 706.47 163.52 709.8 163.71 711.31 163.78 717.35 164.18 718.6 164.27 718.84 164.3 730.76 166.09 732.65 166.37 736.75 166.44 764.96 153.98 765.98 160.94 773.37 176.31 786.11 197.46 799 218.75 796.47 230.22 784.37 255.53 772.8 270.85 775.87 271.06 788.68 279.89 790.46 281.16 788.66 282.96 786.54 285.25 780.97 292.02 770.46 306.63 767.54 311.12 748.01 343.86 737.51 358.66 710.98 404.83 686.24 448.26 673.42 471.51 672.98 472.34 670.66 476.51 667.97 481.42 638.87 533.85 638.02 535.36 632.71 544.64 612.88 579.12 607.21 589.77 605.16 593.88 599.75 603.08 599.71 603.18 579.1 638.37 566.99 659.19 546.5 695.21 529.72 727.19 516.05 751.34 504.34 770.75 476.54 821 463.98 842.36 447.53 870.78 441.91 882.89 433.06 906.85 425.91 933.48 418.75 966.17 415.12 985.64 414.74 987.27 410.3 1008.25 409.12 1015.1 405.77 1034.97 402.8 1049.66 399.02 1071.28 397.91 1077.56 393.31 1101.94 390.5 1116.98 388.3 1128.78 388.26 1129.04 386.63 1128.94 386.04 1128.83 385.59 1128.76 384.62 1128.47 383.68 1128.24 380.75 1127.95 378.27 1127.98 378.25 1127.98 377.52 1128.02 377.21 1128.05 374.75 1128.45 373.65 1128.54 366.8 1128.43 357.76 1126.14 356.32 1125.88 354.62 1125.78 353.65 1125.88 349.57 1126.61 347.96 1126.99 345.01 1128.05 343.24 1128.5 341.26 1128.73 337.81 1128.87 323.46 1129.42 316.59 1129.68 278.97 1131.68 265.63 1134.44 251.02 1134.07 252.03 1130.57 252.65 1128.47 253.76 1120.82 255.95 1101.61 257.89 1084.8 259 1075.34 258.29 1000.28 258.64 959.23 259.23 889.38 259.52 854.64 259.47 798.86 256.21 768.48 238.37 731.99 237.59 730.41 236.08 727.31 235.77 726.68 229.28 717.02 213.13 690.7 212.78 690.11 212.47 689.64 212.31 689.38 211.95 688.79 211.74 688.44 211.43 688.06 210.37 686.95 208.01 684.61 204.68 681.76 201.19 679.16 198.1 676.92 195.01 674.7 191.54 672.2 188.21 669.48 185.26 666.89 182.99 664.95 181.74 663.89 181.01 663.16 180.23 662.33 179.43 661.53 178.84 660.91 178.29 660.42 177.68 659.95 176.97 659.43 176.22 658.91 175.53 658.41 174.94 657.99 174.19 657.4 172.98 656.43 171.5 655.32 169.84 654.28 167.84 653.05 165.36 651.47 162.71 649.84 160.02 648.28 158.68 647.6 161.11 643.63 175.51 620.03 177.89 616.14 178.41 615.5 179.19 614.53 179.71 613.89 179.99 613.56 180.02 613.52 180.23 613.26 180.87 612.45 181.79 611.34 182.66 610.26 183.37 609.41 183.79 608.94 184.15 608.68 184.6 608.32 185.09 607.85 185.64 607.09 186.27 606.01 186.34 605.91 187.15 604.73 188.28 603.46 189.53 602.23 190.59 601.22 191.25 600.56 191.7 600.13 192.08 599.82 192.53 599.52 193.09 599.14 193.83 598.72 194.65 598.24 195.69 597.72 196.8 597.23 197.65 596.87 198.5 596.52 199.66 596.1 200.03 595.98 200.81 595.69 201.85 595.29 202.72 594.82 203.43 594.28 204.09 593.76 204.73 593.31 205.2 592.96 205.6 592.63 206.01 592.27 206.29 592.04 206.53 591.85 207.12 591.35 207.16 591.3 207.99 590.5 208.44 590.08 208.65 589.75 208.84 589.51 209.52 588.73 209.9 587.67 210.02 587.17 210.18 586.44 210.33 585.73 210.4 585.02 210.47 584.29 210.44 583.51 210.35 582.76 210.23 582.05 210.11 581.37 209.97 580.7 209.76 580.04 209.48 579.38 209 578.67 208.41 577.92 207.89 577.23 207.33 576.57 206.64 575.87 205.93 575.28 205.09 574.76 203.79 574.02 201.99 572.94 200.03 571.66 199.92 571.59 197.86 570.25 196.09 569.04 194.86 568.24 194.6 568.05 193.28 567.25 192.95 567.04 192.93 567.04 191.39 566.07 190.64 565.62 189.25 564.8 188.09 564.11 187.24 563.62 186.39 563.17 185.52 562.69 184.48 562.2 183.32 561.68 182.68 561.42 182.28 561.25 181.43 561 180.7 560.81 179.9 560.64 178.88 560.52 177.75 560.5 176.81 560.52 176.26 560.55 175.86 560.57 174.61 560.71 173.31 560.97 171.92 561.28 170.36 561.51 168.85 561.73 167.34 561.94 165.76 562.22 164.25 562.62 162.81 563.07 162.05 563.33 161.56 563.5 161.49 563.52 160.4 563.85 159.17 564.21 158.16 564.42 157.4 564.51 157.36 564.51 156.79 564.49 156.25 564.42 155.75 564.35 155.26 564.28 154.93 564.23 154.05 564.18 153.16 563.83 152.52 563.54 151.62 563.12 150.7 562.69 149.87 562.27 149.19 561.84 148.74 561.51 148.6 561.4 148.01 560.95 147.47 560.5 146.99 560.03 146.55 559.56 146.17 559.01 145.81 558.37 145.53 557.69 145.32 557.1 145.2 556.51 145.04 555.8 144.85 554.95 144.73 554.03 144.66 553.09 144.59 552.07 144.54 551.03 144.56 550.04 144.63 549.24 144.78 548.67 144.92 548.13 145.06 547.54 145.2 546.9 145.39 546.17 145.67 545.27 146.03 544.31 146.38 543.36 146.73 542.54 147.14 541.76 147.49 541.12 147.8 540.65 148.17 540.1 148.72 539.37 149.4 538.57 150.09 537.79 150.65 537.04 151.08 536.42 151.53 535.81 152.07 534.94 152.61 533.99 153.18 533 153.63 532.03 154.03 531.02 154.41 529.96 154.78 528.94 155.07 528 155.3 527.03 155.47 526.08 155.54 525.21 155.61 524.53 155.63 524.05 155.63 523.82 155.68 522.92 155.68 521.98 155.63 521.08 155.56 520.23 155.49 519.59 155.42 519.19 155.33 518.81 155.26 518.22 155.19 517.4 155.14 516.52 155.16 515.67 155.26 514.94 155.37 514.35 155.56 513.76 155.82 513.12 156.18 512.44 156.6 511.76 157.1 511.12 157.59 510.5 158.14 509.89 158.75 509.3 159.46 508.76 160.21 508.29 160.97 507.86 161.7 507.55 162.43 507.39 163.07 507.29 163.71 507.22 164.04 507.2 164.3 507.2 164.86 507.22 165.57 507.32 166.47 507.51 167.48 507.74 168.43 507.98 169.35 508.19 170.29 508.4 171.02 508.57 171.45 508.69 171.78 508.78 172.13 508.85 172.61 508.97 173.12 509.06 173.79 509.14 174.56 509.14 175.39 509.11 176.24 509.09 177.11 508.99 177.99 508.81 178.7 508.62 179.4 508.4 180.18 508.1 180.94 507.79 181.6 507.46 182.19 507.11 182.71 506.78 183.16 506.42 183.53 506.07 183.82 505.83 184.05 505.64 184.27 505.5 184.48 505.34 184.74 505.15 185.04 504.91 185.38 504.65 185.71 504.39 185.8 504.34 186.06 504.13 186.34 503.92 186.63 503.73 186.89 503.54 187.17 503.35 187.38 503.19 187.57 503.05 187.78 502.9 188.16 502.69 188.63 502.41 189.15 502.08 189.62 501.72 190.07 501.35 190.66 500.8 190.97 500.5 191.49 499.98 192.17 498.87 192.39 497.9 192.39 497.85 192.41 497.22 192.32 496.74 192.1 496.11 191.8 495.37 191.42 494.6 191.18 494.15 191.04 493.89 190.76 493.34 190.47 492.78 190.05 492 189.58 491.08 189.1 490.16 188.66 489.21 188.26 488.27 187.88 487.25 187.48 486.17 187.17 485.2 186.91 484.3 186.58 483.36 186.34 482.53 186.15 481.71 185.92 480.76 185.68 479.77 185.49 478.66 185.42 477.48 185.45 476.3 185.49 475.12 185.54 473.94 185.61 472.76 185.64 472.48 185.71 471.6 185.78 470.38 185.85 469.01 185.87 467.59 185.82 466.44 185.75 465.16 185.59 463.06 185.3 460.37 185.14 458.72 185.04 457.75 184.79 455.2 184.55 452.82 184.45 451.23 184.5 450.2 184.55 449.27 184.57 448.92 184.62 448.42 184.81 447.79 185 447.17 185.16 446.3 185.54 445.26 186.2 444.51 186.74 444.11 187.17 443.82 187.62 443.68 188.18 443.61 188.89 443.44 189.7 443.23 190.5 443.11 190.62 443.09 191.49 443.04 192.32 443.04 192.93 443.02 193.35 443.02 193.83 443.02 194.25 443.02 195.57 443 196.61 443.47 196.92 443.61 197.44 443.92 198.05 444.27 198.66 444.62 199.18 444.95 199.68 445.31 200.2 445.66 200.84 446.02 201.59 446.37 202.32 446.73 203.01 447.01 203.48 447.15 204.42 447.43 205.53 447.48 205.86 447.46 206.38 447.39 206.9 447.32 207.35 447.17 207.85 446.91 208.34 446.54 208.77 446.21 208.84 446.14 209.17 445.85 209.22 445.8 209.64 445.36 210.11 444.86 210.54 444.44 210.92 444.01 211.32 443.61 211.69 443.21 212.05 442.74 212.33 442.1 212.54 441.3 212.54 440.35 212.21 439.53 211.72 439.05 211.53 438.89 211.39 438.77 211.22 438.39 211.2 437.73 211.22 436.95 211.25 436.41 211.32 435.89 211.43 435.06 211.6 433.93 211.77 432.54 211.93 430.72 212.1 428.62 212.26 426.54 212.4 424.91 212.5 424.02 212.54 423.62 212.59 423.33 212.66 422.93 212.78 422.27 212.95 421.26 213.16 420 213.3 419.04 213.44 418.19 213.63 417.03 213.89 415.61 214.1 414.46 214.24 413.77 214.31 413.28 214.39 412.83 214.46 412.43 214.5 412.05 214.55 411.74 214.46 411.7 209.17 409.26 191.98 402.51 145.15 385.33 116.17 370.51 100.66 365.45 93.58 357.69 90.56 353.98 84.16 349.26 79.44 347.59 71.67 345.91 56.52 343.55 48.78 340.84 35.63 340.84 19.1 342.2 8.7 339.63 8.58 339.47 8.77 339.42 9.36 338.92 9.66 338.69 9.88 338.52 10.06 338.36 10.47 337.96 10.49 337.91 10.77 337.39 10.98 336.78 11.03 336.49 11.08 336.37 11.17 336.02 11.34 335.36 11.48 334.82 11.6 334.37 11.62 334.27 11.69 333.92 11.76 333.45 11.83 332.9 11.88 332.1 11.91 331.04 11.91 330.94 11.88 330.07 11.86 329.06 11.81 327.85 11.74 326.79 11.67 325.87 11.62 324.71 11.62 323.3 11.65 321.86 11.67 320.42 11.74 318.95 11.81 317.73 11.91 316.59 11.93 315.41 11.93 314.21 11.93 313.03 11.93 311.99 11.88 311.16 11.83 310.43 11.79 309.75 11.69 309.16 11.55 308.61 11.34 308.07 11.08 307.51 10.84 306.89 10.56 306.28 10.21 305.66 9.85 305.05 9.54 304.46 9.21 303.85 8.86 303.19 8.46 302.52 8.46 302.5 7.99 301.68 7.49 300.59 6.95 299.39 6.43 298.16 5.89 296.91 5.39 295.63 4.92 294.26 4.45 292.82 3.93 291.08 3.93 291.01 3.43 289.02 2.94 286.88 2.44 284.82 2.09 283.29 1.87 282.48 1.76 281.92 1.57 281.19 1.24 280.29 1 279.01 1.07 277.65 1.24 276.58 1.33 275.62 1.38 274.72 1.47 273.85 1.57 272.95 1.73 271.91 1.99 270.73 2.25 269.67 2.51 268.61 2.96 267.28 3.48 265.82 4.02 264.33 4.56 262.87 5.06 261.45 5.48 260.2 5.89 259.02 6.26 257.91 6.64 256.92 7.02 256.05 7.51 255.01 8.08 253.85 8.51 253.1 8.86 252.58 9.17 251.94 9.4 251.28 9.54 250.71 9.64 250.17 9.9 249.32 10.37 247.93 10.82 246.39 11.29 244.74 11.86 242.97 12.28 241.6 12.57 240.47 13.01 239.1 13.58 237.42 14.05 236.03 14.31 235.28 14.5 234.8 15 233.55 15.4 232.56 15.73 231.83 16.11 231 16.58 230.01 16.93 229.4 17.12 229.14 17.22 229.04 17.29 229 17.45 228.93 17.66 228.83 17.85 228.76 17.97 228.69 18 228.69 18.09 228.62 18.18 228.55 18.3 228.38 18.51 228.08 18.87 227.42 19.34 226.49 19.72 225.79 19.95 225.31 20.17 224.84 20.5 224.13 20.92 223.19 21.21 222.53 21.35 222.17 21.44 221.89 21.58 221.58 21.72 221.23 24.06 218.85 25.1 216.53 26.04 214.9 27.81 211.08 29.49 206.83 30.08 205.39 30.34 204.4 30.43 204.05 30.6 203.27 30.67 202.91 30.69 202.11 30.69 201.4 30.67 200.08 30.62 198 30.39 197.22 26.92 185.56 26.73 182.17 27.65 179.69 30.2 177.33 30.29 177.26 30.91 176.83 34.52 174.38 36.52 172.2 37.4 170.17 38.11 168.55 38.11 168.52 38.79 167.11 39.99 163.4 40.94 159.84 41.22 158.8 42.12 154.59 42.36 153.58 42.59 150.7 42.64 150.18 42.69 149.71 42.71 148.03 42.71 147.14 42.73 145.81 42.76 143.38 43.56 138.76 43.63 138.5 43.72 138.33 43.84 138.19 44.36 137.74 45.45 130.16 45.87 127.26 45.92 126.06 45.97 124.78 45.71 122.89 45.07 120.79 43.72 118.03 41.36 114.87 38.93 112.89 38.86 112.84 39.03 112.32 39.29 110.19 39.64 107.36 40.7 92.3 41.62 73.77 41.81 69.81 41.43 67.68 40.99 66.95 41.6 66.31 48.8 58.78 50.31 58.43 50.59 56.97 58.71 46.06 61.81 42.24 65.65 34.68 67.42 29.96 68.96 25.93 69.45 24.65 70.8 24.89 72.12 25.48 73.63 26.45 75 26.8 76.32 26.68 80.22 24.94 83.05 24.01 89.09 22.62 92.3 21.96 97.35 21.18 102.22 20.76 105.73 21.13 109.53 21.84 117.23 22.24 124.66 22.69 131.46 22.22 135.85 21.09 138.78 20.33 141.9 23.59 145.98 28.03 149.12 30.95 150.63 31.78 154.03 32.32 159.46 32.3 162.79 32.18 170.55 31.87 177.54 31.21 178.74 31.1 186.65 43.63 188.54 46.63 189.46 48.35 190.45 50.17 191.35 51.84 192.79 51.11 195.27 49.53 197.08 49.15 198.12 48.94 199.47 48.61 201.64 48.07 202.77 47.78 204.05 47.48 204.9 47.26 205.82 47.03 209.78 46.11 211.25 45.59 211.91 45.42 211.67 44.74 212.62 44.41 213.13 44.24 214.01 43.94 214.76 43.7 215.16 43.58 221.4 42.21 221.44 42.21 229 40.73 229.04 40.7 232.54 40.04 233.86 39.97 243.3 38.79 246.25 38.81 246.3 38.81 249.96 38.91 253.59 41.29 255.74 43.42 257.23 45.57 259.12 48.3 261.88 49.67 262.77 50.12 262.82 46.91 481.66 1 492.99 8.77 498.61 12.28 502.08 17.5 505.9 26.92 516.36 40.89 522.78 49.34 Z"/>
</g>
</svg>